<?xml version="1.0" encoding="UTF-8" standalone="no"?>
<!-- Created with Inkscape (http://www.inkscape.org/) -->

<svg
   width="1080"
   height="1080"
   viewBox="0 0 285.74999 285.75"
   version="1.1"
   id="svg1"
   inkscape:version="1.4 (86a8ad7, 2024-10-11)"
   sodipodi:docname="logo.svg"
   xml:space="preserve"
   xmlns:inkscape="http://www.inkscape.org/namespaces/inkscape"
   xmlns:sodipodi="http://sodipodi.sourceforge.net/DTD/sodipodi-0.dtd"
   xmlns="http://www.w3.org/2000/svg"
   xmlns:svg="http://www.w3.org/2000/svg"><sodipodi:namedview
     id="namedview1"
     pagecolor="#ffffff"
     bordercolor="#000000"
     borderopacity="0.25"
     inkscape:showpageshadow="2"
     inkscape:pageopacity="0.0"
     inkscape:pagecheckerboard="0"
     inkscape:deskcolor="#d1d1d1"
     inkscape:document-units="mm"
     inkscape:zoom="0.68862935"
     inkscape:cx="513.33857"
     inkscape:cy="402.9744"
     inkscape:window-width="1920"
     inkscape:window-height="991"
     inkscape:window-x="-9"
     inkscape:window-y="-9"
     inkscape:window-maximized="1"
     inkscape:current-layer="g9" /><defs
     id="defs1"><inkscape:path-effect
       effect="mirror_symmetry"
       start_point="157.46576,7.9916874"
       end_point="157.46576,291.5439"
       center_point="157.46576,149.76779"
       id="path-effect9"
       is_visible="true"
       lpeversion="1.2"
       lpesatellites=""
       mode="vertical"
       discard_orig_path="false"
       fuse_paths="false"
       oposite_fuse="false"
       split_items="false"
       split_open="false"
       link_styles="false" /><linearGradient
       id="swatch6"
       inkscape:swatch="solid"><stop
         style="stop-color:#000000;stop-opacity:1;"
         offset="0"
         id="stop6" /></linearGradient><style
       id="style1">
      .cls-1 {
        fill: #fff;
      }

      .cls-1, .cls-2 {
        stroke: #000;
        stroke-miterlimit: 10;
        stroke-width: 3px;
      }

      .cls-2 {
        fill: none;
      }
    </style><style
       id="style1-4">
      .cls-1 {
        fill: none;
        stroke: #000;
        stroke-miterlimit: 10;
      }

      .cls-2 {
        opacity: .5;
      }
    </style></defs><g
     inkscape:label="reference"
     inkscape:groupmode="layer"
     id="layer1"
     style="display:none"><g
       id="g6"
       inkscape:label="shape"
       sodipodi:insensitive="true"
       style="display:none"><path
         class="cls-1"
         d="m 182.23918,113.72773 c 0,21.9188 -17.7687,39.6875 -39.6875,39.6875 -21.9188,0 -39.6875,-17.7687 -39.6875,-39.6875 0,-21.918796 17.7687,-39.687498 39.6875,-39.687498 14.12425,0 26.52522,7.37825 33.5589,18.490723 3.8816,6.132486 6.1286,13.402235 6.1286,21.196775 z"
         id="path1"
         style="stroke-width:0.264583;stroke-dasharray:3.175, 3.175;stroke-dashoffset:0" /><path
         class="cls-2"
         d="m 106.26569,97.630005 c 0,0 -11.088738,-1.538896 -21.365022,-7.371371 C 79.901736,87.421401 77.40227,82.827785 69.093216,78.099072 60.784162,73.37036 8.9483715,81.679387 8.2277788,82.760237 7.8381799,83.344622 30.770252,95.543263 32.169766,105.59322 c 0.71493,5.13406 -4.204838,21.30261 -14.889851,26.27818 6.888269,-2.96635 12.643591,-6.14743 14.118617,-7.56594 -2.378049,7.38338 -12.294685,24.04893 -16.184616,43.16647 C 12.106332,182.7445 27.885765,218.87992 0.18896996,233.87671 28.155984,224.28417 18.385292,184.37331 22.104354,165.85065 25.02591,151.29989 41.256721,125.79858 58.1496,116.87458 c 17.797621,-9.40194 36.437305,-1.70347 45.35641,3.99891"
         id="path2"
         style="stroke-width:0.264583;stroke-dasharray:3.175, 3.175;stroke-dashoffset:0" /></g><g
       id="dimensions"
       class="cls-2"
       transform="matrix(0.26458333,0,0,0.26458333,-211.09314,-65.694935)"
       style="display:inline"><circle
         class="cls-1"
         cx="209.32077"
         cy="774.02557"
         r="250"
         id="circle5" /><circle
         class="cls-1"
         cx="406.95749"
         cy="239.30099"
         r="150"
         id="circle6" /><circle
         class="cls-1"
         cx="656.95752"
         cy="189.30099"
         r="100"
         id="circle7" /><circle
         class="cls-1"
         cx="217.57959"
         cy="366.89203"
         r="50"
         id="circle8" /></g></g><g
     inkscape:groupmode="layer"
     id="layer3"
     inkscape:label="guide curves"
     style="display:none"><circle
       class="cls-1"
       cx="92.231392"
       cy="180.27045"
       r="66.145836"
       id="circle5-4"
       style="fill:none;stroke:#000000;stroke-width:0.264583;stroke-miterlimit:10;stroke-dasharray:1.05833, 0.264583;stroke-dashoffset:0" /><circle
       class="cls-1"
       cx="234.54929"
       cy="113.5909"
       id="circle5-4-95"
       style="display:inline;fill:none;stroke:#000000;stroke-width:0.20806;stroke-miterlimit:10;stroke-dasharray:0.832236, 0.20806;stroke-dashoffset:0"
       r="52.014946" /><circle
       class="cls-1"
       cx="142.875"
       cy="113.71931"
       id="circle5-4-95-2"
       style="display:inline;fill:none;stroke:#000000;stroke-width:0.127621;stroke-miterlimit:10;stroke-dasharray:0.510482, 0.127621;stroke-dashoffset:0"
       r="31.905264" /><circle
       class="cls-1"
       cx="86.659225"
       cy="176.41379"
       r="66.145836"
       id="circle5-4-9"
       style="fill:none;stroke:#000000;stroke-width:0.264583;stroke-miterlimit:10;stroke-dasharray:1.05833, 0.264583;stroke-dashoffset:0" /><circle
       class="cls-1"
       cx="109.86349"
       cy="56.789852"
       r="39.6875"
       id="circle6-5"
       style="fill:none;stroke:#000000;stroke-width:0.264583;stroke-miterlimit:10;stroke-dasharray:1.05833, 0.264583;stroke-dashoffset:0" /><circle
       class="cls-1"
       cx="65.762642"
       cy="90.757378"
       r="13.229166"
       id="circle8-8"
       style="fill:none;stroke:#000000;stroke-width:0.264583;stroke-miterlimit:10;stroke-dasharray:1.05833, 0.264583;stroke-dashoffset:0" /><circle
       class="cls-1"
       cx="-20.113573"
       cy="202.6371"
       r="39.6875"
       id="circle6-1"
       style="fill:none;stroke:#000000;stroke-width:0.264583;stroke-miterlimit:10;stroke-dasharray:1.05833, 0.264583;stroke-dashoffset:0" /><circle
       class="cls-1"
       cx="3.2389247"
       cy="110.61662"
       r="26.458332"
       id="circle7-4"
       style="fill:none;stroke:#000000;stroke-width:0.264583;stroke-miterlimit:10;stroke-dasharray:1.05833, 0.264583;stroke-dashoffset:0" /><circle
       class="cls-1"
       cx="108.26134"
       cy="107.89059"
       r="26.458332"
       id="circle7-4-2"
       style="display:inline;fill:none;stroke:#000000;stroke-width:0.264583;stroke-miterlimit:10;stroke-dasharray:1.05833, 0.264583;stroke-dashoffset:0" /><circle
       class="cls-1"
       cx="20.505009"
       cy="107.69519"
       r="13.229166"
       id="circle8-7"
       style="fill:none;stroke:#000000;stroke-width:0.264583;stroke-miterlimit:10;stroke-dasharray:1.05833, 0.264583;stroke-dashoffset:0" /><circle
       class="cls-1"
       cx="67.770866"
       cy="165.47806"
       r="39.6875"
       id="circle6-14"
       style="display:inline;fill:none;stroke:#000000;stroke-width:0.264583;stroke-miterlimit:10;stroke-dasharray:1.05833, 0.264583;stroke-dashoffset:0" /></g><g
     inkscape:groupmode="layer"
     id="layer5"
     inkscape:label="main"
     transform="matrix(1.0077509,0,0,1.0077509,-15.811259,-8.0536302)"
     style="display:inline"><circle
       style="fill:none;stroke:#000000;stroke-width:0.633197;stroke-dasharray:none;stroke-opacity:1"
       id="path6"
       cx="157.46576"
       cy="120.83635"
       r="31.659874" /><g
       id="g9"
       inkscape:path-effect="#path-effect9"><path
         style="display:inline;fill:none;stroke:#000000;stroke-width:0.787645;stroke-dasharray:none;stroke-dashoffset:0;stroke-opacity:1"
         d="M 121.75204,103.76032 C 106.9574,103.75945 98.862896,92.010515 86.091786,85.443547 80.36048,82.496481 44.703769,85.632194 25.694483,90.068862 c 9.756453,7.935632 23.807023,13.101618 24.097049,24.877968 0.09603,3.89905 -5.210826,14.2803 -14.099989,22.44829 1.988604,-0.47584 9.485469,-2.88081 12.99548,-6.10057 -5.293532,7.60161 -7.086628,15.0975 -7.159841,22.33841 -0.128722,12.73096 5.059176,24.67371 5.886284,35.01705 2.631767,32.91136 0.401994,39.25062 -2.243722,52.35891 10.917142,-17.66606 9.409343,-43.64063 9.929777,-57.065 1.66096,-42.84371 24.094606,-54.09469 41.079084,-49.57149 10.791955,2.87405 16.717925,7.0214 28.013755,7.53155 m 68.98712,-38.14366 c 14.79464,-8.7e-4 22.88914,-11.749805 35.66025,-18.316773 5.73131,-2.947066 41.38802,0.188647 60.3973,4.625315 -9.75645,7.935632 -23.80702,13.101618 -24.09705,24.877968 -0.096,3.89905 5.21083,14.2803 14.09999,22.44829 -1.9886,-0.47584 -9.48547,-2.88081 -12.99548,-6.10057 5.29353,7.60161 7.08663,15.0975 7.15984,22.33841 0.12873,12.73096 -5.05917,24.67371 -5.88628,35.01705 -2.63177,32.91136 -0.40199,39.25062 2.24372,52.35891 -10.91714,-17.66606 -9.40934,-43.64063 -9.92978,-57.065 -1.66096,-42.84371 -24.0946,-54.09469 -41.07908,-49.57149 -10.79195,2.87405 -16.71792,7.0214 -28.01375,7.53155"
         id="path12"
         sodipodi:nodetypes="cscsccsscssc"
         inkscape:original-d="M 121.75204,103.76032 C 106.9574,103.75945 98.862896,92.010515 86.091786,85.443547 80.36048,82.496481 44.703769,85.632194 25.694483,90.068862 c 9.756453,7.935632 23.807023,13.101618 24.097049,24.877968 0.09603,3.89905 -5.210826,14.2803 -14.099989,22.44829 1.988604,-0.47584 9.485469,-2.88081 12.99548,-6.10057 -5.293532,7.60161 -7.086628,15.0975 -7.159841,22.33841 -0.128722,12.73096 5.059176,24.67371 5.886284,35.01705 2.631767,32.91136 0.401994,39.25062 -2.243722,52.35891 10.917142,-17.66606 9.409343,-43.64063 9.929777,-57.065 1.66096,-42.84371 24.094606,-54.09469 41.079084,-49.57149 10.791955,2.87405 16.717925,7.0214 28.013755,7.53155" /><path
         style="display:inline;fill:none;stroke:#000000;stroke-width:0.787645"
         d="m 112.20398,111.78503 -21.297856,-3.7743 -24.10142,-5.78107 m 135.922836,9.55537 21.29785,-3.7743 24.10142,-5.78107"
         id="path7"
         sodipodi:nodetypes="ccc"
         inkscape:original-d="m 112.20398,111.78503 -21.297856,-3.7743 -24.10142,-5.78107" /><path
         style="display:inline;fill:none;stroke:#000000;stroke-width:0.787645"
         d="m 90.906124,108.01073 -26.135533,1.68388 m 159.254799,-1.68388 26.13553,1.68388"
         id="path8"
         sodipodi:nodetypes="cc"
         inkscape:original-d="m 90.906124,108.01073 -26.135533,1.68388" /></g></g></svg>
