<?xml version="1.0" encoding="UTF-8"?>
<svg id="reference_moon" xmlns="http://www.w3.org/2000/svg" viewBox="0 0 1080 1080">
  <defs>
    <style>
      .cls-1 {
        fill: #fff;
      }

      .cls-1, .cls-2 {
        stroke: #000;
        stroke-miterlimit: 10;
        stroke-width: 3px;
      }

      .cls-2 {
        fill: none;
      }
    </style>
  </defs>
  <path class="cls-1" d="M690,540c0,82.8427-67.1573,150-150,150s-150-67.1573-150-150,67.1573-150,150-150c53.383,0,100.2528,27.8863,126.8368,69.8862,14.6706,23.1779,23.1632,50.6541,23.1632,80.1138Z"/>
  <path class="cls-2" d="M402.8561,479.1582s-41.9102-5.8163-80.7497-27.8603c-18.8936-10.7234-28.3404-28.0851-59.7447-45.9574s-227.3191,13.5319-230.0426,17.617c-1.4725,2.2087,85.1999,48.3138,90.4894,86.2979,2.7021,19.4043-15.8923,80.5138-56.2766,99.3191,26.0344-11.2114,47.7868-23.2344,53.3617-28.5957-8.9879,27.9057-46.4681,90.8936-61.1702,163.1489-11.7452,57.7231,47.8936,194.2979-56.7872,250.9787,105.7021-36.2553,68.7735-187.0995,82.8298-257.1064,11.0421-54.995,72.3869-151.3779,136.234-185.1064,67.2666-35.5349,137.7158-6.4383,171.4258,15.114"/>
  <path class="cls-2" d="M677.1439,479.1582s41.9102-5.8163,80.7497-27.8603c18.8936-10.7234,28.3404-28.0851,59.7447-45.9574s227.3191,13.5319,230.0426,17.617c1.4725,2.2087-84.1846,48.4691-90.4894,86.2979-6.383,38.2979,56.6638,139.3571,64.0851,233.8723,4.6111,58.7252-47.8936,194.2979,56.7872,250.9787-105.7021-36.2553-68.7735-187.0995-82.8298-257.1064-11.0421-54.995-72.3869-151.3779-136.234-185.1064-67.2666-35.5349-137.7158-6.4383-171.4258,15.114"/>
</svg>