G04 #@! TF.GenerationSoftware,KiCad,Pcbnew,8.0.7*
G04 #@! TF.CreationDate,2025-03-15T22:58:08-07:00*
G04 #@! TF.ProjectId,keyboard,6b657962-6f61-4726-942e-6b696361645f,rev?*
G04 #@! TF.SameCoordinates,Original*
G04 #@! TF.FileFunction,Soldermask,Top*
G04 #@! TF.FilePolarity,Negative*
%FSLAX46Y46*%
G04 Gerber Fmt 4.6, Leading zero omitted, Abs format (unit mm)*
G04 Created by KiCad (PCBNEW 8.0.7) date 2025-03-15 22:58:08*
%MOMM*%
%LPD*%
G01*
G04 APERTURE LIST*
%ADD10R,2.000000X2.000000*%
%ADD11C,2.000000*%
%ADD12R,2.500000X3.000000*%
%ADD13C,1.750000*%
%ADD14C,3.000000*%
%ADD15C,3.987800*%
%ADD16C,4.300000*%
%ADD17R,3.000000X2.500000*%
%ADD18C,3.048000*%
%ADD19C,1.524000*%
G04 APERTURE END LIST*
D10*
X462037500Y-296506250D03*
D11*
X457037500Y-296506250D03*
X459537500Y-296506250D03*
D12*
X465137500Y-304006250D03*
X453937500Y-304006250D03*
D11*
X462037500Y-311006250D03*
X457037500Y-311006250D03*
D13*
X452120000Y-342900000D03*
D14*
X453390000Y-340360000D03*
D15*
X457200000Y-342900000D03*
D14*
X459740000Y-337820000D03*
D13*
X462280000Y-342900000D03*
X166370000Y-266700000D03*
D14*
X167640000Y-264160000D03*
D15*
X171450000Y-266700000D03*
D14*
X173990000Y-261620000D03*
D13*
X176530000Y-266700000D03*
X280670000Y-247650000D03*
D14*
X281940000Y-245110000D03*
D15*
X285750000Y-247650000D03*
D14*
X288290000Y-242570000D03*
D13*
X290830000Y-247650000D03*
X433070000Y-342900000D03*
D14*
X434340000Y-340360000D03*
D15*
X438150000Y-342900000D03*
D14*
X440690000Y-337820000D03*
D13*
X443230000Y-342900000D03*
X197326250Y-342900000D03*
D14*
X198596250Y-340360000D03*
D15*
X202406250Y-342900000D03*
D14*
X204946250Y-337820000D03*
D13*
X207486250Y-342900000D03*
X433070000Y-266700000D03*
D14*
X434340000Y-264160000D03*
D15*
X438150000Y-266700000D03*
D14*
X440690000Y-261620000D03*
D13*
X443230000Y-266700000D03*
D16*
X251460000Y-342900000D03*
D13*
X342582500Y-323850000D03*
D14*
X343852500Y-321310000D03*
D15*
X347662500Y-323850000D03*
D14*
X350202500Y-318770000D03*
D13*
X352742500Y-323850000D03*
X394970000Y-342900000D03*
D14*
X396240000Y-340360000D03*
D15*
X400050000Y-342900000D03*
D14*
X402590000Y-337820000D03*
D13*
X405130000Y-342900000D03*
X128270000Y-266700000D03*
D14*
X129540000Y-264160000D03*
D15*
X133350000Y-266700000D03*
D14*
X135890000Y-261620000D03*
D13*
X138430000Y-266700000D03*
X347345000Y-285750000D03*
D14*
X348615000Y-283210000D03*
D15*
X352425000Y-285750000D03*
D14*
X354965000Y-280670000D03*
D13*
X357505000Y-285750000D03*
X185420000Y-266700000D03*
D14*
X186690000Y-264160000D03*
D15*
X190500000Y-266700000D03*
D14*
X193040000Y-261620000D03*
D13*
X195580000Y-266700000D03*
X304482500Y-323850000D03*
D14*
X305752500Y-321310000D03*
D15*
X309562500Y-323850000D03*
D14*
X312102500Y-318770000D03*
D13*
X314642500Y-323850000D03*
X271145000Y-285750000D03*
D14*
X272415000Y-283210000D03*
D15*
X276225000Y-285750000D03*
D14*
X278765000Y-280670000D03*
D13*
X281305000Y-285750000D03*
X199707500Y-304800000D03*
D14*
X200977500Y-302260000D03*
D15*
X204787500Y-304800000D03*
D14*
X207327500Y-299720000D03*
D13*
X209867500Y-304800000D03*
D16*
X390525000Y-232410000D03*
D13*
X433070000Y-323850000D03*
D14*
X434340000Y-321310000D03*
D15*
X438150000Y-323850000D03*
D14*
X440690000Y-318770000D03*
D13*
X443230000Y-323850000D03*
X356870000Y-247650000D03*
D14*
X358140000Y-245110000D03*
D15*
X361950000Y-247650000D03*
D14*
X364490000Y-242570000D03*
D13*
X367030000Y-247650000D03*
X166370000Y-247650000D03*
D14*
X167640000Y-245110000D03*
D15*
X171450000Y-247650000D03*
D14*
X173990000Y-242570000D03*
D13*
X176530000Y-247650000D03*
X135413750Y-304800000D03*
D14*
X136683750Y-302260000D03*
D15*
X140493750Y-304800000D03*
D14*
X143033750Y-299720000D03*
D13*
X145573750Y-304800000D03*
X147320000Y-247650000D03*
D14*
X148590000Y-245110000D03*
D15*
X152400000Y-247650000D03*
D14*
X154940000Y-242570000D03*
D13*
X157480000Y-247650000D03*
X156845000Y-285750000D03*
D14*
X158115000Y-283210000D03*
D15*
X161925000Y-285750000D03*
D14*
X164465000Y-280670000D03*
D13*
X167005000Y-285750000D03*
X218757500Y-304800000D03*
D14*
X220027500Y-302260000D03*
D15*
X223837500Y-304800000D03*
D14*
X226377500Y-299720000D03*
D13*
X228917500Y-304800000D03*
X161607500Y-304800000D03*
D14*
X162877500Y-302260000D03*
D15*
X166687500Y-304800000D03*
D14*
X169227500Y-299720000D03*
D13*
X171767500Y-304800000D03*
X252095000Y-285750000D03*
D14*
X253365000Y-283210000D03*
D15*
X257175000Y-285750000D03*
D14*
X259715000Y-280670000D03*
D13*
X262255000Y-285750000D03*
D10*
X411850000Y-244356250D03*
D11*
X411850000Y-249356250D03*
X411850000Y-246856250D03*
D17*
X419350000Y-241256250D03*
X419350000Y-252456250D03*
D11*
X426350000Y-244356250D03*
X426350000Y-249356250D03*
D13*
X209232500Y-323850000D03*
D14*
X210502500Y-321310000D03*
D15*
X214312500Y-323850000D03*
D14*
X216852500Y-318770000D03*
D13*
X219392500Y-323850000D03*
X356870000Y-342900000D03*
D14*
X358140000Y-340360000D03*
D15*
X361950000Y-342900000D03*
D14*
X364490000Y-337820000D03*
D13*
X367030000Y-342900000D03*
X280670000Y-266700000D03*
D14*
X281940000Y-264160000D03*
D15*
X285750000Y-266700000D03*
D14*
X288290000Y-261620000D03*
D13*
X290830000Y-266700000D03*
X290195000Y-285750000D03*
D14*
X291465000Y-283210000D03*
D15*
X295275000Y-285750000D03*
D14*
X297815000Y-280670000D03*
D13*
X300355000Y-285750000D03*
X328295000Y-285750000D03*
D14*
X329565000Y-283210000D03*
D15*
X333375000Y-285750000D03*
D14*
X335915000Y-280670000D03*
D13*
X338455000Y-285750000D03*
X237807500Y-304800000D03*
D14*
X239077500Y-302260000D03*
D15*
X242887500Y-304800000D03*
D14*
X245427500Y-299720000D03*
D13*
X247967500Y-304800000D03*
X194945000Y-285750000D03*
D14*
X196215000Y-283210000D03*
D15*
X200025000Y-285750000D03*
D14*
X202565000Y-280670000D03*
D13*
X205105000Y-285750000D03*
X204470000Y-247650000D03*
D14*
X205740000Y-245110000D03*
D15*
X209550000Y-247650000D03*
D14*
X212090000Y-242570000D03*
D13*
X214630000Y-247650000D03*
X309245000Y-285750000D03*
D14*
X310515000Y-283210000D03*
D15*
X314325000Y-285750000D03*
D14*
X316865000Y-280670000D03*
D13*
X319405000Y-285750000D03*
X275907500Y-304800000D03*
D14*
X277177500Y-302260000D03*
D15*
X280987500Y-304800000D03*
D14*
X283527500Y-299720000D03*
D13*
X286067500Y-304800000D03*
X394970000Y-247650000D03*
D14*
X396240000Y-245110000D03*
D15*
X400050000Y-247650000D03*
D14*
X402590000Y-242570000D03*
D13*
X405130000Y-247650000D03*
D18*
X378587000Y-259715000D03*
D15*
X378587000Y-274955000D03*
D13*
X385445000Y-266700000D03*
D14*
X386715000Y-264160000D03*
D15*
X390525000Y-266700000D03*
D14*
X393065000Y-261620000D03*
D13*
X395605000Y-266700000D03*
D18*
X402463000Y-259715000D03*
D15*
X402463000Y-274955000D03*
D13*
X256857500Y-304800000D03*
D14*
X258127500Y-302260000D03*
D15*
X261937500Y-304800000D03*
D14*
X264477500Y-299720000D03*
D13*
X267017500Y-304800000D03*
X333057500Y-304800000D03*
D14*
X334327500Y-302260000D03*
D15*
X338137500Y-304800000D03*
D14*
X340677500Y-299720000D03*
D13*
X343217500Y-304800000D03*
D16*
X118110000Y-358140000D03*
X481330000Y-358140000D03*
D13*
X175895000Y-342900000D03*
D14*
X177165000Y-340360000D03*
D15*
X180975000Y-342900000D03*
D14*
X183515000Y-337820000D03*
D13*
X186055000Y-342900000D03*
D18*
X371443250Y-316865000D03*
D15*
X371443250Y-332105000D03*
D13*
X378301250Y-323850000D03*
D14*
X379571250Y-321310000D03*
D15*
X383381250Y-323850000D03*
D14*
X385921250Y-318770000D03*
D13*
X388461250Y-323850000D03*
D18*
X395319250Y-316865000D03*
D15*
X395319250Y-332105000D03*
D13*
X337820000Y-247650000D03*
D14*
X339090000Y-245110000D03*
D15*
X342900000Y-247650000D03*
D14*
X345440000Y-242570000D03*
D13*
X347980000Y-247650000D03*
X223520000Y-266700000D03*
D14*
X224790000Y-264160000D03*
D15*
X228600000Y-266700000D03*
D14*
X231140000Y-261620000D03*
D13*
X233680000Y-266700000D03*
X414020000Y-304800000D03*
D14*
X415290000Y-302260000D03*
D15*
X419100000Y-304800000D03*
D14*
X421640000Y-299720000D03*
D13*
X424180000Y-304800000D03*
X133032500Y-285750000D03*
D14*
X134302500Y-283210000D03*
D15*
X138112500Y-285750000D03*
D14*
X140652500Y-280670000D03*
D13*
X143192500Y-285750000D03*
X285432500Y-323850000D03*
D14*
X286702500Y-321310000D03*
D15*
X290512500Y-323850000D03*
D14*
X293052500Y-318770000D03*
D13*
X295592500Y-323850000D03*
X261620000Y-247650000D03*
D14*
X262890000Y-245110000D03*
D15*
X266700000Y-247650000D03*
D14*
X269240000Y-242570000D03*
D13*
X271780000Y-247650000D03*
X128270000Y-247650000D03*
D14*
X129540000Y-245110000D03*
D15*
X133350000Y-247650000D03*
D14*
X135890000Y-242570000D03*
D13*
X138430000Y-247650000D03*
X247332500Y-323850000D03*
D14*
X248602500Y-321310000D03*
D15*
X252412500Y-323850000D03*
D14*
X254952500Y-318770000D03*
D13*
X257492500Y-323850000D03*
X261620000Y-266700000D03*
D14*
X262890000Y-264160000D03*
D15*
X266700000Y-266700000D03*
D14*
X269240000Y-261620000D03*
D13*
X271780000Y-266700000D03*
X366395000Y-285750000D03*
D14*
X367665000Y-283210000D03*
D15*
X371475000Y-285750000D03*
D14*
X374015000Y-280670000D03*
D13*
X376555000Y-285750000D03*
X299720000Y-266700000D03*
D14*
X300990000Y-264160000D03*
D15*
X304800000Y-266700000D03*
D14*
X307340000Y-261620000D03*
D13*
X309880000Y-266700000D03*
X314007500Y-304800000D03*
D14*
X315277500Y-302260000D03*
D15*
X319087500Y-304800000D03*
D14*
X321627500Y-299720000D03*
D13*
X324167500Y-304800000D03*
X180657500Y-304800000D03*
D14*
X181927500Y-302260000D03*
D15*
X185737500Y-304800000D03*
D14*
X188277500Y-299720000D03*
D13*
X190817500Y-304800000D03*
X171132500Y-323850000D03*
D14*
X172402500Y-321310000D03*
D15*
X176212500Y-323850000D03*
D14*
X178752500Y-318770000D03*
D13*
X181292500Y-323850000D03*
X242570000Y-247650000D03*
D14*
X243840000Y-245110000D03*
D15*
X247650000Y-247650000D03*
D14*
X250190000Y-242570000D03*
D13*
X252730000Y-247650000D03*
X266382500Y-323850000D03*
D14*
X267652500Y-321310000D03*
D15*
X271462500Y-323850000D03*
D14*
X274002500Y-318770000D03*
D13*
X276542500Y-323850000D03*
X433070000Y-285750000D03*
D14*
X434340000Y-283210000D03*
D15*
X438150000Y-285750000D03*
D14*
X440690000Y-280670000D03*
D13*
X443230000Y-285750000D03*
D18*
X376205750Y-297815000D03*
D15*
X376205750Y-313055000D03*
D13*
X383063750Y-304800000D03*
D14*
X384333750Y-302260000D03*
D15*
X388143750Y-304800000D03*
D14*
X390683750Y-299720000D03*
D13*
X393223750Y-304800000D03*
D18*
X400081750Y-297815000D03*
D15*
X400081750Y-313055000D03*
D13*
X337820000Y-266700000D03*
D14*
X339090000Y-264160000D03*
D15*
X342900000Y-266700000D03*
D14*
X345440000Y-261620000D03*
D13*
X347980000Y-266700000D03*
D16*
X481330000Y-232410000D03*
D13*
X228282500Y-323850000D03*
D14*
X229552500Y-321310000D03*
D15*
X233362500Y-323850000D03*
D14*
X235902500Y-318770000D03*
D13*
X238442500Y-323850000D03*
X154463750Y-342900000D03*
D14*
X155733750Y-340360000D03*
D15*
X159543750Y-342900000D03*
D14*
X162083750Y-337820000D03*
D13*
X164623750Y-342900000D03*
X352107500Y-304800000D03*
D14*
X353377500Y-302260000D03*
D15*
X357187500Y-304800000D03*
D14*
X359727500Y-299720000D03*
D13*
X362267500Y-304800000D03*
X213995000Y-285750000D03*
D14*
X215265000Y-283210000D03*
D15*
X219075000Y-285750000D03*
D14*
X221615000Y-280670000D03*
D13*
X224155000Y-285750000D03*
D18*
X133318250Y-316865000D03*
D15*
X133318250Y-332105000D03*
D13*
X140176250Y-323850000D03*
D14*
X141446250Y-321310000D03*
D15*
X145256250Y-323850000D03*
D14*
X147796250Y-318770000D03*
D13*
X150336250Y-323850000D03*
D18*
X157194250Y-316865000D03*
D15*
X157194250Y-332105000D03*
D16*
X208915000Y-232410000D03*
D13*
X130651250Y-342900000D03*
D14*
X131921250Y-340360000D03*
D15*
X135731250Y-342900000D03*
D14*
X138271250Y-337820000D03*
D13*
X140811250Y-342900000D03*
D10*
X430900000Y-244356250D03*
D11*
X430900000Y-249356250D03*
X430900000Y-246856250D03*
D17*
X438400000Y-241256250D03*
X438400000Y-252456250D03*
D11*
X445400000Y-244356250D03*
X445400000Y-249356250D03*
D13*
X375920000Y-342900000D03*
D14*
X377190000Y-340360000D03*
D15*
X381000000Y-342900000D03*
D14*
X383540000Y-337820000D03*
D13*
X386080000Y-342900000D03*
X318770000Y-247650000D03*
D14*
X320040000Y-245110000D03*
D15*
X323850000Y-247650000D03*
D14*
X326390000Y-242570000D03*
D13*
X328930000Y-247650000D03*
X318770000Y-266700000D03*
D14*
X320040000Y-264160000D03*
D15*
X323850000Y-266700000D03*
D14*
X326390000Y-261620000D03*
D13*
X328930000Y-266700000D03*
X242570000Y-266700000D03*
D14*
X243840000Y-264160000D03*
D15*
X247650000Y-266700000D03*
D14*
X250190000Y-261620000D03*
D13*
X252730000Y-266700000D03*
X414020000Y-266700000D03*
D14*
X415290000Y-264160000D03*
D15*
X419100000Y-266700000D03*
D14*
X421640000Y-261620000D03*
D13*
X424180000Y-266700000D03*
X356870000Y-266700000D03*
D14*
X358140000Y-264160000D03*
D15*
X361950000Y-266700000D03*
D14*
X364490000Y-261620000D03*
D13*
X367030000Y-266700000D03*
X233045000Y-285750000D03*
D14*
X234315000Y-283210000D03*
D15*
X238125000Y-285750000D03*
D14*
X240665000Y-280670000D03*
D13*
X243205000Y-285750000D03*
X223520000Y-247650000D03*
D14*
X224790000Y-245110000D03*
D15*
X228600000Y-247650000D03*
D14*
X231140000Y-242570000D03*
D13*
X233680000Y-247650000D03*
X294957500Y-304800000D03*
D14*
X296227500Y-302260000D03*
D15*
X300037500Y-304800000D03*
D14*
X302577500Y-299720000D03*
D13*
X305117500Y-304800000D03*
X337820000Y-342900000D03*
D14*
X339090000Y-340360000D03*
D15*
X342900000Y-342900000D03*
D14*
X345440000Y-337820000D03*
D13*
X347980000Y-342900000D03*
D16*
X118110000Y-232410000D03*
D13*
X204470000Y-266700000D03*
D14*
X205740000Y-264160000D03*
D15*
X209550000Y-266700000D03*
D14*
X212090000Y-261620000D03*
D13*
X214630000Y-266700000D03*
D16*
X296545000Y-342900000D03*
D13*
X323532500Y-323850000D03*
D14*
X324802500Y-321310000D03*
D15*
X328612500Y-323850000D03*
D14*
X331152500Y-318770000D03*
D13*
X333692500Y-323850000D03*
X185420000Y-247650000D03*
D14*
X186690000Y-245110000D03*
D15*
X190500000Y-247650000D03*
D14*
X193040000Y-242570000D03*
D13*
X195580000Y-247650000D03*
X147320000Y-266700000D03*
D14*
X148590000Y-264160000D03*
D15*
X152400000Y-266700000D03*
D14*
X154940000Y-261620000D03*
D13*
X157480000Y-266700000D03*
X414020000Y-285750000D03*
D14*
X415290000Y-283210000D03*
D15*
X419100000Y-285750000D03*
D14*
X421640000Y-280670000D03*
D13*
X424180000Y-285750000D03*
X175895000Y-285750000D03*
D14*
X177165000Y-283210000D03*
D15*
X180975000Y-285750000D03*
D14*
X183515000Y-280670000D03*
D13*
X186055000Y-285750000D03*
D18*
X223843850Y-335915000D03*
D15*
X223843850Y-351155000D03*
D13*
X268763750Y-342900000D03*
D14*
X270033750Y-340360000D03*
D15*
X273843750Y-342900000D03*
D14*
X276383750Y-337820000D03*
D13*
X278923750Y-342900000D03*
D18*
X323843650Y-335915000D03*
D15*
X323843650Y-351155000D03*
D13*
X299720000Y-247650000D03*
D14*
X300990000Y-245110000D03*
D15*
X304800000Y-247650000D03*
D14*
X307340000Y-242570000D03*
D13*
X309880000Y-247650000D03*
X433070000Y-304800000D03*
D14*
X434340000Y-302260000D03*
D15*
X438150000Y-304800000D03*
D14*
X440690000Y-299720000D03*
D13*
X443230000Y-304800000D03*
X390207500Y-285750000D03*
D14*
X391477500Y-283210000D03*
D15*
X395287500Y-285750000D03*
D14*
X397827500Y-280670000D03*
D13*
X400367500Y-285750000D03*
X190182500Y-323850000D03*
D14*
X191452500Y-321310000D03*
D15*
X195262500Y-323850000D03*
D14*
X197802500Y-318770000D03*
D13*
X200342500Y-323850000D03*
X414020000Y-342900000D03*
D14*
X415290000Y-340360000D03*
D15*
X419100000Y-342900000D03*
D14*
X421640000Y-337820000D03*
D13*
X424180000Y-342900000D03*
D19*
X471170000Y-240665000D03*
X471170000Y-243205000D03*
X471170000Y-245745000D03*
X471170000Y-248285000D03*
X471170000Y-250825000D03*
X471170000Y-253365000D03*
X471170000Y-255905000D03*
X471170000Y-258445000D03*
X471170000Y-260985000D03*
X471170000Y-263525000D03*
X471170000Y-266065000D03*
X471170000Y-268605000D03*
X471170000Y-271145000D03*
X471170000Y-273685000D03*
X471170000Y-276225000D03*
X471170000Y-278765000D03*
X471170000Y-281305000D03*
X471170000Y-283845000D03*
X471170000Y-286385000D03*
X471170000Y-288925000D03*
X455930000Y-240665000D03*
X455930000Y-243205000D03*
X455930000Y-245745000D03*
X455930000Y-248285000D03*
X455930000Y-250825000D03*
X455930000Y-253365000D03*
X455930000Y-255905000D03*
X455930000Y-258445000D03*
X455930000Y-260985000D03*
X455930000Y-263525000D03*
X455930000Y-266065000D03*
X455930000Y-268605000D03*
X455930000Y-271145000D03*
X455930000Y-273685000D03*
X455930000Y-276225000D03*
X455930000Y-278765000D03*
X455930000Y-281305000D03*
X455930000Y-283845000D03*
X455930000Y-286385000D03*
X455930000Y-288925000D03*
M02*
