G04 #@! TF.GenerationSoftware,KiCad,Pcbnew,8.0.7*
G04 #@! TF.CreationDate,2025-03-15T22:58:08-07:00*
G04 #@! TF.ProjectId,keyboard,6b657962-6f61-4726-942e-6b696361645f,rev?*
G04 #@! TF.SameCoordinates,Original*
G04 #@! TF.FileFunction,Legend,Top*
G04 #@! TF.FilePolarity,Positive*
%FSLAX46Y46*%
G04 Gerber Fmt 4.6, Leading zero omitted, Abs format (unit mm)*
G04 Created by KiCad (PCBNEW 8.0.7) date 2025-03-15 22:58:08*
%MOMM*%
%LPD*%
G01*
G04 APERTURE LIST*
%ADD10C,0.150000*%
%ADD11C,0.120000*%
%ADD12C,0.254000*%
%ADD13R,2.000000X2.000000*%
%ADD14C,2.000000*%
%ADD15R,2.500000X3.000000*%
%ADD16C,1.750000*%
%ADD17C,3.000000*%
%ADD18C,3.987800*%
%ADD19C,4.300000*%
%ADD20R,3.000000X2.500000*%
%ADD21C,3.048000*%
%ADD22C,1.524000*%
G04 APERTURE END LIST*
D10*
X467144700Y-301068154D02*
X467192319Y-300925297D01*
X467192319Y-300925297D02*
X467192319Y-300687202D01*
X467192319Y-300687202D02*
X467144700Y-300591964D01*
X467144700Y-300591964D02*
X467097080Y-300544345D01*
X467097080Y-300544345D02*
X467001842Y-300496726D01*
X467001842Y-300496726D02*
X466906604Y-300496726D01*
X466906604Y-300496726D02*
X466811366Y-300544345D01*
X466811366Y-300544345D02*
X466763747Y-300591964D01*
X466763747Y-300591964D02*
X466716128Y-300687202D01*
X466716128Y-300687202D02*
X466668509Y-300877678D01*
X466668509Y-300877678D02*
X466620890Y-300972916D01*
X466620890Y-300972916D02*
X466573271Y-301020535D01*
X466573271Y-301020535D02*
X466478033Y-301068154D01*
X466478033Y-301068154D02*
X466382795Y-301068154D01*
X466382795Y-301068154D02*
X466287557Y-301020535D01*
X466287557Y-301020535D02*
X466239938Y-300972916D01*
X466239938Y-300972916D02*
X466192319Y-300877678D01*
X466192319Y-300877678D02*
X466192319Y-300639583D01*
X466192319Y-300639583D02*
X466239938Y-300496726D01*
X466192319Y-300163392D02*
X467192319Y-299925297D01*
X467192319Y-299925297D02*
X466478033Y-299734821D01*
X466478033Y-299734821D02*
X467192319Y-299544345D01*
X467192319Y-299544345D02*
X466192319Y-299306250D01*
X467144700Y-298496726D02*
X467192319Y-298591964D01*
X467192319Y-298591964D02*
X467192319Y-298782440D01*
X467192319Y-298782440D02*
X467144700Y-298877678D01*
X467144700Y-298877678D02*
X467097080Y-298925297D01*
X467097080Y-298925297D02*
X467001842Y-298972916D01*
X467001842Y-298972916D02*
X466716128Y-298972916D01*
X466716128Y-298972916D02*
X466620890Y-298925297D01*
X466620890Y-298925297D02*
X466573271Y-298877678D01*
X466573271Y-298877678D02*
X466525652Y-298782440D01*
X466525652Y-298782440D02*
X466525652Y-298591964D01*
X466525652Y-298591964D02*
X466573271Y-298496726D01*
X466192319Y-298163392D02*
X466192319Y-297544345D01*
X466192319Y-297544345D02*
X466573271Y-297877678D01*
X466573271Y-297877678D02*
X466573271Y-297734821D01*
X466573271Y-297734821D02*
X466620890Y-297639583D01*
X466620890Y-297639583D02*
X466668509Y-297591964D01*
X466668509Y-297591964D02*
X466763747Y-297544345D01*
X466763747Y-297544345D02*
X467001842Y-297544345D01*
X467001842Y-297544345D02*
X467097080Y-297591964D01*
X467097080Y-297591964D02*
X467144700Y-297639583D01*
X467144700Y-297639583D02*
X467192319Y-297734821D01*
X467192319Y-297734821D02*
X467192319Y-298020535D01*
X467192319Y-298020535D02*
X467144700Y-298115773D01*
X467144700Y-298115773D02*
X467097080Y-298163392D01*
X455176190Y-348354819D02*
X455176190Y-347354819D01*
X455747618Y-348354819D02*
X455319047Y-347783390D01*
X455747618Y-347354819D02*
X455176190Y-347926247D01*
X456604761Y-348307200D02*
X456509523Y-348354819D01*
X456509523Y-348354819D02*
X456319047Y-348354819D01*
X456319047Y-348354819D02*
X456223809Y-348307200D01*
X456223809Y-348307200D02*
X456176190Y-348259580D01*
X456176190Y-348259580D02*
X456128571Y-348164342D01*
X456128571Y-348164342D02*
X456128571Y-347878628D01*
X456128571Y-347878628D02*
X456176190Y-347783390D01*
X456176190Y-347783390D02*
X456223809Y-347735771D01*
X456223809Y-347735771D02*
X456319047Y-347688152D01*
X456319047Y-347688152D02*
X456509523Y-347688152D01*
X456509523Y-347688152D02*
X456604761Y-347735771D01*
X456795238Y-348450057D02*
X457557142Y-348450057D01*
X457938095Y-347783390D02*
X457842857Y-347735771D01*
X457842857Y-347735771D02*
X457795238Y-347688152D01*
X457795238Y-347688152D02*
X457747619Y-347592914D01*
X457747619Y-347592914D02*
X457747619Y-347545295D01*
X457747619Y-347545295D02*
X457795238Y-347450057D01*
X457795238Y-347450057D02*
X457842857Y-347402438D01*
X457842857Y-347402438D02*
X457938095Y-347354819D01*
X457938095Y-347354819D02*
X458128571Y-347354819D01*
X458128571Y-347354819D02*
X458223809Y-347402438D01*
X458223809Y-347402438D02*
X458271428Y-347450057D01*
X458271428Y-347450057D02*
X458319047Y-347545295D01*
X458319047Y-347545295D02*
X458319047Y-347592914D01*
X458319047Y-347592914D02*
X458271428Y-347688152D01*
X458271428Y-347688152D02*
X458223809Y-347735771D01*
X458223809Y-347735771D02*
X458128571Y-347783390D01*
X458128571Y-347783390D02*
X457938095Y-347783390D01*
X457938095Y-347783390D02*
X457842857Y-347831009D01*
X457842857Y-347831009D02*
X457795238Y-347878628D01*
X457795238Y-347878628D02*
X457747619Y-347973866D01*
X457747619Y-347973866D02*
X457747619Y-348164342D01*
X457747619Y-348164342D02*
X457795238Y-348259580D01*
X457795238Y-348259580D02*
X457842857Y-348307200D01*
X457842857Y-348307200D02*
X457938095Y-348354819D01*
X457938095Y-348354819D02*
X458128571Y-348354819D01*
X458128571Y-348354819D02*
X458223809Y-348307200D01*
X458223809Y-348307200D02*
X458271428Y-348259580D01*
X458271428Y-348259580D02*
X458319047Y-348164342D01*
X458319047Y-348164342D02*
X458319047Y-347973866D01*
X458319047Y-347973866D02*
X458271428Y-347878628D01*
X458271428Y-347878628D02*
X458223809Y-347831009D01*
X458223809Y-347831009D02*
X458128571Y-347783390D01*
X459176190Y-347354819D02*
X458985714Y-347354819D01*
X458985714Y-347354819D02*
X458890476Y-347402438D01*
X458890476Y-347402438D02*
X458842857Y-347450057D01*
X458842857Y-347450057D02*
X458747619Y-347592914D01*
X458747619Y-347592914D02*
X458700000Y-347783390D01*
X458700000Y-347783390D02*
X458700000Y-348164342D01*
X458700000Y-348164342D02*
X458747619Y-348259580D01*
X458747619Y-348259580D02*
X458795238Y-348307200D01*
X458795238Y-348307200D02*
X458890476Y-348354819D01*
X458890476Y-348354819D02*
X459080952Y-348354819D01*
X459080952Y-348354819D02*
X459176190Y-348307200D01*
X459176190Y-348307200D02*
X459223809Y-348259580D01*
X459223809Y-348259580D02*
X459271428Y-348164342D01*
X459271428Y-348164342D02*
X459271428Y-347926247D01*
X459271428Y-347926247D02*
X459223809Y-347831009D01*
X459223809Y-347831009D02*
X459176190Y-347783390D01*
X459176190Y-347783390D02*
X459080952Y-347735771D01*
X459080952Y-347735771D02*
X458890476Y-347735771D01*
X458890476Y-347735771D02*
X458795238Y-347783390D01*
X458795238Y-347783390D02*
X458747619Y-347831009D01*
X458747619Y-347831009D02*
X458700000Y-347926247D01*
X169426190Y-272154819D02*
X169426190Y-271154819D01*
X169997618Y-272154819D02*
X169569047Y-271583390D01*
X169997618Y-271154819D02*
X169426190Y-271726247D01*
X170854761Y-272107200D02*
X170759523Y-272154819D01*
X170759523Y-272154819D02*
X170569047Y-272154819D01*
X170569047Y-272154819D02*
X170473809Y-272107200D01*
X170473809Y-272107200D02*
X170426190Y-272059580D01*
X170426190Y-272059580D02*
X170378571Y-271964342D01*
X170378571Y-271964342D02*
X170378571Y-271678628D01*
X170378571Y-271678628D02*
X170426190Y-271583390D01*
X170426190Y-271583390D02*
X170473809Y-271535771D01*
X170473809Y-271535771D02*
X170569047Y-271488152D01*
X170569047Y-271488152D02*
X170759523Y-271488152D01*
X170759523Y-271488152D02*
X170854761Y-271535771D01*
X171045238Y-272250057D02*
X171807142Y-272250057D01*
X172569047Y-272154819D02*
X171997619Y-272154819D01*
X172283333Y-272154819D02*
X172283333Y-271154819D01*
X172283333Y-271154819D02*
X172188095Y-271297676D01*
X172188095Y-271297676D02*
X172092857Y-271392914D01*
X172092857Y-271392914D02*
X171997619Y-271440533D01*
X172902381Y-271154819D02*
X173569047Y-271154819D01*
X173569047Y-271154819D02*
X173140476Y-272154819D01*
X284202381Y-253104819D02*
X284202381Y-252104819D01*
X284773809Y-253104819D02*
X284345238Y-252533390D01*
X284773809Y-252104819D02*
X284202381Y-252676247D01*
X285630952Y-253057200D02*
X285535714Y-253104819D01*
X285535714Y-253104819D02*
X285345238Y-253104819D01*
X285345238Y-253104819D02*
X285250000Y-253057200D01*
X285250000Y-253057200D02*
X285202381Y-253009580D01*
X285202381Y-253009580D02*
X285154762Y-252914342D01*
X285154762Y-252914342D02*
X285154762Y-252628628D01*
X285154762Y-252628628D02*
X285202381Y-252533390D01*
X285202381Y-252533390D02*
X285250000Y-252485771D01*
X285250000Y-252485771D02*
X285345238Y-252438152D01*
X285345238Y-252438152D02*
X285535714Y-252438152D01*
X285535714Y-252438152D02*
X285630952Y-252485771D01*
X285821429Y-253200057D02*
X286583333Y-253200057D01*
X286869048Y-253104819D02*
X287059524Y-253104819D01*
X287059524Y-253104819D02*
X287154762Y-253057200D01*
X287154762Y-253057200D02*
X287202381Y-253009580D01*
X287202381Y-253009580D02*
X287297619Y-252866723D01*
X287297619Y-252866723D02*
X287345238Y-252676247D01*
X287345238Y-252676247D02*
X287345238Y-252295295D01*
X287345238Y-252295295D02*
X287297619Y-252200057D01*
X287297619Y-252200057D02*
X287250000Y-252152438D01*
X287250000Y-252152438D02*
X287154762Y-252104819D01*
X287154762Y-252104819D02*
X286964286Y-252104819D01*
X286964286Y-252104819D02*
X286869048Y-252152438D01*
X286869048Y-252152438D02*
X286821429Y-252200057D01*
X286821429Y-252200057D02*
X286773810Y-252295295D01*
X286773810Y-252295295D02*
X286773810Y-252533390D01*
X286773810Y-252533390D02*
X286821429Y-252628628D01*
X286821429Y-252628628D02*
X286869048Y-252676247D01*
X286869048Y-252676247D02*
X286964286Y-252723866D01*
X286964286Y-252723866D02*
X287154762Y-252723866D01*
X287154762Y-252723866D02*
X287250000Y-252676247D01*
X287250000Y-252676247D02*
X287297619Y-252628628D01*
X287297619Y-252628628D02*
X287345238Y-252533390D01*
X436126190Y-348354819D02*
X436126190Y-347354819D01*
X436697618Y-348354819D02*
X436269047Y-347783390D01*
X436697618Y-347354819D02*
X436126190Y-347926247D01*
X437554761Y-348307200D02*
X437459523Y-348354819D01*
X437459523Y-348354819D02*
X437269047Y-348354819D01*
X437269047Y-348354819D02*
X437173809Y-348307200D01*
X437173809Y-348307200D02*
X437126190Y-348259580D01*
X437126190Y-348259580D02*
X437078571Y-348164342D01*
X437078571Y-348164342D02*
X437078571Y-347878628D01*
X437078571Y-347878628D02*
X437126190Y-347783390D01*
X437126190Y-347783390D02*
X437173809Y-347735771D01*
X437173809Y-347735771D02*
X437269047Y-347688152D01*
X437269047Y-347688152D02*
X437459523Y-347688152D01*
X437459523Y-347688152D02*
X437554761Y-347735771D01*
X437745238Y-348450057D02*
X438507142Y-348450057D01*
X438888095Y-347783390D02*
X438792857Y-347735771D01*
X438792857Y-347735771D02*
X438745238Y-347688152D01*
X438745238Y-347688152D02*
X438697619Y-347592914D01*
X438697619Y-347592914D02*
X438697619Y-347545295D01*
X438697619Y-347545295D02*
X438745238Y-347450057D01*
X438745238Y-347450057D02*
X438792857Y-347402438D01*
X438792857Y-347402438D02*
X438888095Y-347354819D01*
X438888095Y-347354819D02*
X439078571Y-347354819D01*
X439078571Y-347354819D02*
X439173809Y-347402438D01*
X439173809Y-347402438D02*
X439221428Y-347450057D01*
X439221428Y-347450057D02*
X439269047Y-347545295D01*
X439269047Y-347545295D02*
X439269047Y-347592914D01*
X439269047Y-347592914D02*
X439221428Y-347688152D01*
X439221428Y-347688152D02*
X439173809Y-347735771D01*
X439173809Y-347735771D02*
X439078571Y-347783390D01*
X439078571Y-347783390D02*
X438888095Y-347783390D01*
X438888095Y-347783390D02*
X438792857Y-347831009D01*
X438792857Y-347831009D02*
X438745238Y-347878628D01*
X438745238Y-347878628D02*
X438697619Y-347973866D01*
X438697619Y-347973866D02*
X438697619Y-348164342D01*
X438697619Y-348164342D02*
X438745238Y-348259580D01*
X438745238Y-348259580D02*
X438792857Y-348307200D01*
X438792857Y-348307200D02*
X438888095Y-348354819D01*
X438888095Y-348354819D02*
X439078571Y-348354819D01*
X439078571Y-348354819D02*
X439173809Y-348307200D01*
X439173809Y-348307200D02*
X439221428Y-348259580D01*
X439221428Y-348259580D02*
X439269047Y-348164342D01*
X439269047Y-348164342D02*
X439269047Y-347973866D01*
X439269047Y-347973866D02*
X439221428Y-347878628D01*
X439221428Y-347878628D02*
X439173809Y-347831009D01*
X439173809Y-347831009D02*
X439078571Y-347783390D01*
X440173809Y-347354819D02*
X439697619Y-347354819D01*
X439697619Y-347354819D02*
X439650000Y-347831009D01*
X439650000Y-347831009D02*
X439697619Y-347783390D01*
X439697619Y-347783390D02*
X439792857Y-347735771D01*
X439792857Y-347735771D02*
X440030952Y-347735771D01*
X440030952Y-347735771D02*
X440126190Y-347783390D01*
X440126190Y-347783390D02*
X440173809Y-347831009D01*
X440173809Y-347831009D02*
X440221428Y-347926247D01*
X440221428Y-347926247D02*
X440221428Y-348164342D01*
X440221428Y-348164342D02*
X440173809Y-348259580D01*
X440173809Y-348259580D02*
X440126190Y-348307200D01*
X440126190Y-348307200D02*
X440030952Y-348354819D01*
X440030952Y-348354819D02*
X439792857Y-348354819D01*
X439792857Y-348354819D02*
X439697619Y-348307200D01*
X439697619Y-348307200D02*
X439650000Y-348259580D01*
X436126190Y-272154819D02*
X436126190Y-271154819D01*
X436697618Y-272154819D02*
X436269047Y-271583390D01*
X436697618Y-271154819D02*
X436126190Y-271726247D01*
X437554761Y-272107200D02*
X437459523Y-272154819D01*
X437459523Y-272154819D02*
X437269047Y-272154819D01*
X437269047Y-272154819D02*
X437173809Y-272107200D01*
X437173809Y-272107200D02*
X437126190Y-272059580D01*
X437126190Y-272059580D02*
X437078571Y-271964342D01*
X437078571Y-271964342D02*
X437078571Y-271678628D01*
X437078571Y-271678628D02*
X437126190Y-271583390D01*
X437126190Y-271583390D02*
X437173809Y-271535771D01*
X437173809Y-271535771D02*
X437269047Y-271488152D01*
X437269047Y-271488152D02*
X437459523Y-271488152D01*
X437459523Y-271488152D02*
X437554761Y-271535771D01*
X437745238Y-272250057D02*
X438507142Y-272250057D01*
X438650000Y-271154819D02*
X439269047Y-271154819D01*
X439269047Y-271154819D02*
X438935714Y-271535771D01*
X438935714Y-271535771D02*
X439078571Y-271535771D01*
X439078571Y-271535771D02*
X439173809Y-271583390D01*
X439173809Y-271583390D02*
X439221428Y-271631009D01*
X439221428Y-271631009D02*
X439269047Y-271726247D01*
X439269047Y-271726247D02*
X439269047Y-271964342D01*
X439269047Y-271964342D02*
X439221428Y-272059580D01*
X439221428Y-272059580D02*
X439173809Y-272107200D01*
X439173809Y-272107200D02*
X439078571Y-272154819D01*
X439078571Y-272154819D02*
X438792857Y-272154819D01*
X438792857Y-272154819D02*
X438697619Y-272107200D01*
X438697619Y-272107200D02*
X438650000Y-272059580D01*
X439888095Y-271154819D02*
X439983333Y-271154819D01*
X439983333Y-271154819D02*
X440078571Y-271202438D01*
X440078571Y-271202438D02*
X440126190Y-271250057D01*
X440126190Y-271250057D02*
X440173809Y-271345295D01*
X440173809Y-271345295D02*
X440221428Y-271535771D01*
X440221428Y-271535771D02*
X440221428Y-271773866D01*
X440221428Y-271773866D02*
X440173809Y-271964342D01*
X440173809Y-271964342D02*
X440126190Y-272059580D01*
X440126190Y-272059580D02*
X440078571Y-272107200D01*
X440078571Y-272107200D02*
X439983333Y-272154819D01*
X439983333Y-272154819D02*
X439888095Y-272154819D01*
X439888095Y-272154819D02*
X439792857Y-272107200D01*
X439792857Y-272107200D02*
X439745238Y-272059580D01*
X439745238Y-272059580D02*
X439697619Y-271964342D01*
X439697619Y-271964342D02*
X439650000Y-271773866D01*
X439650000Y-271773866D02*
X439650000Y-271535771D01*
X439650000Y-271535771D02*
X439697619Y-271345295D01*
X439697619Y-271345295D02*
X439745238Y-271250057D01*
X439745238Y-271250057D02*
X439792857Y-271202438D01*
X439792857Y-271202438D02*
X439888095Y-271154819D01*
X250698095Y-338054819D02*
X250698095Y-337054819D01*
X250698095Y-337531009D02*
X251269523Y-337531009D01*
X251269523Y-338054819D02*
X251269523Y-337054819D01*
X252221904Y-337054819D02*
X251745714Y-337054819D01*
X251745714Y-337054819D02*
X251698095Y-337531009D01*
X251698095Y-337531009D02*
X251745714Y-337483390D01*
X251745714Y-337483390D02*
X251840952Y-337435771D01*
X251840952Y-337435771D02*
X252079047Y-337435771D01*
X252079047Y-337435771D02*
X252174285Y-337483390D01*
X252174285Y-337483390D02*
X252221904Y-337531009D01*
X252221904Y-337531009D02*
X252269523Y-337626247D01*
X252269523Y-337626247D02*
X252269523Y-337864342D01*
X252269523Y-337864342D02*
X252221904Y-337959580D01*
X252221904Y-337959580D02*
X252174285Y-338007200D01*
X252174285Y-338007200D02*
X252079047Y-338054819D01*
X252079047Y-338054819D02*
X251840952Y-338054819D01*
X251840952Y-338054819D02*
X251745714Y-338007200D01*
X251745714Y-338007200D02*
X251698095Y-337959580D01*
X345638690Y-329304819D02*
X345638690Y-328304819D01*
X346210118Y-329304819D02*
X345781547Y-328733390D01*
X346210118Y-328304819D02*
X345638690Y-328876247D01*
X347067261Y-329257200D02*
X346972023Y-329304819D01*
X346972023Y-329304819D02*
X346781547Y-329304819D01*
X346781547Y-329304819D02*
X346686309Y-329257200D01*
X346686309Y-329257200D02*
X346638690Y-329209580D01*
X346638690Y-329209580D02*
X346591071Y-329114342D01*
X346591071Y-329114342D02*
X346591071Y-328828628D01*
X346591071Y-328828628D02*
X346638690Y-328733390D01*
X346638690Y-328733390D02*
X346686309Y-328685771D01*
X346686309Y-328685771D02*
X346781547Y-328638152D01*
X346781547Y-328638152D02*
X346972023Y-328638152D01*
X346972023Y-328638152D02*
X347067261Y-328685771D01*
X347257738Y-329400057D02*
X348019642Y-329400057D01*
X348162500Y-328304819D02*
X348829166Y-328304819D01*
X348829166Y-328304819D02*
X348400595Y-329304819D01*
X349162500Y-328400057D02*
X349210119Y-328352438D01*
X349210119Y-328352438D02*
X349305357Y-328304819D01*
X349305357Y-328304819D02*
X349543452Y-328304819D01*
X349543452Y-328304819D02*
X349638690Y-328352438D01*
X349638690Y-328352438D02*
X349686309Y-328400057D01*
X349686309Y-328400057D02*
X349733928Y-328495295D01*
X349733928Y-328495295D02*
X349733928Y-328590533D01*
X349733928Y-328590533D02*
X349686309Y-328733390D01*
X349686309Y-328733390D02*
X349114881Y-329304819D01*
X349114881Y-329304819D02*
X349733928Y-329304819D01*
X398026190Y-348354819D02*
X398026190Y-347354819D01*
X398597618Y-348354819D02*
X398169047Y-347783390D01*
X398597618Y-347354819D02*
X398026190Y-347926247D01*
X399454761Y-348307200D02*
X399359523Y-348354819D01*
X399359523Y-348354819D02*
X399169047Y-348354819D01*
X399169047Y-348354819D02*
X399073809Y-348307200D01*
X399073809Y-348307200D02*
X399026190Y-348259580D01*
X399026190Y-348259580D02*
X398978571Y-348164342D01*
X398978571Y-348164342D02*
X398978571Y-347878628D01*
X398978571Y-347878628D02*
X399026190Y-347783390D01*
X399026190Y-347783390D02*
X399073809Y-347735771D01*
X399073809Y-347735771D02*
X399169047Y-347688152D01*
X399169047Y-347688152D02*
X399359523Y-347688152D01*
X399359523Y-347688152D02*
X399454761Y-347735771D01*
X399645238Y-348450057D02*
X400407142Y-348450057D01*
X400788095Y-347783390D02*
X400692857Y-347735771D01*
X400692857Y-347735771D02*
X400645238Y-347688152D01*
X400645238Y-347688152D02*
X400597619Y-347592914D01*
X400597619Y-347592914D02*
X400597619Y-347545295D01*
X400597619Y-347545295D02*
X400645238Y-347450057D01*
X400645238Y-347450057D02*
X400692857Y-347402438D01*
X400692857Y-347402438D02*
X400788095Y-347354819D01*
X400788095Y-347354819D02*
X400978571Y-347354819D01*
X400978571Y-347354819D02*
X401073809Y-347402438D01*
X401073809Y-347402438D02*
X401121428Y-347450057D01*
X401121428Y-347450057D02*
X401169047Y-347545295D01*
X401169047Y-347545295D02*
X401169047Y-347592914D01*
X401169047Y-347592914D02*
X401121428Y-347688152D01*
X401121428Y-347688152D02*
X401073809Y-347735771D01*
X401073809Y-347735771D02*
X400978571Y-347783390D01*
X400978571Y-347783390D02*
X400788095Y-347783390D01*
X400788095Y-347783390D02*
X400692857Y-347831009D01*
X400692857Y-347831009D02*
X400645238Y-347878628D01*
X400645238Y-347878628D02*
X400597619Y-347973866D01*
X400597619Y-347973866D02*
X400597619Y-348164342D01*
X400597619Y-348164342D02*
X400645238Y-348259580D01*
X400645238Y-348259580D02*
X400692857Y-348307200D01*
X400692857Y-348307200D02*
X400788095Y-348354819D01*
X400788095Y-348354819D02*
X400978571Y-348354819D01*
X400978571Y-348354819D02*
X401073809Y-348307200D01*
X401073809Y-348307200D02*
X401121428Y-348259580D01*
X401121428Y-348259580D02*
X401169047Y-348164342D01*
X401169047Y-348164342D02*
X401169047Y-347973866D01*
X401169047Y-347973866D02*
X401121428Y-347878628D01*
X401121428Y-347878628D02*
X401073809Y-347831009D01*
X401073809Y-347831009D02*
X400978571Y-347783390D01*
X401502381Y-347354819D02*
X402121428Y-347354819D01*
X402121428Y-347354819D02*
X401788095Y-347735771D01*
X401788095Y-347735771D02*
X401930952Y-347735771D01*
X401930952Y-347735771D02*
X402026190Y-347783390D01*
X402026190Y-347783390D02*
X402073809Y-347831009D01*
X402073809Y-347831009D02*
X402121428Y-347926247D01*
X402121428Y-347926247D02*
X402121428Y-348164342D01*
X402121428Y-348164342D02*
X402073809Y-348259580D01*
X402073809Y-348259580D02*
X402026190Y-348307200D01*
X402026190Y-348307200D02*
X401930952Y-348354819D01*
X401930952Y-348354819D02*
X401645238Y-348354819D01*
X401645238Y-348354819D02*
X401550000Y-348307200D01*
X401550000Y-348307200D02*
X401502381Y-348259580D01*
X131326190Y-272154819D02*
X131326190Y-271154819D01*
X131897618Y-272154819D02*
X131469047Y-271583390D01*
X131897618Y-271154819D02*
X131326190Y-271726247D01*
X132754761Y-272107200D02*
X132659523Y-272154819D01*
X132659523Y-272154819D02*
X132469047Y-272154819D01*
X132469047Y-272154819D02*
X132373809Y-272107200D01*
X132373809Y-272107200D02*
X132326190Y-272059580D01*
X132326190Y-272059580D02*
X132278571Y-271964342D01*
X132278571Y-271964342D02*
X132278571Y-271678628D01*
X132278571Y-271678628D02*
X132326190Y-271583390D01*
X132326190Y-271583390D02*
X132373809Y-271535771D01*
X132373809Y-271535771D02*
X132469047Y-271488152D01*
X132469047Y-271488152D02*
X132659523Y-271488152D01*
X132659523Y-271488152D02*
X132754761Y-271535771D01*
X132945238Y-272250057D02*
X133707142Y-272250057D01*
X134469047Y-272154819D02*
X133897619Y-272154819D01*
X134183333Y-272154819D02*
X134183333Y-271154819D01*
X134183333Y-271154819D02*
X134088095Y-271297676D01*
X134088095Y-271297676D02*
X133992857Y-271392914D01*
X133992857Y-271392914D02*
X133897619Y-271440533D01*
X135373809Y-271154819D02*
X134897619Y-271154819D01*
X134897619Y-271154819D02*
X134850000Y-271631009D01*
X134850000Y-271631009D02*
X134897619Y-271583390D01*
X134897619Y-271583390D02*
X134992857Y-271535771D01*
X134992857Y-271535771D02*
X135230952Y-271535771D01*
X135230952Y-271535771D02*
X135326190Y-271583390D01*
X135326190Y-271583390D02*
X135373809Y-271631009D01*
X135373809Y-271631009D02*
X135421428Y-271726247D01*
X135421428Y-271726247D02*
X135421428Y-271964342D01*
X135421428Y-271964342D02*
X135373809Y-272059580D01*
X135373809Y-272059580D02*
X135326190Y-272107200D01*
X135326190Y-272107200D02*
X135230952Y-272154819D01*
X135230952Y-272154819D02*
X134992857Y-272154819D01*
X134992857Y-272154819D02*
X134897619Y-272107200D01*
X134897619Y-272107200D02*
X134850000Y-272059580D01*
X350401190Y-291204819D02*
X350401190Y-290204819D01*
X350972618Y-291204819D02*
X350544047Y-290633390D01*
X350972618Y-290204819D02*
X350401190Y-290776247D01*
X351829761Y-291157200D02*
X351734523Y-291204819D01*
X351734523Y-291204819D02*
X351544047Y-291204819D01*
X351544047Y-291204819D02*
X351448809Y-291157200D01*
X351448809Y-291157200D02*
X351401190Y-291109580D01*
X351401190Y-291109580D02*
X351353571Y-291014342D01*
X351353571Y-291014342D02*
X351353571Y-290728628D01*
X351353571Y-290728628D02*
X351401190Y-290633390D01*
X351401190Y-290633390D02*
X351448809Y-290585771D01*
X351448809Y-290585771D02*
X351544047Y-290538152D01*
X351544047Y-290538152D02*
X351734523Y-290538152D01*
X351734523Y-290538152D02*
X351829761Y-290585771D01*
X352020238Y-291300057D02*
X352782142Y-291300057D01*
X353448809Y-290538152D02*
X353448809Y-291204819D01*
X353210714Y-290157200D02*
X352972619Y-290871485D01*
X352972619Y-290871485D02*
X353591666Y-290871485D01*
X353925000Y-290300057D02*
X353972619Y-290252438D01*
X353972619Y-290252438D02*
X354067857Y-290204819D01*
X354067857Y-290204819D02*
X354305952Y-290204819D01*
X354305952Y-290204819D02*
X354401190Y-290252438D01*
X354401190Y-290252438D02*
X354448809Y-290300057D01*
X354448809Y-290300057D02*
X354496428Y-290395295D01*
X354496428Y-290395295D02*
X354496428Y-290490533D01*
X354496428Y-290490533D02*
X354448809Y-290633390D01*
X354448809Y-290633390D02*
X353877381Y-291204819D01*
X353877381Y-291204819D02*
X354496428Y-291204819D01*
X188476190Y-272154819D02*
X188476190Y-271154819D01*
X189047618Y-272154819D02*
X188619047Y-271583390D01*
X189047618Y-271154819D02*
X188476190Y-271726247D01*
X189904761Y-272107200D02*
X189809523Y-272154819D01*
X189809523Y-272154819D02*
X189619047Y-272154819D01*
X189619047Y-272154819D02*
X189523809Y-272107200D01*
X189523809Y-272107200D02*
X189476190Y-272059580D01*
X189476190Y-272059580D02*
X189428571Y-271964342D01*
X189428571Y-271964342D02*
X189428571Y-271678628D01*
X189428571Y-271678628D02*
X189476190Y-271583390D01*
X189476190Y-271583390D02*
X189523809Y-271535771D01*
X189523809Y-271535771D02*
X189619047Y-271488152D01*
X189619047Y-271488152D02*
X189809523Y-271488152D01*
X189809523Y-271488152D02*
X189904761Y-271535771D01*
X190095238Y-272250057D02*
X190857142Y-272250057D01*
X191619047Y-272154819D02*
X191047619Y-272154819D01*
X191333333Y-272154819D02*
X191333333Y-271154819D01*
X191333333Y-271154819D02*
X191238095Y-271297676D01*
X191238095Y-271297676D02*
X191142857Y-271392914D01*
X191142857Y-271392914D02*
X191047619Y-271440533D01*
X192190476Y-271583390D02*
X192095238Y-271535771D01*
X192095238Y-271535771D02*
X192047619Y-271488152D01*
X192047619Y-271488152D02*
X192000000Y-271392914D01*
X192000000Y-271392914D02*
X192000000Y-271345295D01*
X192000000Y-271345295D02*
X192047619Y-271250057D01*
X192047619Y-271250057D02*
X192095238Y-271202438D01*
X192095238Y-271202438D02*
X192190476Y-271154819D01*
X192190476Y-271154819D02*
X192380952Y-271154819D01*
X192380952Y-271154819D02*
X192476190Y-271202438D01*
X192476190Y-271202438D02*
X192523809Y-271250057D01*
X192523809Y-271250057D02*
X192571428Y-271345295D01*
X192571428Y-271345295D02*
X192571428Y-271392914D01*
X192571428Y-271392914D02*
X192523809Y-271488152D01*
X192523809Y-271488152D02*
X192476190Y-271535771D01*
X192476190Y-271535771D02*
X192380952Y-271583390D01*
X192380952Y-271583390D02*
X192190476Y-271583390D01*
X192190476Y-271583390D02*
X192095238Y-271631009D01*
X192095238Y-271631009D02*
X192047619Y-271678628D01*
X192047619Y-271678628D02*
X192000000Y-271773866D01*
X192000000Y-271773866D02*
X192000000Y-271964342D01*
X192000000Y-271964342D02*
X192047619Y-272059580D01*
X192047619Y-272059580D02*
X192095238Y-272107200D01*
X192095238Y-272107200D02*
X192190476Y-272154819D01*
X192190476Y-272154819D02*
X192380952Y-272154819D01*
X192380952Y-272154819D02*
X192476190Y-272107200D01*
X192476190Y-272107200D02*
X192523809Y-272059580D01*
X192523809Y-272059580D02*
X192571428Y-271964342D01*
X192571428Y-271964342D02*
X192571428Y-271773866D01*
X192571428Y-271773866D02*
X192523809Y-271678628D01*
X192523809Y-271678628D02*
X192476190Y-271631009D01*
X192476190Y-271631009D02*
X192380952Y-271583390D01*
X307538690Y-329304819D02*
X307538690Y-328304819D01*
X308110118Y-329304819D02*
X307681547Y-328733390D01*
X308110118Y-328304819D02*
X307538690Y-328876247D01*
X308967261Y-329257200D02*
X308872023Y-329304819D01*
X308872023Y-329304819D02*
X308681547Y-329304819D01*
X308681547Y-329304819D02*
X308586309Y-329257200D01*
X308586309Y-329257200D02*
X308538690Y-329209580D01*
X308538690Y-329209580D02*
X308491071Y-329114342D01*
X308491071Y-329114342D02*
X308491071Y-328828628D01*
X308491071Y-328828628D02*
X308538690Y-328733390D01*
X308538690Y-328733390D02*
X308586309Y-328685771D01*
X308586309Y-328685771D02*
X308681547Y-328638152D01*
X308681547Y-328638152D02*
X308872023Y-328638152D01*
X308872023Y-328638152D02*
X308967261Y-328685771D01*
X309157738Y-329400057D02*
X309919642Y-329400057D01*
X310062500Y-328304819D02*
X310729166Y-328304819D01*
X310729166Y-328304819D02*
X310300595Y-329304819D01*
X311300595Y-328304819D02*
X311395833Y-328304819D01*
X311395833Y-328304819D02*
X311491071Y-328352438D01*
X311491071Y-328352438D02*
X311538690Y-328400057D01*
X311538690Y-328400057D02*
X311586309Y-328495295D01*
X311586309Y-328495295D02*
X311633928Y-328685771D01*
X311633928Y-328685771D02*
X311633928Y-328923866D01*
X311633928Y-328923866D02*
X311586309Y-329114342D01*
X311586309Y-329114342D02*
X311538690Y-329209580D01*
X311538690Y-329209580D02*
X311491071Y-329257200D01*
X311491071Y-329257200D02*
X311395833Y-329304819D01*
X311395833Y-329304819D02*
X311300595Y-329304819D01*
X311300595Y-329304819D02*
X311205357Y-329257200D01*
X311205357Y-329257200D02*
X311157738Y-329209580D01*
X311157738Y-329209580D02*
X311110119Y-329114342D01*
X311110119Y-329114342D02*
X311062500Y-328923866D01*
X311062500Y-328923866D02*
X311062500Y-328685771D01*
X311062500Y-328685771D02*
X311110119Y-328495295D01*
X311110119Y-328495295D02*
X311157738Y-328400057D01*
X311157738Y-328400057D02*
X311205357Y-328352438D01*
X311205357Y-328352438D02*
X311300595Y-328304819D01*
X274201190Y-291204819D02*
X274201190Y-290204819D01*
X274772618Y-291204819D02*
X274344047Y-290633390D01*
X274772618Y-290204819D02*
X274201190Y-290776247D01*
X275629761Y-291157200D02*
X275534523Y-291204819D01*
X275534523Y-291204819D02*
X275344047Y-291204819D01*
X275344047Y-291204819D02*
X275248809Y-291157200D01*
X275248809Y-291157200D02*
X275201190Y-291109580D01*
X275201190Y-291109580D02*
X275153571Y-291014342D01*
X275153571Y-291014342D02*
X275153571Y-290728628D01*
X275153571Y-290728628D02*
X275201190Y-290633390D01*
X275201190Y-290633390D02*
X275248809Y-290585771D01*
X275248809Y-290585771D02*
X275344047Y-290538152D01*
X275344047Y-290538152D02*
X275534523Y-290538152D01*
X275534523Y-290538152D02*
X275629761Y-290585771D01*
X275820238Y-291300057D02*
X276582142Y-291300057D01*
X276725000Y-290204819D02*
X277344047Y-290204819D01*
X277344047Y-290204819D02*
X277010714Y-290585771D01*
X277010714Y-290585771D02*
X277153571Y-290585771D01*
X277153571Y-290585771D02*
X277248809Y-290633390D01*
X277248809Y-290633390D02*
X277296428Y-290681009D01*
X277296428Y-290681009D02*
X277344047Y-290776247D01*
X277344047Y-290776247D02*
X277344047Y-291014342D01*
X277344047Y-291014342D02*
X277296428Y-291109580D01*
X277296428Y-291109580D02*
X277248809Y-291157200D01*
X277248809Y-291157200D02*
X277153571Y-291204819D01*
X277153571Y-291204819D02*
X276867857Y-291204819D01*
X276867857Y-291204819D02*
X276772619Y-291157200D01*
X276772619Y-291157200D02*
X276725000Y-291109580D01*
X277915476Y-290633390D02*
X277820238Y-290585771D01*
X277820238Y-290585771D02*
X277772619Y-290538152D01*
X277772619Y-290538152D02*
X277725000Y-290442914D01*
X277725000Y-290442914D02*
X277725000Y-290395295D01*
X277725000Y-290395295D02*
X277772619Y-290300057D01*
X277772619Y-290300057D02*
X277820238Y-290252438D01*
X277820238Y-290252438D02*
X277915476Y-290204819D01*
X277915476Y-290204819D02*
X278105952Y-290204819D01*
X278105952Y-290204819D02*
X278201190Y-290252438D01*
X278201190Y-290252438D02*
X278248809Y-290300057D01*
X278248809Y-290300057D02*
X278296428Y-290395295D01*
X278296428Y-290395295D02*
X278296428Y-290442914D01*
X278296428Y-290442914D02*
X278248809Y-290538152D01*
X278248809Y-290538152D02*
X278201190Y-290585771D01*
X278201190Y-290585771D02*
X278105952Y-290633390D01*
X278105952Y-290633390D02*
X277915476Y-290633390D01*
X277915476Y-290633390D02*
X277820238Y-290681009D01*
X277820238Y-290681009D02*
X277772619Y-290728628D01*
X277772619Y-290728628D02*
X277725000Y-290823866D01*
X277725000Y-290823866D02*
X277725000Y-291014342D01*
X277725000Y-291014342D02*
X277772619Y-291109580D01*
X277772619Y-291109580D02*
X277820238Y-291157200D01*
X277820238Y-291157200D02*
X277915476Y-291204819D01*
X277915476Y-291204819D02*
X278105952Y-291204819D01*
X278105952Y-291204819D02*
X278201190Y-291157200D01*
X278201190Y-291157200D02*
X278248809Y-291109580D01*
X278248809Y-291109580D02*
X278296428Y-291014342D01*
X278296428Y-291014342D02*
X278296428Y-290823866D01*
X278296428Y-290823866D02*
X278248809Y-290728628D01*
X278248809Y-290728628D02*
X278201190Y-290681009D01*
X278201190Y-290681009D02*
X278105952Y-290633390D01*
X202763690Y-310254819D02*
X202763690Y-309254819D01*
X203335118Y-310254819D02*
X202906547Y-309683390D01*
X203335118Y-309254819D02*
X202763690Y-309826247D01*
X204192261Y-310207200D02*
X204097023Y-310254819D01*
X204097023Y-310254819D02*
X203906547Y-310254819D01*
X203906547Y-310254819D02*
X203811309Y-310207200D01*
X203811309Y-310207200D02*
X203763690Y-310159580D01*
X203763690Y-310159580D02*
X203716071Y-310064342D01*
X203716071Y-310064342D02*
X203716071Y-309778628D01*
X203716071Y-309778628D02*
X203763690Y-309683390D01*
X203763690Y-309683390D02*
X203811309Y-309635771D01*
X203811309Y-309635771D02*
X203906547Y-309588152D01*
X203906547Y-309588152D02*
X204097023Y-309588152D01*
X204097023Y-309588152D02*
X204192261Y-309635771D01*
X204382738Y-310350057D02*
X205144642Y-310350057D01*
X205858928Y-309254819D02*
X205382738Y-309254819D01*
X205382738Y-309254819D02*
X205335119Y-309731009D01*
X205335119Y-309731009D02*
X205382738Y-309683390D01*
X205382738Y-309683390D02*
X205477976Y-309635771D01*
X205477976Y-309635771D02*
X205716071Y-309635771D01*
X205716071Y-309635771D02*
X205811309Y-309683390D01*
X205811309Y-309683390D02*
X205858928Y-309731009D01*
X205858928Y-309731009D02*
X205906547Y-309826247D01*
X205906547Y-309826247D02*
X205906547Y-310064342D01*
X205906547Y-310064342D02*
X205858928Y-310159580D01*
X205858928Y-310159580D02*
X205811309Y-310207200D01*
X205811309Y-310207200D02*
X205716071Y-310254819D01*
X205716071Y-310254819D02*
X205477976Y-310254819D01*
X205477976Y-310254819D02*
X205382738Y-310207200D01*
X205382738Y-310207200D02*
X205335119Y-310159580D01*
X206525595Y-309254819D02*
X206620833Y-309254819D01*
X206620833Y-309254819D02*
X206716071Y-309302438D01*
X206716071Y-309302438D02*
X206763690Y-309350057D01*
X206763690Y-309350057D02*
X206811309Y-309445295D01*
X206811309Y-309445295D02*
X206858928Y-309635771D01*
X206858928Y-309635771D02*
X206858928Y-309873866D01*
X206858928Y-309873866D02*
X206811309Y-310064342D01*
X206811309Y-310064342D02*
X206763690Y-310159580D01*
X206763690Y-310159580D02*
X206716071Y-310207200D01*
X206716071Y-310207200D02*
X206620833Y-310254819D01*
X206620833Y-310254819D02*
X206525595Y-310254819D01*
X206525595Y-310254819D02*
X206430357Y-310207200D01*
X206430357Y-310207200D02*
X206382738Y-310159580D01*
X206382738Y-310159580D02*
X206335119Y-310064342D01*
X206335119Y-310064342D02*
X206287500Y-309873866D01*
X206287500Y-309873866D02*
X206287500Y-309635771D01*
X206287500Y-309635771D02*
X206335119Y-309445295D01*
X206335119Y-309445295D02*
X206382738Y-309350057D01*
X206382738Y-309350057D02*
X206430357Y-309302438D01*
X206430357Y-309302438D02*
X206525595Y-309254819D01*
X396279819Y-233171904D02*
X395279819Y-233171904D01*
X395756009Y-233171904D02*
X395756009Y-232600476D01*
X396279819Y-232600476D02*
X395279819Y-232600476D01*
X395708390Y-231981428D02*
X395660771Y-232076666D01*
X395660771Y-232076666D02*
X395613152Y-232124285D01*
X395613152Y-232124285D02*
X395517914Y-232171904D01*
X395517914Y-232171904D02*
X395470295Y-232171904D01*
X395470295Y-232171904D02*
X395375057Y-232124285D01*
X395375057Y-232124285D02*
X395327438Y-232076666D01*
X395327438Y-232076666D02*
X395279819Y-231981428D01*
X395279819Y-231981428D02*
X395279819Y-231790952D01*
X395279819Y-231790952D02*
X395327438Y-231695714D01*
X395327438Y-231695714D02*
X395375057Y-231648095D01*
X395375057Y-231648095D02*
X395470295Y-231600476D01*
X395470295Y-231600476D02*
X395517914Y-231600476D01*
X395517914Y-231600476D02*
X395613152Y-231648095D01*
X395613152Y-231648095D02*
X395660771Y-231695714D01*
X395660771Y-231695714D02*
X395708390Y-231790952D01*
X395708390Y-231790952D02*
X395708390Y-231981428D01*
X395708390Y-231981428D02*
X395756009Y-232076666D01*
X395756009Y-232076666D02*
X395803628Y-232124285D01*
X395803628Y-232124285D02*
X395898866Y-232171904D01*
X395898866Y-232171904D02*
X396089342Y-232171904D01*
X396089342Y-232171904D02*
X396184580Y-232124285D01*
X396184580Y-232124285D02*
X396232200Y-232076666D01*
X396232200Y-232076666D02*
X396279819Y-231981428D01*
X396279819Y-231981428D02*
X396279819Y-231790952D01*
X396279819Y-231790952D02*
X396232200Y-231695714D01*
X396232200Y-231695714D02*
X396184580Y-231648095D01*
X396184580Y-231648095D02*
X396089342Y-231600476D01*
X396089342Y-231600476D02*
X395898866Y-231600476D01*
X395898866Y-231600476D02*
X395803628Y-231648095D01*
X395803628Y-231648095D02*
X395756009Y-231695714D01*
X395756009Y-231695714D02*
X395708390Y-231790952D01*
X436126190Y-329304819D02*
X436126190Y-328304819D01*
X436697618Y-329304819D02*
X436269047Y-328733390D01*
X436697618Y-328304819D02*
X436126190Y-328876247D01*
X437554761Y-329257200D02*
X437459523Y-329304819D01*
X437459523Y-329304819D02*
X437269047Y-329304819D01*
X437269047Y-329304819D02*
X437173809Y-329257200D01*
X437173809Y-329257200D02*
X437126190Y-329209580D01*
X437126190Y-329209580D02*
X437078571Y-329114342D01*
X437078571Y-329114342D02*
X437078571Y-328828628D01*
X437078571Y-328828628D02*
X437126190Y-328733390D01*
X437126190Y-328733390D02*
X437173809Y-328685771D01*
X437173809Y-328685771D02*
X437269047Y-328638152D01*
X437269047Y-328638152D02*
X437459523Y-328638152D01*
X437459523Y-328638152D02*
X437554761Y-328685771D01*
X437745238Y-329400057D02*
X438507142Y-329400057D01*
X438650000Y-328304819D02*
X439316666Y-328304819D01*
X439316666Y-328304819D02*
X438888095Y-329304819D01*
X440126190Y-328638152D02*
X440126190Y-329304819D01*
X439888095Y-328257200D02*
X439650000Y-328971485D01*
X439650000Y-328971485D02*
X440269047Y-328971485D01*
X359926190Y-253104819D02*
X359926190Y-252104819D01*
X360497618Y-253104819D02*
X360069047Y-252533390D01*
X360497618Y-252104819D02*
X359926190Y-252676247D01*
X361354761Y-253057200D02*
X361259523Y-253104819D01*
X361259523Y-253104819D02*
X361069047Y-253104819D01*
X361069047Y-253104819D02*
X360973809Y-253057200D01*
X360973809Y-253057200D02*
X360926190Y-253009580D01*
X360926190Y-253009580D02*
X360878571Y-252914342D01*
X360878571Y-252914342D02*
X360878571Y-252628628D01*
X360878571Y-252628628D02*
X360926190Y-252533390D01*
X360926190Y-252533390D02*
X360973809Y-252485771D01*
X360973809Y-252485771D02*
X361069047Y-252438152D01*
X361069047Y-252438152D02*
X361259523Y-252438152D01*
X361259523Y-252438152D02*
X361354761Y-252485771D01*
X361545238Y-253200057D02*
X362307142Y-253200057D01*
X363069047Y-253104819D02*
X362497619Y-253104819D01*
X362783333Y-253104819D02*
X362783333Y-252104819D01*
X362783333Y-252104819D02*
X362688095Y-252247676D01*
X362688095Y-252247676D02*
X362592857Y-252342914D01*
X362592857Y-252342914D02*
X362497619Y-252390533D01*
X363402381Y-252104819D02*
X364021428Y-252104819D01*
X364021428Y-252104819D02*
X363688095Y-252485771D01*
X363688095Y-252485771D02*
X363830952Y-252485771D01*
X363830952Y-252485771D02*
X363926190Y-252533390D01*
X363926190Y-252533390D02*
X363973809Y-252581009D01*
X363973809Y-252581009D02*
X364021428Y-252676247D01*
X364021428Y-252676247D02*
X364021428Y-252914342D01*
X364021428Y-252914342D02*
X363973809Y-253009580D01*
X363973809Y-253009580D02*
X363926190Y-253057200D01*
X363926190Y-253057200D02*
X363830952Y-253104819D01*
X363830952Y-253104819D02*
X363545238Y-253104819D01*
X363545238Y-253104819D02*
X363450000Y-253057200D01*
X363450000Y-253057200D02*
X363402381Y-253009580D01*
X169902381Y-253104819D02*
X169902381Y-252104819D01*
X170473809Y-253104819D02*
X170045238Y-252533390D01*
X170473809Y-252104819D02*
X169902381Y-252676247D01*
X171330952Y-253057200D02*
X171235714Y-253104819D01*
X171235714Y-253104819D02*
X171045238Y-253104819D01*
X171045238Y-253104819D02*
X170950000Y-253057200D01*
X170950000Y-253057200D02*
X170902381Y-253009580D01*
X170902381Y-253009580D02*
X170854762Y-252914342D01*
X170854762Y-252914342D02*
X170854762Y-252628628D01*
X170854762Y-252628628D02*
X170902381Y-252533390D01*
X170902381Y-252533390D02*
X170950000Y-252485771D01*
X170950000Y-252485771D02*
X171045238Y-252438152D01*
X171045238Y-252438152D02*
X171235714Y-252438152D01*
X171235714Y-252438152D02*
X171330952Y-252485771D01*
X171521429Y-253200057D02*
X172283333Y-253200057D01*
X172426191Y-252104819D02*
X173045238Y-252104819D01*
X173045238Y-252104819D02*
X172711905Y-252485771D01*
X172711905Y-252485771D02*
X172854762Y-252485771D01*
X172854762Y-252485771D02*
X172950000Y-252533390D01*
X172950000Y-252533390D02*
X172997619Y-252581009D01*
X172997619Y-252581009D02*
X173045238Y-252676247D01*
X173045238Y-252676247D02*
X173045238Y-252914342D01*
X173045238Y-252914342D02*
X172997619Y-253009580D01*
X172997619Y-253009580D02*
X172950000Y-253057200D01*
X172950000Y-253057200D02*
X172854762Y-253104819D01*
X172854762Y-253104819D02*
X172569048Y-253104819D01*
X172569048Y-253104819D02*
X172473810Y-253057200D01*
X172473810Y-253057200D02*
X172426191Y-253009580D01*
X150852381Y-253104819D02*
X150852381Y-252104819D01*
X151423809Y-253104819D02*
X150995238Y-252533390D01*
X151423809Y-252104819D02*
X150852381Y-252676247D01*
X152280952Y-253057200D02*
X152185714Y-253104819D01*
X152185714Y-253104819D02*
X151995238Y-253104819D01*
X151995238Y-253104819D02*
X151900000Y-253057200D01*
X151900000Y-253057200D02*
X151852381Y-253009580D01*
X151852381Y-253009580D02*
X151804762Y-252914342D01*
X151804762Y-252914342D02*
X151804762Y-252628628D01*
X151804762Y-252628628D02*
X151852381Y-252533390D01*
X151852381Y-252533390D02*
X151900000Y-252485771D01*
X151900000Y-252485771D02*
X151995238Y-252438152D01*
X151995238Y-252438152D02*
X152185714Y-252438152D01*
X152185714Y-252438152D02*
X152280952Y-252485771D01*
X152471429Y-253200057D02*
X153233333Y-253200057D01*
X153423810Y-252200057D02*
X153471429Y-252152438D01*
X153471429Y-252152438D02*
X153566667Y-252104819D01*
X153566667Y-252104819D02*
X153804762Y-252104819D01*
X153804762Y-252104819D02*
X153900000Y-252152438D01*
X153900000Y-252152438D02*
X153947619Y-252200057D01*
X153947619Y-252200057D02*
X153995238Y-252295295D01*
X153995238Y-252295295D02*
X153995238Y-252390533D01*
X153995238Y-252390533D02*
X153947619Y-252533390D01*
X153947619Y-252533390D02*
X153376191Y-253104819D01*
X153376191Y-253104819D02*
X153995238Y-253104819D01*
X159901190Y-291204819D02*
X159901190Y-290204819D01*
X160472618Y-291204819D02*
X160044047Y-290633390D01*
X160472618Y-290204819D02*
X159901190Y-290776247D01*
X161329761Y-291157200D02*
X161234523Y-291204819D01*
X161234523Y-291204819D02*
X161044047Y-291204819D01*
X161044047Y-291204819D02*
X160948809Y-291157200D01*
X160948809Y-291157200D02*
X160901190Y-291109580D01*
X160901190Y-291109580D02*
X160853571Y-291014342D01*
X160853571Y-291014342D02*
X160853571Y-290728628D01*
X160853571Y-290728628D02*
X160901190Y-290633390D01*
X160901190Y-290633390D02*
X160948809Y-290585771D01*
X160948809Y-290585771D02*
X161044047Y-290538152D01*
X161044047Y-290538152D02*
X161234523Y-290538152D01*
X161234523Y-290538152D02*
X161329761Y-290585771D01*
X161520238Y-291300057D02*
X162282142Y-291300057D01*
X162425000Y-290204819D02*
X163044047Y-290204819D01*
X163044047Y-290204819D02*
X162710714Y-290585771D01*
X162710714Y-290585771D02*
X162853571Y-290585771D01*
X162853571Y-290585771D02*
X162948809Y-290633390D01*
X162948809Y-290633390D02*
X162996428Y-290681009D01*
X162996428Y-290681009D02*
X163044047Y-290776247D01*
X163044047Y-290776247D02*
X163044047Y-291014342D01*
X163044047Y-291014342D02*
X162996428Y-291109580D01*
X162996428Y-291109580D02*
X162948809Y-291157200D01*
X162948809Y-291157200D02*
X162853571Y-291204819D01*
X162853571Y-291204819D02*
X162567857Y-291204819D01*
X162567857Y-291204819D02*
X162472619Y-291157200D01*
X162472619Y-291157200D02*
X162425000Y-291109580D01*
X163425000Y-290300057D02*
X163472619Y-290252438D01*
X163472619Y-290252438D02*
X163567857Y-290204819D01*
X163567857Y-290204819D02*
X163805952Y-290204819D01*
X163805952Y-290204819D02*
X163901190Y-290252438D01*
X163901190Y-290252438D02*
X163948809Y-290300057D01*
X163948809Y-290300057D02*
X163996428Y-290395295D01*
X163996428Y-290395295D02*
X163996428Y-290490533D01*
X163996428Y-290490533D02*
X163948809Y-290633390D01*
X163948809Y-290633390D02*
X163377381Y-291204819D01*
X163377381Y-291204819D02*
X163996428Y-291204819D01*
X221813690Y-310254819D02*
X221813690Y-309254819D01*
X222385118Y-310254819D02*
X221956547Y-309683390D01*
X222385118Y-309254819D02*
X221813690Y-309826247D01*
X223242261Y-310207200D02*
X223147023Y-310254819D01*
X223147023Y-310254819D02*
X222956547Y-310254819D01*
X222956547Y-310254819D02*
X222861309Y-310207200D01*
X222861309Y-310207200D02*
X222813690Y-310159580D01*
X222813690Y-310159580D02*
X222766071Y-310064342D01*
X222766071Y-310064342D02*
X222766071Y-309778628D01*
X222766071Y-309778628D02*
X222813690Y-309683390D01*
X222813690Y-309683390D02*
X222861309Y-309635771D01*
X222861309Y-309635771D02*
X222956547Y-309588152D01*
X222956547Y-309588152D02*
X223147023Y-309588152D01*
X223147023Y-309588152D02*
X223242261Y-309635771D01*
X223432738Y-310350057D02*
X224194642Y-310350057D01*
X224908928Y-309254819D02*
X224432738Y-309254819D01*
X224432738Y-309254819D02*
X224385119Y-309731009D01*
X224385119Y-309731009D02*
X224432738Y-309683390D01*
X224432738Y-309683390D02*
X224527976Y-309635771D01*
X224527976Y-309635771D02*
X224766071Y-309635771D01*
X224766071Y-309635771D02*
X224861309Y-309683390D01*
X224861309Y-309683390D02*
X224908928Y-309731009D01*
X224908928Y-309731009D02*
X224956547Y-309826247D01*
X224956547Y-309826247D02*
X224956547Y-310064342D01*
X224956547Y-310064342D02*
X224908928Y-310159580D01*
X224908928Y-310159580D02*
X224861309Y-310207200D01*
X224861309Y-310207200D02*
X224766071Y-310254819D01*
X224766071Y-310254819D02*
X224527976Y-310254819D01*
X224527976Y-310254819D02*
X224432738Y-310207200D01*
X224432738Y-310207200D02*
X224385119Y-310159580D01*
X225908928Y-310254819D02*
X225337500Y-310254819D01*
X225623214Y-310254819D02*
X225623214Y-309254819D01*
X225623214Y-309254819D02*
X225527976Y-309397676D01*
X225527976Y-309397676D02*
X225432738Y-309492914D01*
X225432738Y-309492914D02*
X225337500Y-309540533D01*
X164663690Y-310254819D02*
X164663690Y-309254819D01*
X165235118Y-310254819D02*
X164806547Y-309683390D01*
X165235118Y-309254819D02*
X164663690Y-309826247D01*
X166092261Y-310207200D02*
X165997023Y-310254819D01*
X165997023Y-310254819D02*
X165806547Y-310254819D01*
X165806547Y-310254819D02*
X165711309Y-310207200D01*
X165711309Y-310207200D02*
X165663690Y-310159580D01*
X165663690Y-310159580D02*
X165616071Y-310064342D01*
X165616071Y-310064342D02*
X165616071Y-309778628D01*
X165616071Y-309778628D02*
X165663690Y-309683390D01*
X165663690Y-309683390D02*
X165711309Y-309635771D01*
X165711309Y-309635771D02*
X165806547Y-309588152D01*
X165806547Y-309588152D02*
X165997023Y-309588152D01*
X165997023Y-309588152D02*
X166092261Y-309635771D01*
X166282738Y-310350057D02*
X167044642Y-310350057D01*
X167711309Y-309588152D02*
X167711309Y-310254819D01*
X167473214Y-309207200D02*
X167235119Y-309921485D01*
X167235119Y-309921485D02*
X167854166Y-309921485D01*
X168377976Y-309683390D02*
X168282738Y-309635771D01*
X168282738Y-309635771D02*
X168235119Y-309588152D01*
X168235119Y-309588152D02*
X168187500Y-309492914D01*
X168187500Y-309492914D02*
X168187500Y-309445295D01*
X168187500Y-309445295D02*
X168235119Y-309350057D01*
X168235119Y-309350057D02*
X168282738Y-309302438D01*
X168282738Y-309302438D02*
X168377976Y-309254819D01*
X168377976Y-309254819D02*
X168568452Y-309254819D01*
X168568452Y-309254819D02*
X168663690Y-309302438D01*
X168663690Y-309302438D02*
X168711309Y-309350057D01*
X168711309Y-309350057D02*
X168758928Y-309445295D01*
X168758928Y-309445295D02*
X168758928Y-309492914D01*
X168758928Y-309492914D02*
X168711309Y-309588152D01*
X168711309Y-309588152D02*
X168663690Y-309635771D01*
X168663690Y-309635771D02*
X168568452Y-309683390D01*
X168568452Y-309683390D02*
X168377976Y-309683390D01*
X168377976Y-309683390D02*
X168282738Y-309731009D01*
X168282738Y-309731009D02*
X168235119Y-309778628D01*
X168235119Y-309778628D02*
X168187500Y-309873866D01*
X168187500Y-309873866D02*
X168187500Y-310064342D01*
X168187500Y-310064342D02*
X168235119Y-310159580D01*
X168235119Y-310159580D02*
X168282738Y-310207200D01*
X168282738Y-310207200D02*
X168377976Y-310254819D01*
X168377976Y-310254819D02*
X168568452Y-310254819D01*
X168568452Y-310254819D02*
X168663690Y-310207200D01*
X168663690Y-310207200D02*
X168711309Y-310159580D01*
X168711309Y-310159580D02*
X168758928Y-310064342D01*
X168758928Y-310064342D02*
X168758928Y-309873866D01*
X168758928Y-309873866D02*
X168711309Y-309778628D01*
X168711309Y-309778628D02*
X168663690Y-309731009D01*
X168663690Y-309731009D02*
X168568452Y-309683390D01*
X255151190Y-291204819D02*
X255151190Y-290204819D01*
X255722618Y-291204819D02*
X255294047Y-290633390D01*
X255722618Y-290204819D02*
X255151190Y-290776247D01*
X256579761Y-291157200D02*
X256484523Y-291204819D01*
X256484523Y-291204819D02*
X256294047Y-291204819D01*
X256294047Y-291204819D02*
X256198809Y-291157200D01*
X256198809Y-291157200D02*
X256151190Y-291109580D01*
X256151190Y-291109580D02*
X256103571Y-291014342D01*
X256103571Y-291014342D02*
X256103571Y-290728628D01*
X256103571Y-290728628D02*
X256151190Y-290633390D01*
X256151190Y-290633390D02*
X256198809Y-290585771D01*
X256198809Y-290585771D02*
X256294047Y-290538152D01*
X256294047Y-290538152D02*
X256484523Y-290538152D01*
X256484523Y-290538152D02*
X256579761Y-290585771D01*
X256770238Y-291300057D02*
X257532142Y-291300057D01*
X257675000Y-290204819D02*
X258294047Y-290204819D01*
X258294047Y-290204819D02*
X257960714Y-290585771D01*
X257960714Y-290585771D02*
X258103571Y-290585771D01*
X258103571Y-290585771D02*
X258198809Y-290633390D01*
X258198809Y-290633390D02*
X258246428Y-290681009D01*
X258246428Y-290681009D02*
X258294047Y-290776247D01*
X258294047Y-290776247D02*
X258294047Y-291014342D01*
X258294047Y-291014342D02*
X258246428Y-291109580D01*
X258246428Y-291109580D02*
X258198809Y-291157200D01*
X258198809Y-291157200D02*
X258103571Y-291204819D01*
X258103571Y-291204819D02*
X257817857Y-291204819D01*
X257817857Y-291204819D02*
X257722619Y-291157200D01*
X257722619Y-291157200D02*
X257675000Y-291109580D01*
X258627381Y-290204819D02*
X259294047Y-290204819D01*
X259294047Y-290204819D02*
X258865476Y-291204819D01*
X412888095Y-240063450D02*
X413030952Y-240111069D01*
X413030952Y-240111069D02*
X413269047Y-240111069D01*
X413269047Y-240111069D02*
X413364285Y-240063450D01*
X413364285Y-240063450D02*
X413411904Y-240015830D01*
X413411904Y-240015830D02*
X413459523Y-239920592D01*
X413459523Y-239920592D02*
X413459523Y-239825354D01*
X413459523Y-239825354D02*
X413411904Y-239730116D01*
X413411904Y-239730116D02*
X413364285Y-239682497D01*
X413364285Y-239682497D02*
X413269047Y-239634878D01*
X413269047Y-239634878D02*
X413078571Y-239587259D01*
X413078571Y-239587259D02*
X412983333Y-239539640D01*
X412983333Y-239539640D02*
X412935714Y-239492021D01*
X412935714Y-239492021D02*
X412888095Y-239396783D01*
X412888095Y-239396783D02*
X412888095Y-239301545D01*
X412888095Y-239301545D02*
X412935714Y-239206307D01*
X412935714Y-239206307D02*
X412983333Y-239158688D01*
X412983333Y-239158688D02*
X413078571Y-239111069D01*
X413078571Y-239111069D02*
X413316666Y-239111069D01*
X413316666Y-239111069D02*
X413459523Y-239158688D01*
X413792857Y-239111069D02*
X414030952Y-240111069D01*
X414030952Y-240111069D02*
X414221428Y-239396783D01*
X414221428Y-239396783D02*
X414411904Y-240111069D01*
X414411904Y-240111069D02*
X414650000Y-239111069D01*
X415459523Y-240063450D02*
X415364285Y-240111069D01*
X415364285Y-240111069D02*
X415173809Y-240111069D01*
X415173809Y-240111069D02*
X415078571Y-240063450D01*
X415078571Y-240063450D02*
X415030952Y-240015830D01*
X415030952Y-240015830D02*
X414983333Y-239920592D01*
X414983333Y-239920592D02*
X414983333Y-239634878D01*
X414983333Y-239634878D02*
X415030952Y-239539640D01*
X415030952Y-239539640D02*
X415078571Y-239492021D01*
X415078571Y-239492021D02*
X415173809Y-239444402D01*
X415173809Y-239444402D02*
X415364285Y-239444402D01*
X415364285Y-239444402D02*
X415459523Y-239492021D01*
X416411904Y-240111069D02*
X415840476Y-240111069D01*
X416126190Y-240111069D02*
X416126190Y-239111069D01*
X416126190Y-239111069D02*
X416030952Y-239253926D01*
X416030952Y-239253926D02*
X415935714Y-239349164D01*
X415935714Y-239349164D02*
X415840476Y-239396783D01*
X212288690Y-329304819D02*
X212288690Y-328304819D01*
X212860118Y-329304819D02*
X212431547Y-328733390D01*
X212860118Y-328304819D02*
X212288690Y-328876247D01*
X213717261Y-329257200D02*
X213622023Y-329304819D01*
X213622023Y-329304819D02*
X213431547Y-329304819D01*
X213431547Y-329304819D02*
X213336309Y-329257200D01*
X213336309Y-329257200D02*
X213288690Y-329209580D01*
X213288690Y-329209580D02*
X213241071Y-329114342D01*
X213241071Y-329114342D02*
X213241071Y-328828628D01*
X213241071Y-328828628D02*
X213288690Y-328733390D01*
X213288690Y-328733390D02*
X213336309Y-328685771D01*
X213336309Y-328685771D02*
X213431547Y-328638152D01*
X213431547Y-328638152D02*
X213622023Y-328638152D01*
X213622023Y-328638152D02*
X213717261Y-328685771D01*
X213907738Y-329400057D02*
X214669642Y-329400057D01*
X215336309Y-328304819D02*
X215145833Y-328304819D01*
X215145833Y-328304819D02*
X215050595Y-328352438D01*
X215050595Y-328352438D02*
X215002976Y-328400057D01*
X215002976Y-328400057D02*
X214907738Y-328542914D01*
X214907738Y-328542914D02*
X214860119Y-328733390D01*
X214860119Y-328733390D02*
X214860119Y-329114342D01*
X214860119Y-329114342D02*
X214907738Y-329209580D01*
X214907738Y-329209580D02*
X214955357Y-329257200D01*
X214955357Y-329257200D02*
X215050595Y-329304819D01*
X215050595Y-329304819D02*
X215241071Y-329304819D01*
X215241071Y-329304819D02*
X215336309Y-329257200D01*
X215336309Y-329257200D02*
X215383928Y-329209580D01*
X215383928Y-329209580D02*
X215431547Y-329114342D01*
X215431547Y-329114342D02*
X215431547Y-328876247D01*
X215431547Y-328876247D02*
X215383928Y-328781009D01*
X215383928Y-328781009D02*
X215336309Y-328733390D01*
X215336309Y-328733390D02*
X215241071Y-328685771D01*
X215241071Y-328685771D02*
X215050595Y-328685771D01*
X215050595Y-328685771D02*
X214955357Y-328733390D01*
X214955357Y-328733390D02*
X214907738Y-328781009D01*
X214907738Y-328781009D02*
X214860119Y-328876247D01*
X216336309Y-328304819D02*
X215860119Y-328304819D01*
X215860119Y-328304819D02*
X215812500Y-328781009D01*
X215812500Y-328781009D02*
X215860119Y-328733390D01*
X215860119Y-328733390D02*
X215955357Y-328685771D01*
X215955357Y-328685771D02*
X216193452Y-328685771D01*
X216193452Y-328685771D02*
X216288690Y-328733390D01*
X216288690Y-328733390D02*
X216336309Y-328781009D01*
X216336309Y-328781009D02*
X216383928Y-328876247D01*
X216383928Y-328876247D02*
X216383928Y-329114342D01*
X216383928Y-329114342D02*
X216336309Y-329209580D01*
X216336309Y-329209580D02*
X216288690Y-329257200D01*
X216288690Y-329257200D02*
X216193452Y-329304819D01*
X216193452Y-329304819D02*
X215955357Y-329304819D01*
X215955357Y-329304819D02*
X215860119Y-329257200D01*
X215860119Y-329257200D02*
X215812500Y-329209580D01*
X359926190Y-348354819D02*
X359926190Y-347354819D01*
X360497618Y-348354819D02*
X360069047Y-347783390D01*
X360497618Y-347354819D02*
X359926190Y-347926247D01*
X361354761Y-348307200D02*
X361259523Y-348354819D01*
X361259523Y-348354819D02*
X361069047Y-348354819D01*
X361069047Y-348354819D02*
X360973809Y-348307200D01*
X360973809Y-348307200D02*
X360926190Y-348259580D01*
X360926190Y-348259580D02*
X360878571Y-348164342D01*
X360878571Y-348164342D02*
X360878571Y-347878628D01*
X360878571Y-347878628D02*
X360926190Y-347783390D01*
X360926190Y-347783390D02*
X360973809Y-347735771D01*
X360973809Y-347735771D02*
X361069047Y-347688152D01*
X361069047Y-347688152D02*
X361259523Y-347688152D01*
X361259523Y-347688152D02*
X361354761Y-347735771D01*
X361545238Y-348450057D02*
X362307142Y-348450057D01*
X362688095Y-347783390D02*
X362592857Y-347735771D01*
X362592857Y-347735771D02*
X362545238Y-347688152D01*
X362545238Y-347688152D02*
X362497619Y-347592914D01*
X362497619Y-347592914D02*
X362497619Y-347545295D01*
X362497619Y-347545295D02*
X362545238Y-347450057D01*
X362545238Y-347450057D02*
X362592857Y-347402438D01*
X362592857Y-347402438D02*
X362688095Y-347354819D01*
X362688095Y-347354819D02*
X362878571Y-347354819D01*
X362878571Y-347354819D02*
X362973809Y-347402438D01*
X362973809Y-347402438D02*
X363021428Y-347450057D01*
X363021428Y-347450057D02*
X363069047Y-347545295D01*
X363069047Y-347545295D02*
X363069047Y-347592914D01*
X363069047Y-347592914D02*
X363021428Y-347688152D01*
X363021428Y-347688152D02*
X362973809Y-347735771D01*
X362973809Y-347735771D02*
X362878571Y-347783390D01*
X362878571Y-347783390D02*
X362688095Y-347783390D01*
X362688095Y-347783390D02*
X362592857Y-347831009D01*
X362592857Y-347831009D02*
X362545238Y-347878628D01*
X362545238Y-347878628D02*
X362497619Y-347973866D01*
X362497619Y-347973866D02*
X362497619Y-348164342D01*
X362497619Y-348164342D02*
X362545238Y-348259580D01*
X362545238Y-348259580D02*
X362592857Y-348307200D01*
X362592857Y-348307200D02*
X362688095Y-348354819D01*
X362688095Y-348354819D02*
X362878571Y-348354819D01*
X362878571Y-348354819D02*
X362973809Y-348307200D01*
X362973809Y-348307200D02*
X363021428Y-348259580D01*
X363021428Y-348259580D02*
X363069047Y-348164342D01*
X363069047Y-348164342D02*
X363069047Y-347973866D01*
X363069047Y-347973866D02*
X363021428Y-347878628D01*
X363021428Y-347878628D02*
X362973809Y-347831009D01*
X362973809Y-347831009D02*
X362878571Y-347783390D01*
X364021428Y-348354819D02*
X363450000Y-348354819D01*
X363735714Y-348354819D02*
X363735714Y-347354819D01*
X363735714Y-347354819D02*
X363640476Y-347497676D01*
X363640476Y-347497676D02*
X363545238Y-347592914D01*
X363545238Y-347592914D02*
X363450000Y-347640533D01*
X283726190Y-272154819D02*
X283726190Y-271154819D01*
X284297618Y-272154819D02*
X283869047Y-271583390D01*
X284297618Y-271154819D02*
X283726190Y-271726247D01*
X285154761Y-272107200D02*
X285059523Y-272154819D01*
X285059523Y-272154819D02*
X284869047Y-272154819D01*
X284869047Y-272154819D02*
X284773809Y-272107200D01*
X284773809Y-272107200D02*
X284726190Y-272059580D01*
X284726190Y-272059580D02*
X284678571Y-271964342D01*
X284678571Y-271964342D02*
X284678571Y-271678628D01*
X284678571Y-271678628D02*
X284726190Y-271583390D01*
X284726190Y-271583390D02*
X284773809Y-271535771D01*
X284773809Y-271535771D02*
X284869047Y-271488152D01*
X284869047Y-271488152D02*
X285059523Y-271488152D01*
X285059523Y-271488152D02*
X285154761Y-271535771D01*
X285345238Y-272250057D02*
X286107142Y-272250057D01*
X286297619Y-271250057D02*
X286345238Y-271202438D01*
X286345238Y-271202438D02*
X286440476Y-271154819D01*
X286440476Y-271154819D02*
X286678571Y-271154819D01*
X286678571Y-271154819D02*
X286773809Y-271202438D01*
X286773809Y-271202438D02*
X286821428Y-271250057D01*
X286821428Y-271250057D02*
X286869047Y-271345295D01*
X286869047Y-271345295D02*
X286869047Y-271440533D01*
X286869047Y-271440533D02*
X286821428Y-271583390D01*
X286821428Y-271583390D02*
X286250000Y-272154819D01*
X286250000Y-272154819D02*
X286869047Y-272154819D01*
X287202381Y-271154819D02*
X287821428Y-271154819D01*
X287821428Y-271154819D02*
X287488095Y-271535771D01*
X287488095Y-271535771D02*
X287630952Y-271535771D01*
X287630952Y-271535771D02*
X287726190Y-271583390D01*
X287726190Y-271583390D02*
X287773809Y-271631009D01*
X287773809Y-271631009D02*
X287821428Y-271726247D01*
X287821428Y-271726247D02*
X287821428Y-271964342D01*
X287821428Y-271964342D02*
X287773809Y-272059580D01*
X287773809Y-272059580D02*
X287726190Y-272107200D01*
X287726190Y-272107200D02*
X287630952Y-272154819D01*
X287630952Y-272154819D02*
X287345238Y-272154819D01*
X287345238Y-272154819D02*
X287250000Y-272107200D01*
X287250000Y-272107200D02*
X287202381Y-272059580D01*
X293251190Y-291204819D02*
X293251190Y-290204819D01*
X293822618Y-291204819D02*
X293394047Y-290633390D01*
X293822618Y-290204819D02*
X293251190Y-290776247D01*
X294679761Y-291157200D02*
X294584523Y-291204819D01*
X294584523Y-291204819D02*
X294394047Y-291204819D01*
X294394047Y-291204819D02*
X294298809Y-291157200D01*
X294298809Y-291157200D02*
X294251190Y-291109580D01*
X294251190Y-291109580D02*
X294203571Y-291014342D01*
X294203571Y-291014342D02*
X294203571Y-290728628D01*
X294203571Y-290728628D02*
X294251190Y-290633390D01*
X294251190Y-290633390D02*
X294298809Y-290585771D01*
X294298809Y-290585771D02*
X294394047Y-290538152D01*
X294394047Y-290538152D02*
X294584523Y-290538152D01*
X294584523Y-290538152D02*
X294679761Y-290585771D01*
X294870238Y-291300057D02*
X295632142Y-291300057D01*
X295775000Y-290204819D02*
X296394047Y-290204819D01*
X296394047Y-290204819D02*
X296060714Y-290585771D01*
X296060714Y-290585771D02*
X296203571Y-290585771D01*
X296203571Y-290585771D02*
X296298809Y-290633390D01*
X296298809Y-290633390D02*
X296346428Y-290681009D01*
X296346428Y-290681009D02*
X296394047Y-290776247D01*
X296394047Y-290776247D02*
X296394047Y-291014342D01*
X296394047Y-291014342D02*
X296346428Y-291109580D01*
X296346428Y-291109580D02*
X296298809Y-291157200D01*
X296298809Y-291157200D02*
X296203571Y-291204819D01*
X296203571Y-291204819D02*
X295917857Y-291204819D01*
X295917857Y-291204819D02*
X295822619Y-291157200D01*
X295822619Y-291157200D02*
X295775000Y-291109580D01*
X296870238Y-291204819D02*
X297060714Y-291204819D01*
X297060714Y-291204819D02*
X297155952Y-291157200D01*
X297155952Y-291157200D02*
X297203571Y-291109580D01*
X297203571Y-291109580D02*
X297298809Y-290966723D01*
X297298809Y-290966723D02*
X297346428Y-290776247D01*
X297346428Y-290776247D02*
X297346428Y-290395295D01*
X297346428Y-290395295D02*
X297298809Y-290300057D01*
X297298809Y-290300057D02*
X297251190Y-290252438D01*
X297251190Y-290252438D02*
X297155952Y-290204819D01*
X297155952Y-290204819D02*
X296965476Y-290204819D01*
X296965476Y-290204819D02*
X296870238Y-290252438D01*
X296870238Y-290252438D02*
X296822619Y-290300057D01*
X296822619Y-290300057D02*
X296775000Y-290395295D01*
X296775000Y-290395295D02*
X296775000Y-290633390D01*
X296775000Y-290633390D02*
X296822619Y-290728628D01*
X296822619Y-290728628D02*
X296870238Y-290776247D01*
X296870238Y-290776247D02*
X296965476Y-290823866D01*
X296965476Y-290823866D02*
X297155952Y-290823866D01*
X297155952Y-290823866D02*
X297251190Y-290776247D01*
X297251190Y-290776247D02*
X297298809Y-290728628D01*
X297298809Y-290728628D02*
X297346428Y-290633390D01*
X331351190Y-291204819D02*
X331351190Y-290204819D01*
X331922618Y-291204819D02*
X331494047Y-290633390D01*
X331922618Y-290204819D02*
X331351190Y-290776247D01*
X332779761Y-291157200D02*
X332684523Y-291204819D01*
X332684523Y-291204819D02*
X332494047Y-291204819D01*
X332494047Y-291204819D02*
X332398809Y-291157200D01*
X332398809Y-291157200D02*
X332351190Y-291109580D01*
X332351190Y-291109580D02*
X332303571Y-291014342D01*
X332303571Y-291014342D02*
X332303571Y-290728628D01*
X332303571Y-290728628D02*
X332351190Y-290633390D01*
X332351190Y-290633390D02*
X332398809Y-290585771D01*
X332398809Y-290585771D02*
X332494047Y-290538152D01*
X332494047Y-290538152D02*
X332684523Y-290538152D01*
X332684523Y-290538152D02*
X332779761Y-290585771D01*
X332970238Y-291300057D02*
X333732142Y-291300057D01*
X334398809Y-290538152D02*
X334398809Y-291204819D01*
X334160714Y-290157200D02*
X333922619Y-290871485D01*
X333922619Y-290871485D02*
X334541666Y-290871485D01*
X335446428Y-291204819D02*
X334875000Y-291204819D01*
X335160714Y-291204819D02*
X335160714Y-290204819D01*
X335160714Y-290204819D02*
X335065476Y-290347676D01*
X335065476Y-290347676D02*
X334970238Y-290442914D01*
X334970238Y-290442914D02*
X334875000Y-290490533D01*
X240863690Y-310254819D02*
X240863690Y-309254819D01*
X241435118Y-310254819D02*
X241006547Y-309683390D01*
X241435118Y-309254819D02*
X240863690Y-309826247D01*
X242292261Y-310207200D02*
X242197023Y-310254819D01*
X242197023Y-310254819D02*
X242006547Y-310254819D01*
X242006547Y-310254819D02*
X241911309Y-310207200D01*
X241911309Y-310207200D02*
X241863690Y-310159580D01*
X241863690Y-310159580D02*
X241816071Y-310064342D01*
X241816071Y-310064342D02*
X241816071Y-309778628D01*
X241816071Y-309778628D02*
X241863690Y-309683390D01*
X241863690Y-309683390D02*
X241911309Y-309635771D01*
X241911309Y-309635771D02*
X242006547Y-309588152D01*
X242006547Y-309588152D02*
X242197023Y-309588152D01*
X242197023Y-309588152D02*
X242292261Y-309635771D01*
X242482738Y-310350057D02*
X243244642Y-310350057D01*
X243958928Y-309254819D02*
X243482738Y-309254819D01*
X243482738Y-309254819D02*
X243435119Y-309731009D01*
X243435119Y-309731009D02*
X243482738Y-309683390D01*
X243482738Y-309683390D02*
X243577976Y-309635771D01*
X243577976Y-309635771D02*
X243816071Y-309635771D01*
X243816071Y-309635771D02*
X243911309Y-309683390D01*
X243911309Y-309683390D02*
X243958928Y-309731009D01*
X243958928Y-309731009D02*
X244006547Y-309826247D01*
X244006547Y-309826247D02*
X244006547Y-310064342D01*
X244006547Y-310064342D02*
X243958928Y-310159580D01*
X243958928Y-310159580D02*
X243911309Y-310207200D01*
X243911309Y-310207200D02*
X243816071Y-310254819D01*
X243816071Y-310254819D02*
X243577976Y-310254819D01*
X243577976Y-310254819D02*
X243482738Y-310207200D01*
X243482738Y-310207200D02*
X243435119Y-310159580D01*
X244387500Y-309350057D02*
X244435119Y-309302438D01*
X244435119Y-309302438D02*
X244530357Y-309254819D01*
X244530357Y-309254819D02*
X244768452Y-309254819D01*
X244768452Y-309254819D02*
X244863690Y-309302438D01*
X244863690Y-309302438D02*
X244911309Y-309350057D01*
X244911309Y-309350057D02*
X244958928Y-309445295D01*
X244958928Y-309445295D02*
X244958928Y-309540533D01*
X244958928Y-309540533D02*
X244911309Y-309683390D01*
X244911309Y-309683390D02*
X244339881Y-310254819D01*
X244339881Y-310254819D02*
X244958928Y-310254819D01*
X198001190Y-291204819D02*
X198001190Y-290204819D01*
X198572618Y-291204819D02*
X198144047Y-290633390D01*
X198572618Y-290204819D02*
X198001190Y-290776247D01*
X199429761Y-291157200D02*
X199334523Y-291204819D01*
X199334523Y-291204819D02*
X199144047Y-291204819D01*
X199144047Y-291204819D02*
X199048809Y-291157200D01*
X199048809Y-291157200D02*
X199001190Y-291109580D01*
X199001190Y-291109580D02*
X198953571Y-291014342D01*
X198953571Y-291014342D02*
X198953571Y-290728628D01*
X198953571Y-290728628D02*
X199001190Y-290633390D01*
X199001190Y-290633390D02*
X199048809Y-290585771D01*
X199048809Y-290585771D02*
X199144047Y-290538152D01*
X199144047Y-290538152D02*
X199334523Y-290538152D01*
X199334523Y-290538152D02*
X199429761Y-290585771D01*
X199620238Y-291300057D02*
X200382142Y-291300057D01*
X200525000Y-290204819D02*
X201144047Y-290204819D01*
X201144047Y-290204819D02*
X200810714Y-290585771D01*
X200810714Y-290585771D02*
X200953571Y-290585771D01*
X200953571Y-290585771D02*
X201048809Y-290633390D01*
X201048809Y-290633390D02*
X201096428Y-290681009D01*
X201096428Y-290681009D02*
X201144047Y-290776247D01*
X201144047Y-290776247D02*
X201144047Y-291014342D01*
X201144047Y-291014342D02*
X201096428Y-291109580D01*
X201096428Y-291109580D02*
X201048809Y-291157200D01*
X201048809Y-291157200D02*
X200953571Y-291204819D01*
X200953571Y-291204819D02*
X200667857Y-291204819D01*
X200667857Y-291204819D02*
X200572619Y-291157200D01*
X200572619Y-291157200D02*
X200525000Y-291109580D01*
X202001190Y-290538152D02*
X202001190Y-291204819D01*
X201763095Y-290157200D02*
X201525000Y-290871485D01*
X201525000Y-290871485D02*
X202144047Y-290871485D01*
X208002381Y-253104819D02*
X208002381Y-252104819D01*
X208573809Y-253104819D02*
X208145238Y-252533390D01*
X208573809Y-252104819D02*
X208002381Y-252676247D01*
X209430952Y-253057200D02*
X209335714Y-253104819D01*
X209335714Y-253104819D02*
X209145238Y-253104819D01*
X209145238Y-253104819D02*
X209050000Y-253057200D01*
X209050000Y-253057200D02*
X209002381Y-253009580D01*
X209002381Y-253009580D02*
X208954762Y-252914342D01*
X208954762Y-252914342D02*
X208954762Y-252628628D01*
X208954762Y-252628628D02*
X209002381Y-252533390D01*
X209002381Y-252533390D02*
X209050000Y-252485771D01*
X209050000Y-252485771D02*
X209145238Y-252438152D01*
X209145238Y-252438152D02*
X209335714Y-252438152D01*
X209335714Y-252438152D02*
X209430952Y-252485771D01*
X209621429Y-253200057D02*
X210383333Y-253200057D01*
X211097619Y-252104819D02*
X210621429Y-252104819D01*
X210621429Y-252104819D02*
X210573810Y-252581009D01*
X210573810Y-252581009D02*
X210621429Y-252533390D01*
X210621429Y-252533390D02*
X210716667Y-252485771D01*
X210716667Y-252485771D02*
X210954762Y-252485771D01*
X210954762Y-252485771D02*
X211050000Y-252533390D01*
X211050000Y-252533390D02*
X211097619Y-252581009D01*
X211097619Y-252581009D02*
X211145238Y-252676247D01*
X211145238Y-252676247D02*
X211145238Y-252914342D01*
X211145238Y-252914342D02*
X211097619Y-253009580D01*
X211097619Y-253009580D02*
X211050000Y-253057200D01*
X211050000Y-253057200D02*
X210954762Y-253104819D01*
X210954762Y-253104819D02*
X210716667Y-253104819D01*
X210716667Y-253104819D02*
X210621429Y-253057200D01*
X210621429Y-253057200D02*
X210573810Y-253009580D01*
X312301190Y-291204819D02*
X312301190Y-290204819D01*
X312872618Y-291204819D02*
X312444047Y-290633390D01*
X312872618Y-290204819D02*
X312301190Y-290776247D01*
X313729761Y-291157200D02*
X313634523Y-291204819D01*
X313634523Y-291204819D02*
X313444047Y-291204819D01*
X313444047Y-291204819D02*
X313348809Y-291157200D01*
X313348809Y-291157200D02*
X313301190Y-291109580D01*
X313301190Y-291109580D02*
X313253571Y-291014342D01*
X313253571Y-291014342D02*
X313253571Y-290728628D01*
X313253571Y-290728628D02*
X313301190Y-290633390D01*
X313301190Y-290633390D02*
X313348809Y-290585771D01*
X313348809Y-290585771D02*
X313444047Y-290538152D01*
X313444047Y-290538152D02*
X313634523Y-290538152D01*
X313634523Y-290538152D02*
X313729761Y-290585771D01*
X313920238Y-291300057D02*
X314682142Y-291300057D01*
X315348809Y-290538152D02*
X315348809Y-291204819D01*
X315110714Y-290157200D02*
X314872619Y-290871485D01*
X314872619Y-290871485D02*
X315491666Y-290871485D01*
X316063095Y-290204819D02*
X316158333Y-290204819D01*
X316158333Y-290204819D02*
X316253571Y-290252438D01*
X316253571Y-290252438D02*
X316301190Y-290300057D01*
X316301190Y-290300057D02*
X316348809Y-290395295D01*
X316348809Y-290395295D02*
X316396428Y-290585771D01*
X316396428Y-290585771D02*
X316396428Y-290823866D01*
X316396428Y-290823866D02*
X316348809Y-291014342D01*
X316348809Y-291014342D02*
X316301190Y-291109580D01*
X316301190Y-291109580D02*
X316253571Y-291157200D01*
X316253571Y-291157200D02*
X316158333Y-291204819D01*
X316158333Y-291204819D02*
X316063095Y-291204819D01*
X316063095Y-291204819D02*
X315967857Y-291157200D01*
X315967857Y-291157200D02*
X315920238Y-291109580D01*
X315920238Y-291109580D02*
X315872619Y-291014342D01*
X315872619Y-291014342D02*
X315825000Y-290823866D01*
X315825000Y-290823866D02*
X315825000Y-290585771D01*
X315825000Y-290585771D02*
X315872619Y-290395295D01*
X315872619Y-290395295D02*
X315920238Y-290300057D01*
X315920238Y-290300057D02*
X315967857Y-290252438D01*
X315967857Y-290252438D02*
X316063095Y-290204819D01*
X278963690Y-310254819D02*
X278963690Y-309254819D01*
X279535118Y-310254819D02*
X279106547Y-309683390D01*
X279535118Y-309254819D02*
X278963690Y-309826247D01*
X280392261Y-310207200D02*
X280297023Y-310254819D01*
X280297023Y-310254819D02*
X280106547Y-310254819D01*
X280106547Y-310254819D02*
X280011309Y-310207200D01*
X280011309Y-310207200D02*
X279963690Y-310159580D01*
X279963690Y-310159580D02*
X279916071Y-310064342D01*
X279916071Y-310064342D02*
X279916071Y-309778628D01*
X279916071Y-309778628D02*
X279963690Y-309683390D01*
X279963690Y-309683390D02*
X280011309Y-309635771D01*
X280011309Y-309635771D02*
X280106547Y-309588152D01*
X280106547Y-309588152D02*
X280297023Y-309588152D01*
X280297023Y-309588152D02*
X280392261Y-309635771D01*
X280582738Y-310350057D02*
X281344642Y-310350057D01*
X282058928Y-309254819D02*
X281582738Y-309254819D01*
X281582738Y-309254819D02*
X281535119Y-309731009D01*
X281535119Y-309731009D02*
X281582738Y-309683390D01*
X281582738Y-309683390D02*
X281677976Y-309635771D01*
X281677976Y-309635771D02*
X281916071Y-309635771D01*
X281916071Y-309635771D02*
X282011309Y-309683390D01*
X282011309Y-309683390D02*
X282058928Y-309731009D01*
X282058928Y-309731009D02*
X282106547Y-309826247D01*
X282106547Y-309826247D02*
X282106547Y-310064342D01*
X282106547Y-310064342D02*
X282058928Y-310159580D01*
X282058928Y-310159580D02*
X282011309Y-310207200D01*
X282011309Y-310207200D02*
X281916071Y-310254819D01*
X281916071Y-310254819D02*
X281677976Y-310254819D01*
X281677976Y-310254819D02*
X281582738Y-310207200D01*
X281582738Y-310207200D02*
X281535119Y-310159580D01*
X282963690Y-309588152D02*
X282963690Y-310254819D01*
X282725595Y-309207200D02*
X282487500Y-309921485D01*
X282487500Y-309921485D02*
X283106547Y-309921485D01*
X398026190Y-253104819D02*
X398026190Y-252104819D01*
X398597618Y-253104819D02*
X398169047Y-252533390D01*
X398597618Y-252104819D02*
X398026190Y-252676247D01*
X399454761Y-253057200D02*
X399359523Y-253104819D01*
X399359523Y-253104819D02*
X399169047Y-253104819D01*
X399169047Y-253104819D02*
X399073809Y-253057200D01*
X399073809Y-253057200D02*
X399026190Y-253009580D01*
X399026190Y-253009580D02*
X398978571Y-252914342D01*
X398978571Y-252914342D02*
X398978571Y-252628628D01*
X398978571Y-252628628D02*
X399026190Y-252533390D01*
X399026190Y-252533390D02*
X399073809Y-252485771D01*
X399073809Y-252485771D02*
X399169047Y-252438152D01*
X399169047Y-252438152D02*
X399359523Y-252438152D01*
X399359523Y-252438152D02*
X399454761Y-252485771D01*
X399645238Y-253200057D02*
X400407142Y-253200057D01*
X401169047Y-253104819D02*
X400597619Y-253104819D01*
X400883333Y-253104819D02*
X400883333Y-252104819D01*
X400883333Y-252104819D02*
X400788095Y-252247676D01*
X400788095Y-252247676D02*
X400692857Y-252342914D01*
X400692857Y-252342914D02*
X400597619Y-252390533D01*
X402026190Y-252438152D02*
X402026190Y-253104819D01*
X401788095Y-252057200D02*
X401550000Y-252771485D01*
X401550000Y-252771485D02*
X402169047Y-252771485D01*
X259913690Y-310254819D02*
X259913690Y-309254819D01*
X260485118Y-310254819D02*
X260056547Y-309683390D01*
X260485118Y-309254819D02*
X259913690Y-309826247D01*
X261342261Y-310207200D02*
X261247023Y-310254819D01*
X261247023Y-310254819D02*
X261056547Y-310254819D01*
X261056547Y-310254819D02*
X260961309Y-310207200D01*
X260961309Y-310207200D02*
X260913690Y-310159580D01*
X260913690Y-310159580D02*
X260866071Y-310064342D01*
X260866071Y-310064342D02*
X260866071Y-309778628D01*
X260866071Y-309778628D02*
X260913690Y-309683390D01*
X260913690Y-309683390D02*
X260961309Y-309635771D01*
X260961309Y-309635771D02*
X261056547Y-309588152D01*
X261056547Y-309588152D02*
X261247023Y-309588152D01*
X261247023Y-309588152D02*
X261342261Y-309635771D01*
X261532738Y-310350057D02*
X262294642Y-310350057D01*
X263008928Y-309254819D02*
X262532738Y-309254819D01*
X262532738Y-309254819D02*
X262485119Y-309731009D01*
X262485119Y-309731009D02*
X262532738Y-309683390D01*
X262532738Y-309683390D02*
X262627976Y-309635771D01*
X262627976Y-309635771D02*
X262866071Y-309635771D01*
X262866071Y-309635771D02*
X262961309Y-309683390D01*
X262961309Y-309683390D02*
X263008928Y-309731009D01*
X263008928Y-309731009D02*
X263056547Y-309826247D01*
X263056547Y-309826247D02*
X263056547Y-310064342D01*
X263056547Y-310064342D02*
X263008928Y-310159580D01*
X263008928Y-310159580D02*
X262961309Y-310207200D01*
X262961309Y-310207200D02*
X262866071Y-310254819D01*
X262866071Y-310254819D02*
X262627976Y-310254819D01*
X262627976Y-310254819D02*
X262532738Y-310207200D01*
X262532738Y-310207200D02*
X262485119Y-310159580D01*
X263389881Y-309254819D02*
X264008928Y-309254819D01*
X264008928Y-309254819D02*
X263675595Y-309635771D01*
X263675595Y-309635771D02*
X263818452Y-309635771D01*
X263818452Y-309635771D02*
X263913690Y-309683390D01*
X263913690Y-309683390D02*
X263961309Y-309731009D01*
X263961309Y-309731009D02*
X264008928Y-309826247D01*
X264008928Y-309826247D02*
X264008928Y-310064342D01*
X264008928Y-310064342D02*
X263961309Y-310159580D01*
X263961309Y-310159580D02*
X263913690Y-310207200D01*
X263913690Y-310207200D02*
X263818452Y-310254819D01*
X263818452Y-310254819D02*
X263532738Y-310254819D01*
X263532738Y-310254819D02*
X263437500Y-310207200D01*
X263437500Y-310207200D02*
X263389881Y-310159580D01*
X336113690Y-310254819D02*
X336113690Y-309254819D01*
X336685118Y-310254819D02*
X336256547Y-309683390D01*
X336685118Y-309254819D02*
X336113690Y-309826247D01*
X337542261Y-310207200D02*
X337447023Y-310254819D01*
X337447023Y-310254819D02*
X337256547Y-310254819D01*
X337256547Y-310254819D02*
X337161309Y-310207200D01*
X337161309Y-310207200D02*
X337113690Y-310159580D01*
X337113690Y-310159580D02*
X337066071Y-310064342D01*
X337066071Y-310064342D02*
X337066071Y-309778628D01*
X337066071Y-309778628D02*
X337113690Y-309683390D01*
X337113690Y-309683390D02*
X337161309Y-309635771D01*
X337161309Y-309635771D02*
X337256547Y-309588152D01*
X337256547Y-309588152D02*
X337447023Y-309588152D01*
X337447023Y-309588152D02*
X337542261Y-309635771D01*
X337732738Y-310350057D02*
X338494642Y-310350057D01*
X339208928Y-309254819D02*
X338732738Y-309254819D01*
X338732738Y-309254819D02*
X338685119Y-309731009D01*
X338685119Y-309731009D02*
X338732738Y-309683390D01*
X338732738Y-309683390D02*
X338827976Y-309635771D01*
X338827976Y-309635771D02*
X339066071Y-309635771D01*
X339066071Y-309635771D02*
X339161309Y-309683390D01*
X339161309Y-309683390D02*
X339208928Y-309731009D01*
X339208928Y-309731009D02*
X339256547Y-309826247D01*
X339256547Y-309826247D02*
X339256547Y-310064342D01*
X339256547Y-310064342D02*
X339208928Y-310159580D01*
X339208928Y-310159580D02*
X339161309Y-310207200D01*
X339161309Y-310207200D02*
X339066071Y-310254819D01*
X339066071Y-310254819D02*
X338827976Y-310254819D01*
X338827976Y-310254819D02*
X338732738Y-310207200D01*
X338732738Y-310207200D02*
X338685119Y-310159580D01*
X339589881Y-309254819D02*
X340256547Y-309254819D01*
X340256547Y-309254819D02*
X339827976Y-310254819D01*
X117348095Y-353294819D02*
X117348095Y-352294819D01*
X117348095Y-352771009D02*
X117919523Y-352771009D01*
X117919523Y-353294819D02*
X117919523Y-352294819D01*
X118824285Y-352628152D02*
X118824285Y-353294819D01*
X118586190Y-352247200D02*
X118348095Y-352961485D01*
X118348095Y-352961485D02*
X118967142Y-352961485D01*
X487084819Y-358901904D02*
X486084819Y-358901904D01*
X486561009Y-358901904D02*
X486561009Y-358330476D01*
X487084819Y-358330476D02*
X486084819Y-358330476D01*
X487084819Y-357330476D02*
X487084819Y-357901904D01*
X487084819Y-357616190D02*
X486084819Y-357616190D01*
X486084819Y-357616190D02*
X486227676Y-357711428D01*
X486227676Y-357711428D02*
X486322914Y-357806666D01*
X486322914Y-357806666D02*
X486370533Y-357901904D01*
X178951190Y-348354819D02*
X178951190Y-347354819D01*
X179522618Y-348354819D02*
X179094047Y-347783390D01*
X179522618Y-347354819D02*
X178951190Y-347926247D01*
X180379761Y-348307200D02*
X180284523Y-348354819D01*
X180284523Y-348354819D02*
X180094047Y-348354819D01*
X180094047Y-348354819D02*
X179998809Y-348307200D01*
X179998809Y-348307200D02*
X179951190Y-348259580D01*
X179951190Y-348259580D02*
X179903571Y-348164342D01*
X179903571Y-348164342D02*
X179903571Y-347878628D01*
X179903571Y-347878628D02*
X179951190Y-347783390D01*
X179951190Y-347783390D02*
X179998809Y-347735771D01*
X179998809Y-347735771D02*
X180094047Y-347688152D01*
X180094047Y-347688152D02*
X180284523Y-347688152D01*
X180284523Y-347688152D02*
X180379761Y-347735771D01*
X180570238Y-348450057D02*
X181332142Y-348450057D01*
X181475000Y-347354819D02*
X182141666Y-347354819D01*
X182141666Y-347354819D02*
X181713095Y-348354819D01*
X182427381Y-347354819D02*
X183094047Y-347354819D01*
X183094047Y-347354819D02*
X182665476Y-348354819D01*
X340876190Y-253104819D02*
X340876190Y-252104819D01*
X341447618Y-253104819D02*
X341019047Y-252533390D01*
X341447618Y-252104819D02*
X340876190Y-252676247D01*
X342304761Y-253057200D02*
X342209523Y-253104819D01*
X342209523Y-253104819D02*
X342019047Y-253104819D01*
X342019047Y-253104819D02*
X341923809Y-253057200D01*
X341923809Y-253057200D02*
X341876190Y-253009580D01*
X341876190Y-253009580D02*
X341828571Y-252914342D01*
X341828571Y-252914342D02*
X341828571Y-252628628D01*
X341828571Y-252628628D02*
X341876190Y-252533390D01*
X341876190Y-252533390D02*
X341923809Y-252485771D01*
X341923809Y-252485771D02*
X342019047Y-252438152D01*
X342019047Y-252438152D02*
X342209523Y-252438152D01*
X342209523Y-252438152D02*
X342304761Y-252485771D01*
X342495238Y-253200057D02*
X343257142Y-253200057D01*
X344019047Y-253104819D02*
X343447619Y-253104819D01*
X343733333Y-253104819D02*
X343733333Y-252104819D01*
X343733333Y-252104819D02*
X343638095Y-252247676D01*
X343638095Y-252247676D02*
X343542857Y-252342914D01*
X343542857Y-252342914D02*
X343447619Y-252390533D01*
X344400000Y-252200057D02*
X344447619Y-252152438D01*
X344447619Y-252152438D02*
X344542857Y-252104819D01*
X344542857Y-252104819D02*
X344780952Y-252104819D01*
X344780952Y-252104819D02*
X344876190Y-252152438D01*
X344876190Y-252152438D02*
X344923809Y-252200057D01*
X344923809Y-252200057D02*
X344971428Y-252295295D01*
X344971428Y-252295295D02*
X344971428Y-252390533D01*
X344971428Y-252390533D02*
X344923809Y-252533390D01*
X344923809Y-252533390D02*
X344352381Y-253104819D01*
X344352381Y-253104819D02*
X344971428Y-253104819D01*
X226576190Y-272154819D02*
X226576190Y-271154819D01*
X227147618Y-272154819D02*
X226719047Y-271583390D01*
X227147618Y-271154819D02*
X226576190Y-271726247D01*
X228004761Y-272107200D02*
X227909523Y-272154819D01*
X227909523Y-272154819D02*
X227719047Y-272154819D01*
X227719047Y-272154819D02*
X227623809Y-272107200D01*
X227623809Y-272107200D02*
X227576190Y-272059580D01*
X227576190Y-272059580D02*
X227528571Y-271964342D01*
X227528571Y-271964342D02*
X227528571Y-271678628D01*
X227528571Y-271678628D02*
X227576190Y-271583390D01*
X227576190Y-271583390D02*
X227623809Y-271535771D01*
X227623809Y-271535771D02*
X227719047Y-271488152D01*
X227719047Y-271488152D02*
X227909523Y-271488152D01*
X227909523Y-271488152D02*
X228004761Y-271535771D01*
X228195238Y-272250057D02*
X228957142Y-272250057D01*
X229147619Y-271250057D02*
X229195238Y-271202438D01*
X229195238Y-271202438D02*
X229290476Y-271154819D01*
X229290476Y-271154819D02*
X229528571Y-271154819D01*
X229528571Y-271154819D02*
X229623809Y-271202438D01*
X229623809Y-271202438D02*
X229671428Y-271250057D01*
X229671428Y-271250057D02*
X229719047Y-271345295D01*
X229719047Y-271345295D02*
X229719047Y-271440533D01*
X229719047Y-271440533D02*
X229671428Y-271583390D01*
X229671428Y-271583390D02*
X229100000Y-272154819D01*
X229100000Y-272154819D02*
X229719047Y-272154819D01*
X230338095Y-271154819D02*
X230433333Y-271154819D01*
X230433333Y-271154819D02*
X230528571Y-271202438D01*
X230528571Y-271202438D02*
X230576190Y-271250057D01*
X230576190Y-271250057D02*
X230623809Y-271345295D01*
X230623809Y-271345295D02*
X230671428Y-271535771D01*
X230671428Y-271535771D02*
X230671428Y-271773866D01*
X230671428Y-271773866D02*
X230623809Y-271964342D01*
X230623809Y-271964342D02*
X230576190Y-272059580D01*
X230576190Y-272059580D02*
X230528571Y-272107200D01*
X230528571Y-272107200D02*
X230433333Y-272154819D01*
X230433333Y-272154819D02*
X230338095Y-272154819D01*
X230338095Y-272154819D02*
X230242857Y-272107200D01*
X230242857Y-272107200D02*
X230195238Y-272059580D01*
X230195238Y-272059580D02*
X230147619Y-271964342D01*
X230147619Y-271964342D02*
X230100000Y-271773866D01*
X230100000Y-271773866D02*
X230100000Y-271535771D01*
X230100000Y-271535771D02*
X230147619Y-271345295D01*
X230147619Y-271345295D02*
X230195238Y-271250057D01*
X230195238Y-271250057D02*
X230242857Y-271202438D01*
X230242857Y-271202438D02*
X230338095Y-271154819D01*
X417076190Y-310254819D02*
X417076190Y-309254819D01*
X417647618Y-310254819D02*
X417219047Y-309683390D01*
X417647618Y-309254819D02*
X417076190Y-309826247D01*
X418504761Y-310207200D02*
X418409523Y-310254819D01*
X418409523Y-310254819D02*
X418219047Y-310254819D01*
X418219047Y-310254819D02*
X418123809Y-310207200D01*
X418123809Y-310207200D02*
X418076190Y-310159580D01*
X418076190Y-310159580D02*
X418028571Y-310064342D01*
X418028571Y-310064342D02*
X418028571Y-309778628D01*
X418028571Y-309778628D02*
X418076190Y-309683390D01*
X418076190Y-309683390D02*
X418123809Y-309635771D01*
X418123809Y-309635771D02*
X418219047Y-309588152D01*
X418219047Y-309588152D02*
X418409523Y-309588152D01*
X418409523Y-309588152D02*
X418504761Y-309635771D01*
X418695238Y-310350057D02*
X419457142Y-310350057D01*
X420123809Y-309254819D02*
X419933333Y-309254819D01*
X419933333Y-309254819D02*
X419838095Y-309302438D01*
X419838095Y-309302438D02*
X419790476Y-309350057D01*
X419790476Y-309350057D02*
X419695238Y-309492914D01*
X419695238Y-309492914D02*
X419647619Y-309683390D01*
X419647619Y-309683390D02*
X419647619Y-310064342D01*
X419647619Y-310064342D02*
X419695238Y-310159580D01*
X419695238Y-310159580D02*
X419742857Y-310207200D01*
X419742857Y-310207200D02*
X419838095Y-310254819D01*
X419838095Y-310254819D02*
X420028571Y-310254819D01*
X420028571Y-310254819D02*
X420123809Y-310207200D01*
X420123809Y-310207200D02*
X420171428Y-310159580D01*
X420171428Y-310159580D02*
X420219047Y-310064342D01*
X420219047Y-310064342D02*
X420219047Y-309826247D01*
X420219047Y-309826247D02*
X420171428Y-309731009D01*
X420171428Y-309731009D02*
X420123809Y-309683390D01*
X420123809Y-309683390D02*
X420028571Y-309635771D01*
X420028571Y-309635771D02*
X419838095Y-309635771D01*
X419838095Y-309635771D02*
X419742857Y-309683390D01*
X419742857Y-309683390D02*
X419695238Y-309731009D01*
X419695238Y-309731009D02*
X419647619Y-309826247D01*
X420838095Y-309254819D02*
X420933333Y-309254819D01*
X420933333Y-309254819D02*
X421028571Y-309302438D01*
X421028571Y-309302438D02*
X421076190Y-309350057D01*
X421076190Y-309350057D02*
X421123809Y-309445295D01*
X421123809Y-309445295D02*
X421171428Y-309635771D01*
X421171428Y-309635771D02*
X421171428Y-309873866D01*
X421171428Y-309873866D02*
X421123809Y-310064342D01*
X421123809Y-310064342D02*
X421076190Y-310159580D01*
X421076190Y-310159580D02*
X421028571Y-310207200D01*
X421028571Y-310207200D02*
X420933333Y-310254819D01*
X420933333Y-310254819D02*
X420838095Y-310254819D01*
X420838095Y-310254819D02*
X420742857Y-310207200D01*
X420742857Y-310207200D02*
X420695238Y-310159580D01*
X420695238Y-310159580D02*
X420647619Y-310064342D01*
X420647619Y-310064342D02*
X420600000Y-309873866D01*
X420600000Y-309873866D02*
X420600000Y-309635771D01*
X420600000Y-309635771D02*
X420647619Y-309445295D01*
X420647619Y-309445295D02*
X420695238Y-309350057D01*
X420695238Y-309350057D02*
X420742857Y-309302438D01*
X420742857Y-309302438D02*
X420838095Y-309254819D01*
X288488690Y-329304819D02*
X288488690Y-328304819D01*
X289060118Y-329304819D02*
X288631547Y-328733390D01*
X289060118Y-328304819D02*
X288488690Y-328876247D01*
X289917261Y-329257200D02*
X289822023Y-329304819D01*
X289822023Y-329304819D02*
X289631547Y-329304819D01*
X289631547Y-329304819D02*
X289536309Y-329257200D01*
X289536309Y-329257200D02*
X289488690Y-329209580D01*
X289488690Y-329209580D02*
X289441071Y-329114342D01*
X289441071Y-329114342D02*
X289441071Y-328828628D01*
X289441071Y-328828628D02*
X289488690Y-328733390D01*
X289488690Y-328733390D02*
X289536309Y-328685771D01*
X289536309Y-328685771D02*
X289631547Y-328638152D01*
X289631547Y-328638152D02*
X289822023Y-328638152D01*
X289822023Y-328638152D02*
X289917261Y-328685771D01*
X290107738Y-329400057D02*
X290869642Y-329400057D01*
X291536309Y-328304819D02*
X291345833Y-328304819D01*
X291345833Y-328304819D02*
X291250595Y-328352438D01*
X291250595Y-328352438D02*
X291202976Y-328400057D01*
X291202976Y-328400057D02*
X291107738Y-328542914D01*
X291107738Y-328542914D02*
X291060119Y-328733390D01*
X291060119Y-328733390D02*
X291060119Y-329114342D01*
X291060119Y-329114342D02*
X291107738Y-329209580D01*
X291107738Y-329209580D02*
X291155357Y-329257200D01*
X291155357Y-329257200D02*
X291250595Y-329304819D01*
X291250595Y-329304819D02*
X291441071Y-329304819D01*
X291441071Y-329304819D02*
X291536309Y-329257200D01*
X291536309Y-329257200D02*
X291583928Y-329209580D01*
X291583928Y-329209580D02*
X291631547Y-329114342D01*
X291631547Y-329114342D02*
X291631547Y-328876247D01*
X291631547Y-328876247D02*
X291583928Y-328781009D01*
X291583928Y-328781009D02*
X291536309Y-328733390D01*
X291536309Y-328733390D02*
X291441071Y-328685771D01*
X291441071Y-328685771D02*
X291250595Y-328685771D01*
X291250595Y-328685771D02*
X291155357Y-328733390D01*
X291155357Y-328733390D02*
X291107738Y-328781009D01*
X291107738Y-328781009D02*
X291060119Y-328876247D01*
X292107738Y-329304819D02*
X292298214Y-329304819D01*
X292298214Y-329304819D02*
X292393452Y-329257200D01*
X292393452Y-329257200D02*
X292441071Y-329209580D01*
X292441071Y-329209580D02*
X292536309Y-329066723D01*
X292536309Y-329066723D02*
X292583928Y-328876247D01*
X292583928Y-328876247D02*
X292583928Y-328495295D01*
X292583928Y-328495295D02*
X292536309Y-328400057D01*
X292536309Y-328400057D02*
X292488690Y-328352438D01*
X292488690Y-328352438D02*
X292393452Y-328304819D01*
X292393452Y-328304819D02*
X292202976Y-328304819D01*
X292202976Y-328304819D02*
X292107738Y-328352438D01*
X292107738Y-328352438D02*
X292060119Y-328400057D01*
X292060119Y-328400057D02*
X292012500Y-328495295D01*
X292012500Y-328495295D02*
X292012500Y-328733390D01*
X292012500Y-328733390D02*
X292060119Y-328828628D01*
X292060119Y-328828628D02*
X292107738Y-328876247D01*
X292107738Y-328876247D02*
X292202976Y-328923866D01*
X292202976Y-328923866D02*
X292393452Y-328923866D01*
X292393452Y-328923866D02*
X292488690Y-328876247D01*
X292488690Y-328876247D02*
X292536309Y-328828628D01*
X292536309Y-328828628D02*
X292583928Y-328733390D01*
X265152381Y-253104819D02*
X265152381Y-252104819D01*
X265723809Y-253104819D02*
X265295238Y-252533390D01*
X265723809Y-252104819D02*
X265152381Y-252676247D01*
X266580952Y-253057200D02*
X266485714Y-253104819D01*
X266485714Y-253104819D02*
X266295238Y-253104819D01*
X266295238Y-253104819D02*
X266200000Y-253057200D01*
X266200000Y-253057200D02*
X266152381Y-253009580D01*
X266152381Y-253009580D02*
X266104762Y-252914342D01*
X266104762Y-252914342D02*
X266104762Y-252628628D01*
X266104762Y-252628628D02*
X266152381Y-252533390D01*
X266152381Y-252533390D02*
X266200000Y-252485771D01*
X266200000Y-252485771D02*
X266295238Y-252438152D01*
X266295238Y-252438152D02*
X266485714Y-252438152D01*
X266485714Y-252438152D02*
X266580952Y-252485771D01*
X266771429Y-253200057D02*
X267533333Y-253200057D01*
X267914286Y-252533390D02*
X267819048Y-252485771D01*
X267819048Y-252485771D02*
X267771429Y-252438152D01*
X267771429Y-252438152D02*
X267723810Y-252342914D01*
X267723810Y-252342914D02*
X267723810Y-252295295D01*
X267723810Y-252295295D02*
X267771429Y-252200057D01*
X267771429Y-252200057D02*
X267819048Y-252152438D01*
X267819048Y-252152438D02*
X267914286Y-252104819D01*
X267914286Y-252104819D02*
X268104762Y-252104819D01*
X268104762Y-252104819D02*
X268200000Y-252152438D01*
X268200000Y-252152438D02*
X268247619Y-252200057D01*
X268247619Y-252200057D02*
X268295238Y-252295295D01*
X268295238Y-252295295D02*
X268295238Y-252342914D01*
X268295238Y-252342914D02*
X268247619Y-252438152D01*
X268247619Y-252438152D02*
X268200000Y-252485771D01*
X268200000Y-252485771D02*
X268104762Y-252533390D01*
X268104762Y-252533390D02*
X267914286Y-252533390D01*
X267914286Y-252533390D02*
X267819048Y-252581009D01*
X267819048Y-252581009D02*
X267771429Y-252628628D01*
X267771429Y-252628628D02*
X267723810Y-252723866D01*
X267723810Y-252723866D02*
X267723810Y-252914342D01*
X267723810Y-252914342D02*
X267771429Y-253009580D01*
X267771429Y-253009580D02*
X267819048Y-253057200D01*
X267819048Y-253057200D02*
X267914286Y-253104819D01*
X267914286Y-253104819D02*
X268104762Y-253104819D01*
X268104762Y-253104819D02*
X268200000Y-253057200D01*
X268200000Y-253057200D02*
X268247619Y-253009580D01*
X268247619Y-253009580D02*
X268295238Y-252914342D01*
X268295238Y-252914342D02*
X268295238Y-252723866D01*
X268295238Y-252723866D02*
X268247619Y-252628628D01*
X268247619Y-252628628D02*
X268200000Y-252581009D01*
X268200000Y-252581009D02*
X268104762Y-252533390D01*
X131802381Y-253104819D02*
X131802381Y-252104819D01*
X132373809Y-253104819D02*
X131945238Y-252533390D01*
X132373809Y-252104819D02*
X131802381Y-252676247D01*
X133230952Y-253057200D02*
X133135714Y-253104819D01*
X133135714Y-253104819D02*
X132945238Y-253104819D01*
X132945238Y-253104819D02*
X132850000Y-253057200D01*
X132850000Y-253057200D02*
X132802381Y-253009580D01*
X132802381Y-253009580D02*
X132754762Y-252914342D01*
X132754762Y-252914342D02*
X132754762Y-252628628D01*
X132754762Y-252628628D02*
X132802381Y-252533390D01*
X132802381Y-252533390D02*
X132850000Y-252485771D01*
X132850000Y-252485771D02*
X132945238Y-252438152D01*
X132945238Y-252438152D02*
X133135714Y-252438152D01*
X133135714Y-252438152D02*
X133230952Y-252485771D01*
X133421429Y-253200057D02*
X134183333Y-253200057D01*
X134945238Y-253104819D02*
X134373810Y-253104819D01*
X134659524Y-253104819D02*
X134659524Y-252104819D01*
X134659524Y-252104819D02*
X134564286Y-252247676D01*
X134564286Y-252247676D02*
X134469048Y-252342914D01*
X134469048Y-252342914D02*
X134373810Y-252390533D01*
X250388690Y-329304819D02*
X250388690Y-328304819D01*
X250960118Y-329304819D02*
X250531547Y-328733390D01*
X250960118Y-328304819D02*
X250388690Y-328876247D01*
X251817261Y-329257200D02*
X251722023Y-329304819D01*
X251722023Y-329304819D02*
X251531547Y-329304819D01*
X251531547Y-329304819D02*
X251436309Y-329257200D01*
X251436309Y-329257200D02*
X251388690Y-329209580D01*
X251388690Y-329209580D02*
X251341071Y-329114342D01*
X251341071Y-329114342D02*
X251341071Y-328828628D01*
X251341071Y-328828628D02*
X251388690Y-328733390D01*
X251388690Y-328733390D02*
X251436309Y-328685771D01*
X251436309Y-328685771D02*
X251531547Y-328638152D01*
X251531547Y-328638152D02*
X251722023Y-328638152D01*
X251722023Y-328638152D02*
X251817261Y-328685771D01*
X252007738Y-329400057D02*
X252769642Y-329400057D01*
X253436309Y-328304819D02*
X253245833Y-328304819D01*
X253245833Y-328304819D02*
X253150595Y-328352438D01*
X253150595Y-328352438D02*
X253102976Y-328400057D01*
X253102976Y-328400057D02*
X253007738Y-328542914D01*
X253007738Y-328542914D02*
X252960119Y-328733390D01*
X252960119Y-328733390D02*
X252960119Y-329114342D01*
X252960119Y-329114342D02*
X253007738Y-329209580D01*
X253007738Y-329209580D02*
X253055357Y-329257200D01*
X253055357Y-329257200D02*
X253150595Y-329304819D01*
X253150595Y-329304819D02*
X253341071Y-329304819D01*
X253341071Y-329304819D02*
X253436309Y-329257200D01*
X253436309Y-329257200D02*
X253483928Y-329209580D01*
X253483928Y-329209580D02*
X253531547Y-329114342D01*
X253531547Y-329114342D02*
X253531547Y-328876247D01*
X253531547Y-328876247D02*
X253483928Y-328781009D01*
X253483928Y-328781009D02*
X253436309Y-328733390D01*
X253436309Y-328733390D02*
X253341071Y-328685771D01*
X253341071Y-328685771D02*
X253150595Y-328685771D01*
X253150595Y-328685771D02*
X253055357Y-328733390D01*
X253055357Y-328733390D02*
X253007738Y-328781009D01*
X253007738Y-328781009D02*
X252960119Y-328876247D01*
X253864881Y-328304819D02*
X254531547Y-328304819D01*
X254531547Y-328304819D02*
X254102976Y-329304819D01*
X264676190Y-272154819D02*
X264676190Y-271154819D01*
X265247618Y-272154819D02*
X264819047Y-271583390D01*
X265247618Y-271154819D02*
X264676190Y-271726247D01*
X266104761Y-272107200D02*
X266009523Y-272154819D01*
X266009523Y-272154819D02*
X265819047Y-272154819D01*
X265819047Y-272154819D02*
X265723809Y-272107200D01*
X265723809Y-272107200D02*
X265676190Y-272059580D01*
X265676190Y-272059580D02*
X265628571Y-271964342D01*
X265628571Y-271964342D02*
X265628571Y-271678628D01*
X265628571Y-271678628D02*
X265676190Y-271583390D01*
X265676190Y-271583390D02*
X265723809Y-271535771D01*
X265723809Y-271535771D02*
X265819047Y-271488152D01*
X265819047Y-271488152D02*
X266009523Y-271488152D01*
X266009523Y-271488152D02*
X266104761Y-271535771D01*
X266295238Y-272250057D02*
X267057142Y-272250057D01*
X267247619Y-271250057D02*
X267295238Y-271202438D01*
X267295238Y-271202438D02*
X267390476Y-271154819D01*
X267390476Y-271154819D02*
X267628571Y-271154819D01*
X267628571Y-271154819D02*
X267723809Y-271202438D01*
X267723809Y-271202438D02*
X267771428Y-271250057D01*
X267771428Y-271250057D02*
X267819047Y-271345295D01*
X267819047Y-271345295D02*
X267819047Y-271440533D01*
X267819047Y-271440533D02*
X267771428Y-271583390D01*
X267771428Y-271583390D02*
X267200000Y-272154819D01*
X267200000Y-272154819D02*
X267819047Y-272154819D01*
X268200000Y-271250057D02*
X268247619Y-271202438D01*
X268247619Y-271202438D02*
X268342857Y-271154819D01*
X268342857Y-271154819D02*
X268580952Y-271154819D01*
X268580952Y-271154819D02*
X268676190Y-271202438D01*
X268676190Y-271202438D02*
X268723809Y-271250057D01*
X268723809Y-271250057D02*
X268771428Y-271345295D01*
X268771428Y-271345295D02*
X268771428Y-271440533D01*
X268771428Y-271440533D02*
X268723809Y-271583390D01*
X268723809Y-271583390D02*
X268152381Y-272154819D01*
X268152381Y-272154819D02*
X268771428Y-272154819D01*
X369451190Y-291204819D02*
X369451190Y-290204819D01*
X370022618Y-291204819D02*
X369594047Y-290633390D01*
X370022618Y-290204819D02*
X369451190Y-290776247D01*
X370879761Y-291157200D02*
X370784523Y-291204819D01*
X370784523Y-291204819D02*
X370594047Y-291204819D01*
X370594047Y-291204819D02*
X370498809Y-291157200D01*
X370498809Y-291157200D02*
X370451190Y-291109580D01*
X370451190Y-291109580D02*
X370403571Y-291014342D01*
X370403571Y-291014342D02*
X370403571Y-290728628D01*
X370403571Y-290728628D02*
X370451190Y-290633390D01*
X370451190Y-290633390D02*
X370498809Y-290585771D01*
X370498809Y-290585771D02*
X370594047Y-290538152D01*
X370594047Y-290538152D02*
X370784523Y-290538152D01*
X370784523Y-290538152D02*
X370879761Y-290585771D01*
X371070238Y-291300057D02*
X371832142Y-291300057D01*
X372498809Y-290538152D02*
X372498809Y-291204819D01*
X372260714Y-290157200D02*
X372022619Y-290871485D01*
X372022619Y-290871485D02*
X372641666Y-290871485D01*
X372927381Y-290204819D02*
X373546428Y-290204819D01*
X373546428Y-290204819D02*
X373213095Y-290585771D01*
X373213095Y-290585771D02*
X373355952Y-290585771D01*
X373355952Y-290585771D02*
X373451190Y-290633390D01*
X373451190Y-290633390D02*
X373498809Y-290681009D01*
X373498809Y-290681009D02*
X373546428Y-290776247D01*
X373546428Y-290776247D02*
X373546428Y-291014342D01*
X373546428Y-291014342D02*
X373498809Y-291109580D01*
X373498809Y-291109580D02*
X373451190Y-291157200D01*
X373451190Y-291157200D02*
X373355952Y-291204819D01*
X373355952Y-291204819D02*
X373070238Y-291204819D01*
X373070238Y-291204819D02*
X372975000Y-291157200D01*
X372975000Y-291157200D02*
X372927381Y-291109580D01*
X302776190Y-272154819D02*
X302776190Y-271154819D01*
X303347618Y-272154819D02*
X302919047Y-271583390D01*
X303347618Y-271154819D02*
X302776190Y-271726247D01*
X304204761Y-272107200D02*
X304109523Y-272154819D01*
X304109523Y-272154819D02*
X303919047Y-272154819D01*
X303919047Y-272154819D02*
X303823809Y-272107200D01*
X303823809Y-272107200D02*
X303776190Y-272059580D01*
X303776190Y-272059580D02*
X303728571Y-271964342D01*
X303728571Y-271964342D02*
X303728571Y-271678628D01*
X303728571Y-271678628D02*
X303776190Y-271583390D01*
X303776190Y-271583390D02*
X303823809Y-271535771D01*
X303823809Y-271535771D02*
X303919047Y-271488152D01*
X303919047Y-271488152D02*
X304109523Y-271488152D01*
X304109523Y-271488152D02*
X304204761Y-271535771D01*
X304395238Y-272250057D02*
X305157142Y-272250057D01*
X305347619Y-271250057D02*
X305395238Y-271202438D01*
X305395238Y-271202438D02*
X305490476Y-271154819D01*
X305490476Y-271154819D02*
X305728571Y-271154819D01*
X305728571Y-271154819D02*
X305823809Y-271202438D01*
X305823809Y-271202438D02*
X305871428Y-271250057D01*
X305871428Y-271250057D02*
X305919047Y-271345295D01*
X305919047Y-271345295D02*
X305919047Y-271440533D01*
X305919047Y-271440533D02*
X305871428Y-271583390D01*
X305871428Y-271583390D02*
X305300000Y-272154819D01*
X305300000Y-272154819D02*
X305919047Y-272154819D01*
X306776190Y-271488152D02*
X306776190Y-272154819D01*
X306538095Y-271107200D02*
X306300000Y-271821485D01*
X306300000Y-271821485D02*
X306919047Y-271821485D01*
X317063690Y-310254819D02*
X317063690Y-309254819D01*
X317635118Y-310254819D02*
X317206547Y-309683390D01*
X317635118Y-309254819D02*
X317063690Y-309826247D01*
X318492261Y-310207200D02*
X318397023Y-310254819D01*
X318397023Y-310254819D02*
X318206547Y-310254819D01*
X318206547Y-310254819D02*
X318111309Y-310207200D01*
X318111309Y-310207200D02*
X318063690Y-310159580D01*
X318063690Y-310159580D02*
X318016071Y-310064342D01*
X318016071Y-310064342D02*
X318016071Y-309778628D01*
X318016071Y-309778628D02*
X318063690Y-309683390D01*
X318063690Y-309683390D02*
X318111309Y-309635771D01*
X318111309Y-309635771D02*
X318206547Y-309588152D01*
X318206547Y-309588152D02*
X318397023Y-309588152D01*
X318397023Y-309588152D02*
X318492261Y-309635771D01*
X318682738Y-310350057D02*
X319444642Y-310350057D01*
X320158928Y-309254819D02*
X319682738Y-309254819D01*
X319682738Y-309254819D02*
X319635119Y-309731009D01*
X319635119Y-309731009D02*
X319682738Y-309683390D01*
X319682738Y-309683390D02*
X319777976Y-309635771D01*
X319777976Y-309635771D02*
X320016071Y-309635771D01*
X320016071Y-309635771D02*
X320111309Y-309683390D01*
X320111309Y-309683390D02*
X320158928Y-309731009D01*
X320158928Y-309731009D02*
X320206547Y-309826247D01*
X320206547Y-309826247D02*
X320206547Y-310064342D01*
X320206547Y-310064342D02*
X320158928Y-310159580D01*
X320158928Y-310159580D02*
X320111309Y-310207200D01*
X320111309Y-310207200D02*
X320016071Y-310254819D01*
X320016071Y-310254819D02*
X319777976Y-310254819D01*
X319777976Y-310254819D02*
X319682738Y-310207200D01*
X319682738Y-310207200D02*
X319635119Y-310159580D01*
X321063690Y-309254819D02*
X320873214Y-309254819D01*
X320873214Y-309254819D02*
X320777976Y-309302438D01*
X320777976Y-309302438D02*
X320730357Y-309350057D01*
X320730357Y-309350057D02*
X320635119Y-309492914D01*
X320635119Y-309492914D02*
X320587500Y-309683390D01*
X320587500Y-309683390D02*
X320587500Y-310064342D01*
X320587500Y-310064342D02*
X320635119Y-310159580D01*
X320635119Y-310159580D02*
X320682738Y-310207200D01*
X320682738Y-310207200D02*
X320777976Y-310254819D01*
X320777976Y-310254819D02*
X320968452Y-310254819D01*
X320968452Y-310254819D02*
X321063690Y-310207200D01*
X321063690Y-310207200D02*
X321111309Y-310159580D01*
X321111309Y-310159580D02*
X321158928Y-310064342D01*
X321158928Y-310064342D02*
X321158928Y-309826247D01*
X321158928Y-309826247D02*
X321111309Y-309731009D01*
X321111309Y-309731009D02*
X321063690Y-309683390D01*
X321063690Y-309683390D02*
X320968452Y-309635771D01*
X320968452Y-309635771D02*
X320777976Y-309635771D01*
X320777976Y-309635771D02*
X320682738Y-309683390D01*
X320682738Y-309683390D02*
X320635119Y-309731009D01*
X320635119Y-309731009D02*
X320587500Y-309826247D01*
X183713690Y-310254819D02*
X183713690Y-309254819D01*
X184285118Y-310254819D02*
X183856547Y-309683390D01*
X184285118Y-309254819D02*
X183713690Y-309826247D01*
X185142261Y-310207200D02*
X185047023Y-310254819D01*
X185047023Y-310254819D02*
X184856547Y-310254819D01*
X184856547Y-310254819D02*
X184761309Y-310207200D01*
X184761309Y-310207200D02*
X184713690Y-310159580D01*
X184713690Y-310159580D02*
X184666071Y-310064342D01*
X184666071Y-310064342D02*
X184666071Y-309778628D01*
X184666071Y-309778628D02*
X184713690Y-309683390D01*
X184713690Y-309683390D02*
X184761309Y-309635771D01*
X184761309Y-309635771D02*
X184856547Y-309588152D01*
X184856547Y-309588152D02*
X185047023Y-309588152D01*
X185047023Y-309588152D02*
X185142261Y-309635771D01*
X185332738Y-310350057D02*
X186094642Y-310350057D01*
X186761309Y-309588152D02*
X186761309Y-310254819D01*
X186523214Y-309207200D02*
X186285119Y-309921485D01*
X186285119Y-309921485D02*
X186904166Y-309921485D01*
X187332738Y-310254819D02*
X187523214Y-310254819D01*
X187523214Y-310254819D02*
X187618452Y-310207200D01*
X187618452Y-310207200D02*
X187666071Y-310159580D01*
X187666071Y-310159580D02*
X187761309Y-310016723D01*
X187761309Y-310016723D02*
X187808928Y-309826247D01*
X187808928Y-309826247D02*
X187808928Y-309445295D01*
X187808928Y-309445295D02*
X187761309Y-309350057D01*
X187761309Y-309350057D02*
X187713690Y-309302438D01*
X187713690Y-309302438D02*
X187618452Y-309254819D01*
X187618452Y-309254819D02*
X187427976Y-309254819D01*
X187427976Y-309254819D02*
X187332738Y-309302438D01*
X187332738Y-309302438D02*
X187285119Y-309350057D01*
X187285119Y-309350057D02*
X187237500Y-309445295D01*
X187237500Y-309445295D02*
X187237500Y-309683390D01*
X187237500Y-309683390D02*
X187285119Y-309778628D01*
X187285119Y-309778628D02*
X187332738Y-309826247D01*
X187332738Y-309826247D02*
X187427976Y-309873866D01*
X187427976Y-309873866D02*
X187618452Y-309873866D01*
X187618452Y-309873866D02*
X187713690Y-309826247D01*
X187713690Y-309826247D02*
X187761309Y-309778628D01*
X187761309Y-309778628D02*
X187808928Y-309683390D01*
X174188690Y-329304819D02*
X174188690Y-328304819D01*
X174760118Y-329304819D02*
X174331547Y-328733390D01*
X174760118Y-328304819D02*
X174188690Y-328876247D01*
X175617261Y-329257200D02*
X175522023Y-329304819D01*
X175522023Y-329304819D02*
X175331547Y-329304819D01*
X175331547Y-329304819D02*
X175236309Y-329257200D01*
X175236309Y-329257200D02*
X175188690Y-329209580D01*
X175188690Y-329209580D02*
X175141071Y-329114342D01*
X175141071Y-329114342D02*
X175141071Y-328828628D01*
X175141071Y-328828628D02*
X175188690Y-328733390D01*
X175188690Y-328733390D02*
X175236309Y-328685771D01*
X175236309Y-328685771D02*
X175331547Y-328638152D01*
X175331547Y-328638152D02*
X175522023Y-328638152D01*
X175522023Y-328638152D02*
X175617261Y-328685771D01*
X175807738Y-329400057D02*
X176569642Y-329400057D01*
X177236309Y-328304819D02*
X177045833Y-328304819D01*
X177045833Y-328304819D02*
X176950595Y-328352438D01*
X176950595Y-328352438D02*
X176902976Y-328400057D01*
X176902976Y-328400057D02*
X176807738Y-328542914D01*
X176807738Y-328542914D02*
X176760119Y-328733390D01*
X176760119Y-328733390D02*
X176760119Y-329114342D01*
X176760119Y-329114342D02*
X176807738Y-329209580D01*
X176807738Y-329209580D02*
X176855357Y-329257200D01*
X176855357Y-329257200D02*
X176950595Y-329304819D01*
X176950595Y-329304819D02*
X177141071Y-329304819D01*
X177141071Y-329304819D02*
X177236309Y-329257200D01*
X177236309Y-329257200D02*
X177283928Y-329209580D01*
X177283928Y-329209580D02*
X177331547Y-329114342D01*
X177331547Y-329114342D02*
X177331547Y-328876247D01*
X177331547Y-328876247D02*
X177283928Y-328781009D01*
X177283928Y-328781009D02*
X177236309Y-328733390D01*
X177236309Y-328733390D02*
X177141071Y-328685771D01*
X177141071Y-328685771D02*
X176950595Y-328685771D01*
X176950595Y-328685771D02*
X176855357Y-328733390D01*
X176855357Y-328733390D02*
X176807738Y-328781009D01*
X176807738Y-328781009D02*
X176760119Y-328876247D01*
X177664881Y-328304819D02*
X178283928Y-328304819D01*
X178283928Y-328304819D02*
X177950595Y-328685771D01*
X177950595Y-328685771D02*
X178093452Y-328685771D01*
X178093452Y-328685771D02*
X178188690Y-328733390D01*
X178188690Y-328733390D02*
X178236309Y-328781009D01*
X178236309Y-328781009D02*
X178283928Y-328876247D01*
X178283928Y-328876247D02*
X178283928Y-329114342D01*
X178283928Y-329114342D02*
X178236309Y-329209580D01*
X178236309Y-329209580D02*
X178188690Y-329257200D01*
X178188690Y-329257200D02*
X178093452Y-329304819D01*
X178093452Y-329304819D02*
X177807738Y-329304819D01*
X177807738Y-329304819D02*
X177712500Y-329257200D01*
X177712500Y-329257200D02*
X177664881Y-329209580D01*
X246102381Y-253104819D02*
X246102381Y-252104819D01*
X246673809Y-253104819D02*
X246245238Y-252533390D01*
X246673809Y-252104819D02*
X246102381Y-252676247D01*
X247530952Y-253057200D02*
X247435714Y-253104819D01*
X247435714Y-253104819D02*
X247245238Y-253104819D01*
X247245238Y-253104819D02*
X247150000Y-253057200D01*
X247150000Y-253057200D02*
X247102381Y-253009580D01*
X247102381Y-253009580D02*
X247054762Y-252914342D01*
X247054762Y-252914342D02*
X247054762Y-252628628D01*
X247054762Y-252628628D02*
X247102381Y-252533390D01*
X247102381Y-252533390D02*
X247150000Y-252485771D01*
X247150000Y-252485771D02*
X247245238Y-252438152D01*
X247245238Y-252438152D02*
X247435714Y-252438152D01*
X247435714Y-252438152D02*
X247530952Y-252485771D01*
X247721429Y-253200057D02*
X248483333Y-253200057D01*
X248626191Y-252104819D02*
X249292857Y-252104819D01*
X249292857Y-252104819D02*
X248864286Y-253104819D01*
X269438690Y-329304819D02*
X269438690Y-328304819D01*
X270010118Y-329304819D02*
X269581547Y-328733390D01*
X270010118Y-328304819D02*
X269438690Y-328876247D01*
X270867261Y-329257200D02*
X270772023Y-329304819D01*
X270772023Y-329304819D02*
X270581547Y-329304819D01*
X270581547Y-329304819D02*
X270486309Y-329257200D01*
X270486309Y-329257200D02*
X270438690Y-329209580D01*
X270438690Y-329209580D02*
X270391071Y-329114342D01*
X270391071Y-329114342D02*
X270391071Y-328828628D01*
X270391071Y-328828628D02*
X270438690Y-328733390D01*
X270438690Y-328733390D02*
X270486309Y-328685771D01*
X270486309Y-328685771D02*
X270581547Y-328638152D01*
X270581547Y-328638152D02*
X270772023Y-328638152D01*
X270772023Y-328638152D02*
X270867261Y-328685771D01*
X271057738Y-329400057D02*
X271819642Y-329400057D01*
X272486309Y-328304819D02*
X272295833Y-328304819D01*
X272295833Y-328304819D02*
X272200595Y-328352438D01*
X272200595Y-328352438D02*
X272152976Y-328400057D01*
X272152976Y-328400057D02*
X272057738Y-328542914D01*
X272057738Y-328542914D02*
X272010119Y-328733390D01*
X272010119Y-328733390D02*
X272010119Y-329114342D01*
X272010119Y-329114342D02*
X272057738Y-329209580D01*
X272057738Y-329209580D02*
X272105357Y-329257200D01*
X272105357Y-329257200D02*
X272200595Y-329304819D01*
X272200595Y-329304819D02*
X272391071Y-329304819D01*
X272391071Y-329304819D02*
X272486309Y-329257200D01*
X272486309Y-329257200D02*
X272533928Y-329209580D01*
X272533928Y-329209580D02*
X272581547Y-329114342D01*
X272581547Y-329114342D02*
X272581547Y-328876247D01*
X272581547Y-328876247D02*
X272533928Y-328781009D01*
X272533928Y-328781009D02*
X272486309Y-328733390D01*
X272486309Y-328733390D02*
X272391071Y-328685771D01*
X272391071Y-328685771D02*
X272200595Y-328685771D01*
X272200595Y-328685771D02*
X272105357Y-328733390D01*
X272105357Y-328733390D02*
X272057738Y-328781009D01*
X272057738Y-328781009D02*
X272010119Y-328876247D01*
X273152976Y-328733390D02*
X273057738Y-328685771D01*
X273057738Y-328685771D02*
X273010119Y-328638152D01*
X273010119Y-328638152D02*
X272962500Y-328542914D01*
X272962500Y-328542914D02*
X272962500Y-328495295D01*
X272962500Y-328495295D02*
X273010119Y-328400057D01*
X273010119Y-328400057D02*
X273057738Y-328352438D01*
X273057738Y-328352438D02*
X273152976Y-328304819D01*
X273152976Y-328304819D02*
X273343452Y-328304819D01*
X273343452Y-328304819D02*
X273438690Y-328352438D01*
X273438690Y-328352438D02*
X273486309Y-328400057D01*
X273486309Y-328400057D02*
X273533928Y-328495295D01*
X273533928Y-328495295D02*
X273533928Y-328542914D01*
X273533928Y-328542914D02*
X273486309Y-328638152D01*
X273486309Y-328638152D02*
X273438690Y-328685771D01*
X273438690Y-328685771D02*
X273343452Y-328733390D01*
X273343452Y-328733390D02*
X273152976Y-328733390D01*
X273152976Y-328733390D02*
X273057738Y-328781009D01*
X273057738Y-328781009D02*
X273010119Y-328828628D01*
X273010119Y-328828628D02*
X272962500Y-328923866D01*
X272962500Y-328923866D02*
X272962500Y-329114342D01*
X272962500Y-329114342D02*
X273010119Y-329209580D01*
X273010119Y-329209580D02*
X273057738Y-329257200D01*
X273057738Y-329257200D02*
X273152976Y-329304819D01*
X273152976Y-329304819D02*
X273343452Y-329304819D01*
X273343452Y-329304819D02*
X273438690Y-329257200D01*
X273438690Y-329257200D02*
X273486309Y-329209580D01*
X273486309Y-329209580D02*
X273533928Y-329114342D01*
X273533928Y-329114342D02*
X273533928Y-328923866D01*
X273533928Y-328923866D02*
X273486309Y-328828628D01*
X273486309Y-328828628D02*
X273438690Y-328781009D01*
X273438690Y-328781009D02*
X273343452Y-328733390D01*
X436126190Y-291204819D02*
X436126190Y-290204819D01*
X436697618Y-291204819D02*
X436269047Y-290633390D01*
X436697618Y-290204819D02*
X436126190Y-290776247D01*
X437554761Y-291157200D02*
X437459523Y-291204819D01*
X437459523Y-291204819D02*
X437269047Y-291204819D01*
X437269047Y-291204819D02*
X437173809Y-291157200D01*
X437173809Y-291157200D02*
X437126190Y-291109580D01*
X437126190Y-291109580D02*
X437078571Y-291014342D01*
X437078571Y-291014342D02*
X437078571Y-290728628D01*
X437078571Y-290728628D02*
X437126190Y-290633390D01*
X437126190Y-290633390D02*
X437173809Y-290585771D01*
X437173809Y-290585771D02*
X437269047Y-290538152D01*
X437269047Y-290538152D02*
X437459523Y-290538152D01*
X437459523Y-290538152D02*
X437554761Y-290585771D01*
X437745238Y-291300057D02*
X438507142Y-291300057D01*
X439173809Y-290538152D02*
X439173809Y-291204819D01*
X438935714Y-290157200D02*
X438697619Y-290871485D01*
X438697619Y-290871485D02*
X439316666Y-290871485D01*
X440126190Y-290204819D02*
X439935714Y-290204819D01*
X439935714Y-290204819D02*
X439840476Y-290252438D01*
X439840476Y-290252438D02*
X439792857Y-290300057D01*
X439792857Y-290300057D02*
X439697619Y-290442914D01*
X439697619Y-290442914D02*
X439650000Y-290633390D01*
X439650000Y-290633390D02*
X439650000Y-291014342D01*
X439650000Y-291014342D02*
X439697619Y-291109580D01*
X439697619Y-291109580D02*
X439745238Y-291157200D01*
X439745238Y-291157200D02*
X439840476Y-291204819D01*
X439840476Y-291204819D02*
X440030952Y-291204819D01*
X440030952Y-291204819D02*
X440126190Y-291157200D01*
X440126190Y-291157200D02*
X440173809Y-291109580D01*
X440173809Y-291109580D02*
X440221428Y-291014342D01*
X440221428Y-291014342D02*
X440221428Y-290776247D01*
X440221428Y-290776247D02*
X440173809Y-290681009D01*
X440173809Y-290681009D02*
X440126190Y-290633390D01*
X440126190Y-290633390D02*
X440030952Y-290585771D01*
X440030952Y-290585771D02*
X439840476Y-290585771D01*
X439840476Y-290585771D02*
X439745238Y-290633390D01*
X439745238Y-290633390D02*
X439697619Y-290681009D01*
X439697619Y-290681009D02*
X439650000Y-290776247D01*
X340876190Y-272154819D02*
X340876190Y-271154819D01*
X341447618Y-272154819D02*
X341019047Y-271583390D01*
X341447618Y-271154819D02*
X340876190Y-271726247D01*
X342304761Y-272107200D02*
X342209523Y-272154819D01*
X342209523Y-272154819D02*
X342019047Y-272154819D01*
X342019047Y-272154819D02*
X341923809Y-272107200D01*
X341923809Y-272107200D02*
X341876190Y-272059580D01*
X341876190Y-272059580D02*
X341828571Y-271964342D01*
X341828571Y-271964342D02*
X341828571Y-271678628D01*
X341828571Y-271678628D02*
X341876190Y-271583390D01*
X341876190Y-271583390D02*
X341923809Y-271535771D01*
X341923809Y-271535771D02*
X342019047Y-271488152D01*
X342019047Y-271488152D02*
X342209523Y-271488152D01*
X342209523Y-271488152D02*
X342304761Y-271535771D01*
X342495238Y-272250057D02*
X343257142Y-272250057D01*
X343447619Y-271250057D02*
X343495238Y-271202438D01*
X343495238Y-271202438D02*
X343590476Y-271154819D01*
X343590476Y-271154819D02*
X343828571Y-271154819D01*
X343828571Y-271154819D02*
X343923809Y-271202438D01*
X343923809Y-271202438D02*
X343971428Y-271250057D01*
X343971428Y-271250057D02*
X344019047Y-271345295D01*
X344019047Y-271345295D02*
X344019047Y-271440533D01*
X344019047Y-271440533D02*
X343971428Y-271583390D01*
X343971428Y-271583390D02*
X343400000Y-272154819D01*
X343400000Y-272154819D02*
X344019047Y-272154819D01*
X344876190Y-271154819D02*
X344685714Y-271154819D01*
X344685714Y-271154819D02*
X344590476Y-271202438D01*
X344590476Y-271202438D02*
X344542857Y-271250057D01*
X344542857Y-271250057D02*
X344447619Y-271392914D01*
X344447619Y-271392914D02*
X344400000Y-271583390D01*
X344400000Y-271583390D02*
X344400000Y-271964342D01*
X344400000Y-271964342D02*
X344447619Y-272059580D01*
X344447619Y-272059580D02*
X344495238Y-272107200D01*
X344495238Y-272107200D02*
X344590476Y-272154819D01*
X344590476Y-272154819D02*
X344780952Y-272154819D01*
X344780952Y-272154819D02*
X344876190Y-272107200D01*
X344876190Y-272107200D02*
X344923809Y-272059580D01*
X344923809Y-272059580D02*
X344971428Y-271964342D01*
X344971428Y-271964342D02*
X344971428Y-271726247D01*
X344971428Y-271726247D02*
X344923809Y-271631009D01*
X344923809Y-271631009D02*
X344876190Y-271583390D01*
X344876190Y-271583390D02*
X344780952Y-271535771D01*
X344780952Y-271535771D02*
X344590476Y-271535771D01*
X344590476Y-271535771D02*
X344495238Y-271583390D01*
X344495238Y-271583390D02*
X344447619Y-271631009D01*
X344447619Y-271631009D02*
X344400000Y-271726247D01*
X480568095Y-227564819D02*
X480568095Y-226564819D01*
X480568095Y-227041009D02*
X481139523Y-227041009D01*
X481139523Y-227564819D02*
X481139523Y-226564819D01*
X481568095Y-226660057D02*
X481615714Y-226612438D01*
X481615714Y-226612438D02*
X481710952Y-226564819D01*
X481710952Y-226564819D02*
X481949047Y-226564819D01*
X481949047Y-226564819D02*
X482044285Y-226612438D01*
X482044285Y-226612438D02*
X482091904Y-226660057D01*
X482091904Y-226660057D02*
X482139523Y-226755295D01*
X482139523Y-226755295D02*
X482139523Y-226850533D01*
X482139523Y-226850533D02*
X482091904Y-226993390D01*
X482091904Y-226993390D02*
X481520476Y-227564819D01*
X481520476Y-227564819D02*
X482139523Y-227564819D01*
X231338690Y-329304819D02*
X231338690Y-328304819D01*
X231910118Y-329304819D02*
X231481547Y-328733390D01*
X231910118Y-328304819D02*
X231338690Y-328876247D01*
X232767261Y-329257200D02*
X232672023Y-329304819D01*
X232672023Y-329304819D02*
X232481547Y-329304819D01*
X232481547Y-329304819D02*
X232386309Y-329257200D01*
X232386309Y-329257200D02*
X232338690Y-329209580D01*
X232338690Y-329209580D02*
X232291071Y-329114342D01*
X232291071Y-329114342D02*
X232291071Y-328828628D01*
X232291071Y-328828628D02*
X232338690Y-328733390D01*
X232338690Y-328733390D02*
X232386309Y-328685771D01*
X232386309Y-328685771D02*
X232481547Y-328638152D01*
X232481547Y-328638152D02*
X232672023Y-328638152D01*
X232672023Y-328638152D02*
X232767261Y-328685771D01*
X232957738Y-329400057D02*
X233719642Y-329400057D01*
X234386309Y-328304819D02*
X234195833Y-328304819D01*
X234195833Y-328304819D02*
X234100595Y-328352438D01*
X234100595Y-328352438D02*
X234052976Y-328400057D01*
X234052976Y-328400057D02*
X233957738Y-328542914D01*
X233957738Y-328542914D02*
X233910119Y-328733390D01*
X233910119Y-328733390D02*
X233910119Y-329114342D01*
X233910119Y-329114342D02*
X233957738Y-329209580D01*
X233957738Y-329209580D02*
X234005357Y-329257200D01*
X234005357Y-329257200D02*
X234100595Y-329304819D01*
X234100595Y-329304819D02*
X234291071Y-329304819D01*
X234291071Y-329304819D02*
X234386309Y-329257200D01*
X234386309Y-329257200D02*
X234433928Y-329209580D01*
X234433928Y-329209580D02*
X234481547Y-329114342D01*
X234481547Y-329114342D02*
X234481547Y-328876247D01*
X234481547Y-328876247D02*
X234433928Y-328781009D01*
X234433928Y-328781009D02*
X234386309Y-328733390D01*
X234386309Y-328733390D02*
X234291071Y-328685771D01*
X234291071Y-328685771D02*
X234100595Y-328685771D01*
X234100595Y-328685771D02*
X234005357Y-328733390D01*
X234005357Y-328733390D02*
X233957738Y-328781009D01*
X233957738Y-328781009D02*
X233910119Y-328876247D01*
X235338690Y-328304819D02*
X235148214Y-328304819D01*
X235148214Y-328304819D02*
X235052976Y-328352438D01*
X235052976Y-328352438D02*
X235005357Y-328400057D01*
X235005357Y-328400057D02*
X234910119Y-328542914D01*
X234910119Y-328542914D02*
X234862500Y-328733390D01*
X234862500Y-328733390D02*
X234862500Y-329114342D01*
X234862500Y-329114342D02*
X234910119Y-329209580D01*
X234910119Y-329209580D02*
X234957738Y-329257200D01*
X234957738Y-329257200D02*
X235052976Y-329304819D01*
X235052976Y-329304819D02*
X235243452Y-329304819D01*
X235243452Y-329304819D02*
X235338690Y-329257200D01*
X235338690Y-329257200D02*
X235386309Y-329209580D01*
X235386309Y-329209580D02*
X235433928Y-329114342D01*
X235433928Y-329114342D02*
X235433928Y-328876247D01*
X235433928Y-328876247D02*
X235386309Y-328781009D01*
X235386309Y-328781009D02*
X235338690Y-328733390D01*
X235338690Y-328733390D02*
X235243452Y-328685771D01*
X235243452Y-328685771D02*
X235052976Y-328685771D01*
X235052976Y-328685771D02*
X234957738Y-328733390D01*
X234957738Y-328733390D02*
X234910119Y-328781009D01*
X234910119Y-328781009D02*
X234862500Y-328876247D01*
X355163690Y-310254819D02*
X355163690Y-309254819D01*
X355735118Y-310254819D02*
X355306547Y-309683390D01*
X355735118Y-309254819D02*
X355163690Y-309826247D01*
X356592261Y-310207200D02*
X356497023Y-310254819D01*
X356497023Y-310254819D02*
X356306547Y-310254819D01*
X356306547Y-310254819D02*
X356211309Y-310207200D01*
X356211309Y-310207200D02*
X356163690Y-310159580D01*
X356163690Y-310159580D02*
X356116071Y-310064342D01*
X356116071Y-310064342D02*
X356116071Y-309778628D01*
X356116071Y-309778628D02*
X356163690Y-309683390D01*
X356163690Y-309683390D02*
X356211309Y-309635771D01*
X356211309Y-309635771D02*
X356306547Y-309588152D01*
X356306547Y-309588152D02*
X356497023Y-309588152D01*
X356497023Y-309588152D02*
X356592261Y-309635771D01*
X356782738Y-310350057D02*
X357544642Y-310350057D01*
X358258928Y-309254819D02*
X357782738Y-309254819D01*
X357782738Y-309254819D02*
X357735119Y-309731009D01*
X357735119Y-309731009D02*
X357782738Y-309683390D01*
X357782738Y-309683390D02*
X357877976Y-309635771D01*
X357877976Y-309635771D02*
X358116071Y-309635771D01*
X358116071Y-309635771D02*
X358211309Y-309683390D01*
X358211309Y-309683390D02*
X358258928Y-309731009D01*
X358258928Y-309731009D02*
X358306547Y-309826247D01*
X358306547Y-309826247D02*
X358306547Y-310064342D01*
X358306547Y-310064342D02*
X358258928Y-310159580D01*
X358258928Y-310159580D02*
X358211309Y-310207200D01*
X358211309Y-310207200D02*
X358116071Y-310254819D01*
X358116071Y-310254819D02*
X357877976Y-310254819D01*
X357877976Y-310254819D02*
X357782738Y-310207200D01*
X357782738Y-310207200D02*
X357735119Y-310159580D01*
X358877976Y-309683390D02*
X358782738Y-309635771D01*
X358782738Y-309635771D02*
X358735119Y-309588152D01*
X358735119Y-309588152D02*
X358687500Y-309492914D01*
X358687500Y-309492914D02*
X358687500Y-309445295D01*
X358687500Y-309445295D02*
X358735119Y-309350057D01*
X358735119Y-309350057D02*
X358782738Y-309302438D01*
X358782738Y-309302438D02*
X358877976Y-309254819D01*
X358877976Y-309254819D02*
X359068452Y-309254819D01*
X359068452Y-309254819D02*
X359163690Y-309302438D01*
X359163690Y-309302438D02*
X359211309Y-309350057D01*
X359211309Y-309350057D02*
X359258928Y-309445295D01*
X359258928Y-309445295D02*
X359258928Y-309492914D01*
X359258928Y-309492914D02*
X359211309Y-309588152D01*
X359211309Y-309588152D02*
X359163690Y-309635771D01*
X359163690Y-309635771D02*
X359068452Y-309683390D01*
X359068452Y-309683390D02*
X358877976Y-309683390D01*
X358877976Y-309683390D02*
X358782738Y-309731009D01*
X358782738Y-309731009D02*
X358735119Y-309778628D01*
X358735119Y-309778628D02*
X358687500Y-309873866D01*
X358687500Y-309873866D02*
X358687500Y-310064342D01*
X358687500Y-310064342D02*
X358735119Y-310159580D01*
X358735119Y-310159580D02*
X358782738Y-310207200D01*
X358782738Y-310207200D02*
X358877976Y-310254819D01*
X358877976Y-310254819D02*
X359068452Y-310254819D01*
X359068452Y-310254819D02*
X359163690Y-310207200D01*
X359163690Y-310207200D02*
X359211309Y-310159580D01*
X359211309Y-310159580D02*
X359258928Y-310064342D01*
X359258928Y-310064342D02*
X359258928Y-309873866D01*
X359258928Y-309873866D02*
X359211309Y-309778628D01*
X359211309Y-309778628D02*
X359163690Y-309731009D01*
X359163690Y-309731009D02*
X359068452Y-309683390D01*
X217051190Y-291204819D02*
X217051190Y-290204819D01*
X217622618Y-291204819D02*
X217194047Y-290633390D01*
X217622618Y-290204819D02*
X217051190Y-290776247D01*
X218479761Y-291157200D02*
X218384523Y-291204819D01*
X218384523Y-291204819D02*
X218194047Y-291204819D01*
X218194047Y-291204819D02*
X218098809Y-291157200D01*
X218098809Y-291157200D02*
X218051190Y-291109580D01*
X218051190Y-291109580D02*
X218003571Y-291014342D01*
X218003571Y-291014342D02*
X218003571Y-290728628D01*
X218003571Y-290728628D02*
X218051190Y-290633390D01*
X218051190Y-290633390D02*
X218098809Y-290585771D01*
X218098809Y-290585771D02*
X218194047Y-290538152D01*
X218194047Y-290538152D02*
X218384523Y-290538152D01*
X218384523Y-290538152D02*
X218479761Y-290585771D01*
X218670238Y-291300057D02*
X219432142Y-291300057D01*
X219575000Y-290204819D02*
X220194047Y-290204819D01*
X220194047Y-290204819D02*
X219860714Y-290585771D01*
X219860714Y-290585771D02*
X220003571Y-290585771D01*
X220003571Y-290585771D02*
X220098809Y-290633390D01*
X220098809Y-290633390D02*
X220146428Y-290681009D01*
X220146428Y-290681009D02*
X220194047Y-290776247D01*
X220194047Y-290776247D02*
X220194047Y-291014342D01*
X220194047Y-291014342D02*
X220146428Y-291109580D01*
X220146428Y-291109580D02*
X220098809Y-291157200D01*
X220098809Y-291157200D02*
X220003571Y-291204819D01*
X220003571Y-291204819D02*
X219717857Y-291204819D01*
X219717857Y-291204819D02*
X219622619Y-291157200D01*
X219622619Y-291157200D02*
X219575000Y-291109580D01*
X221098809Y-290204819D02*
X220622619Y-290204819D01*
X220622619Y-290204819D02*
X220575000Y-290681009D01*
X220575000Y-290681009D02*
X220622619Y-290633390D01*
X220622619Y-290633390D02*
X220717857Y-290585771D01*
X220717857Y-290585771D02*
X220955952Y-290585771D01*
X220955952Y-290585771D02*
X221051190Y-290633390D01*
X221051190Y-290633390D02*
X221098809Y-290681009D01*
X221098809Y-290681009D02*
X221146428Y-290776247D01*
X221146428Y-290776247D02*
X221146428Y-291014342D01*
X221146428Y-291014342D02*
X221098809Y-291109580D01*
X221098809Y-291109580D02*
X221051190Y-291157200D01*
X221051190Y-291157200D02*
X220955952Y-291204819D01*
X220955952Y-291204819D02*
X220717857Y-291204819D01*
X220717857Y-291204819D02*
X220622619Y-291157200D01*
X220622619Y-291157200D02*
X220575000Y-291109580D01*
X214669819Y-233171904D02*
X213669819Y-233171904D01*
X214146009Y-233171904D02*
X214146009Y-232600476D01*
X214669819Y-232600476D02*
X213669819Y-232600476D01*
X213669819Y-232219523D02*
X213669819Y-231552857D01*
X213669819Y-231552857D02*
X214669819Y-231981428D01*
X431938095Y-240063450D02*
X432080952Y-240111069D01*
X432080952Y-240111069D02*
X432319047Y-240111069D01*
X432319047Y-240111069D02*
X432414285Y-240063450D01*
X432414285Y-240063450D02*
X432461904Y-240015830D01*
X432461904Y-240015830D02*
X432509523Y-239920592D01*
X432509523Y-239920592D02*
X432509523Y-239825354D01*
X432509523Y-239825354D02*
X432461904Y-239730116D01*
X432461904Y-239730116D02*
X432414285Y-239682497D01*
X432414285Y-239682497D02*
X432319047Y-239634878D01*
X432319047Y-239634878D02*
X432128571Y-239587259D01*
X432128571Y-239587259D02*
X432033333Y-239539640D01*
X432033333Y-239539640D02*
X431985714Y-239492021D01*
X431985714Y-239492021D02*
X431938095Y-239396783D01*
X431938095Y-239396783D02*
X431938095Y-239301545D01*
X431938095Y-239301545D02*
X431985714Y-239206307D01*
X431985714Y-239206307D02*
X432033333Y-239158688D01*
X432033333Y-239158688D02*
X432128571Y-239111069D01*
X432128571Y-239111069D02*
X432366666Y-239111069D01*
X432366666Y-239111069D02*
X432509523Y-239158688D01*
X432842857Y-239111069D02*
X433080952Y-240111069D01*
X433080952Y-240111069D02*
X433271428Y-239396783D01*
X433271428Y-239396783D02*
X433461904Y-240111069D01*
X433461904Y-240111069D02*
X433700000Y-239111069D01*
X434509523Y-240063450D02*
X434414285Y-240111069D01*
X434414285Y-240111069D02*
X434223809Y-240111069D01*
X434223809Y-240111069D02*
X434128571Y-240063450D01*
X434128571Y-240063450D02*
X434080952Y-240015830D01*
X434080952Y-240015830D02*
X434033333Y-239920592D01*
X434033333Y-239920592D02*
X434033333Y-239634878D01*
X434033333Y-239634878D02*
X434080952Y-239539640D01*
X434080952Y-239539640D02*
X434128571Y-239492021D01*
X434128571Y-239492021D02*
X434223809Y-239444402D01*
X434223809Y-239444402D02*
X434414285Y-239444402D01*
X434414285Y-239444402D02*
X434509523Y-239492021D01*
X434890476Y-239206307D02*
X434938095Y-239158688D01*
X434938095Y-239158688D02*
X435033333Y-239111069D01*
X435033333Y-239111069D02*
X435271428Y-239111069D01*
X435271428Y-239111069D02*
X435366666Y-239158688D01*
X435366666Y-239158688D02*
X435414285Y-239206307D01*
X435414285Y-239206307D02*
X435461904Y-239301545D01*
X435461904Y-239301545D02*
X435461904Y-239396783D01*
X435461904Y-239396783D02*
X435414285Y-239539640D01*
X435414285Y-239539640D02*
X434842857Y-240111069D01*
X434842857Y-240111069D02*
X435461904Y-240111069D01*
X378976190Y-348354819D02*
X378976190Y-347354819D01*
X379547618Y-348354819D02*
X379119047Y-347783390D01*
X379547618Y-347354819D02*
X378976190Y-347926247D01*
X380404761Y-348307200D02*
X380309523Y-348354819D01*
X380309523Y-348354819D02*
X380119047Y-348354819D01*
X380119047Y-348354819D02*
X380023809Y-348307200D01*
X380023809Y-348307200D02*
X379976190Y-348259580D01*
X379976190Y-348259580D02*
X379928571Y-348164342D01*
X379928571Y-348164342D02*
X379928571Y-347878628D01*
X379928571Y-347878628D02*
X379976190Y-347783390D01*
X379976190Y-347783390D02*
X380023809Y-347735771D01*
X380023809Y-347735771D02*
X380119047Y-347688152D01*
X380119047Y-347688152D02*
X380309523Y-347688152D01*
X380309523Y-347688152D02*
X380404761Y-347735771D01*
X380595238Y-348450057D02*
X381357142Y-348450057D01*
X381738095Y-347783390D02*
X381642857Y-347735771D01*
X381642857Y-347735771D02*
X381595238Y-347688152D01*
X381595238Y-347688152D02*
X381547619Y-347592914D01*
X381547619Y-347592914D02*
X381547619Y-347545295D01*
X381547619Y-347545295D02*
X381595238Y-347450057D01*
X381595238Y-347450057D02*
X381642857Y-347402438D01*
X381642857Y-347402438D02*
X381738095Y-347354819D01*
X381738095Y-347354819D02*
X381928571Y-347354819D01*
X381928571Y-347354819D02*
X382023809Y-347402438D01*
X382023809Y-347402438D02*
X382071428Y-347450057D01*
X382071428Y-347450057D02*
X382119047Y-347545295D01*
X382119047Y-347545295D02*
X382119047Y-347592914D01*
X382119047Y-347592914D02*
X382071428Y-347688152D01*
X382071428Y-347688152D02*
X382023809Y-347735771D01*
X382023809Y-347735771D02*
X381928571Y-347783390D01*
X381928571Y-347783390D02*
X381738095Y-347783390D01*
X381738095Y-347783390D02*
X381642857Y-347831009D01*
X381642857Y-347831009D02*
X381595238Y-347878628D01*
X381595238Y-347878628D02*
X381547619Y-347973866D01*
X381547619Y-347973866D02*
X381547619Y-348164342D01*
X381547619Y-348164342D02*
X381595238Y-348259580D01*
X381595238Y-348259580D02*
X381642857Y-348307200D01*
X381642857Y-348307200D02*
X381738095Y-348354819D01*
X381738095Y-348354819D02*
X381928571Y-348354819D01*
X381928571Y-348354819D02*
X382023809Y-348307200D01*
X382023809Y-348307200D02*
X382071428Y-348259580D01*
X382071428Y-348259580D02*
X382119047Y-348164342D01*
X382119047Y-348164342D02*
X382119047Y-347973866D01*
X382119047Y-347973866D02*
X382071428Y-347878628D01*
X382071428Y-347878628D02*
X382023809Y-347831009D01*
X382023809Y-347831009D02*
X381928571Y-347783390D01*
X382500000Y-347450057D02*
X382547619Y-347402438D01*
X382547619Y-347402438D02*
X382642857Y-347354819D01*
X382642857Y-347354819D02*
X382880952Y-347354819D01*
X382880952Y-347354819D02*
X382976190Y-347402438D01*
X382976190Y-347402438D02*
X383023809Y-347450057D01*
X383023809Y-347450057D02*
X383071428Y-347545295D01*
X383071428Y-347545295D02*
X383071428Y-347640533D01*
X383071428Y-347640533D02*
X383023809Y-347783390D01*
X383023809Y-347783390D02*
X382452381Y-348354819D01*
X382452381Y-348354819D02*
X383071428Y-348354819D01*
X321826190Y-253104819D02*
X321826190Y-252104819D01*
X322397618Y-253104819D02*
X321969047Y-252533390D01*
X322397618Y-252104819D02*
X321826190Y-252676247D01*
X323254761Y-253057200D02*
X323159523Y-253104819D01*
X323159523Y-253104819D02*
X322969047Y-253104819D01*
X322969047Y-253104819D02*
X322873809Y-253057200D01*
X322873809Y-253057200D02*
X322826190Y-253009580D01*
X322826190Y-253009580D02*
X322778571Y-252914342D01*
X322778571Y-252914342D02*
X322778571Y-252628628D01*
X322778571Y-252628628D02*
X322826190Y-252533390D01*
X322826190Y-252533390D02*
X322873809Y-252485771D01*
X322873809Y-252485771D02*
X322969047Y-252438152D01*
X322969047Y-252438152D02*
X323159523Y-252438152D01*
X323159523Y-252438152D02*
X323254761Y-252485771D01*
X323445238Y-253200057D02*
X324207142Y-253200057D01*
X324969047Y-253104819D02*
X324397619Y-253104819D01*
X324683333Y-253104819D02*
X324683333Y-252104819D01*
X324683333Y-252104819D02*
X324588095Y-252247676D01*
X324588095Y-252247676D02*
X324492857Y-252342914D01*
X324492857Y-252342914D02*
X324397619Y-252390533D01*
X325921428Y-253104819D02*
X325350000Y-253104819D01*
X325635714Y-253104819D02*
X325635714Y-252104819D01*
X325635714Y-252104819D02*
X325540476Y-252247676D01*
X325540476Y-252247676D02*
X325445238Y-252342914D01*
X325445238Y-252342914D02*
X325350000Y-252390533D01*
X321826190Y-272154819D02*
X321826190Y-271154819D01*
X322397618Y-272154819D02*
X321969047Y-271583390D01*
X322397618Y-271154819D02*
X321826190Y-271726247D01*
X323254761Y-272107200D02*
X323159523Y-272154819D01*
X323159523Y-272154819D02*
X322969047Y-272154819D01*
X322969047Y-272154819D02*
X322873809Y-272107200D01*
X322873809Y-272107200D02*
X322826190Y-272059580D01*
X322826190Y-272059580D02*
X322778571Y-271964342D01*
X322778571Y-271964342D02*
X322778571Y-271678628D01*
X322778571Y-271678628D02*
X322826190Y-271583390D01*
X322826190Y-271583390D02*
X322873809Y-271535771D01*
X322873809Y-271535771D02*
X322969047Y-271488152D01*
X322969047Y-271488152D02*
X323159523Y-271488152D01*
X323159523Y-271488152D02*
X323254761Y-271535771D01*
X323445238Y-272250057D02*
X324207142Y-272250057D01*
X324397619Y-271250057D02*
X324445238Y-271202438D01*
X324445238Y-271202438D02*
X324540476Y-271154819D01*
X324540476Y-271154819D02*
X324778571Y-271154819D01*
X324778571Y-271154819D02*
X324873809Y-271202438D01*
X324873809Y-271202438D02*
X324921428Y-271250057D01*
X324921428Y-271250057D02*
X324969047Y-271345295D01*
X324969047Y-271345295D02*
X324969047Y-271440533D01*
X324969047Y-271440533D02*
X324921428Y-271583390D01*
X324921428Y-271583390D02*
X324350000Y-272154819D01*
X324350000Y-272154819D02*
X324969047Y-272154819D01*
X325873809Y-271154819D02*
X325397619Y-271154819D01*
X325397619Y-271154819D02*
X325350000Y-271631009D01*
X325350000Y-271631009D02*
X325397619Y-271583390D01*
X325397619Y-271583390D02*
X325492857Y-271535771D01*
X325492857Y-271535771D02*
X325730952Y-271535771D01*
X325730952Y-271535771D02*
X325826190Y-271583390D01*
X325826190Y-271583390D02*
X325873809Y-271631009D01*
X325873809Y-271631009D02*
X325921428Y-271726247D01*
X325921428Y-271726247D02*
X325921428Y-271964342D01*
X325921428Y-271964342D02*
X325873809Y-272059580D01*
X325873809Y-272059580D02*
X325826190Y-272107200D01*
X325826190Y-272107200D02*
X325730952Y-272154819D01*
X325730952Y-272154819D02*
X325492857Y-272154819D01*
X325492857Y-272154819D02*
X325397619Y-272107200D01*
X325397619Y-272107200D02*
X325350000Y-272059580D01*
X245626190Y-272154819D02*
X245626190Y-271154819D01*
X246197618Y-272154819D02*
X245769047Y-271583390D01*
X246197618Y-271154819D02*
X245626190Y-271726247D01*
X247054761Y-272107200D02*
X246959523Y-272154819D01*
X246959523Y-272154819D02*
X246769047Y-272154819D01*
X246769047Y-272154819D02*
X246673809Y-272107200D01*
X246673809Y-272107200D02*
X246626190Y-272059580D01*
X246626190Y-272059580D02*
X246578571Y-271964342D01*
X246578571Y-271964342D02*
X246578571Y-271678628D01*
X246578571Y-271678628D02*
X246626190Y-271583390D01*
X246626190Y-271583390D02*
X246673809Y-271535771D01*
X246673809Y-271535771D02*
X246769047Y-271488152D01*
X246769047Y-271488152D02*
X246959523Y-271488152D01*
X246959523Y-271488152D02*
X247054761Y-271535771D01*
X247245238Y-272250057D02*
X248007142Y-272250057D01*
X248197619Y-271250057D02*
X248245238Y-271202438D01*
X248245238Y-271202438D02*
X248340476Y-271154819D01*
X248340476Y-271154819D02*
X248578571Y-271154819D01*
X248578571Y-271154819D02*
X248673809Y-271202438D01*
X248673809Y-271202438D02*
X248721428Y-271250057D01*
X248721428Y-271250057D02*
X248769047Y-271345295D01*
X248769047Y-271345295D02*
X248769047Y-271440533D01*
X248769047Y-271440533D02*
X248721428Y-271583390D01*
X248721428Y-271583390D02*
X248150000Y-272154819D01*
X248150000Y-272154819D02*
X248769047Y-272154819D01*
X249721428Y-272154819D02*
X249150000Y-272154819D01*
X249435714Y-272154819D02*
X249435714Y-271154819D01*
X249435714Y-271154819D02*
X249340476Y-271297676D01*
X249340476Y-271297676D02*
X249245238Y-271392914D01*
X249245238Y-271392914D02*
X249150000Y-271440533D01*
X417076190Y-272154819D02*
X417076190Y-271154819D01*
X417647618Y-272154819D02*
X417219047Y-271583390D01*
X417647618Y-271154819D02*
X417076190Y-271726247D01*
X418504761Y-272107200D02*
X418409523Y-272154819D01*
X418409523Y-272154819D02*
X418219047Y-272154819D01*
X418219047Y-272154819D02*
X418123809Y-272107200D01*
X418123809Y-272107200D02*
X418076190Y-272059580D01*
X418076190Y-272059580D02*
X418028571Y-271964342D01*
X418028571Y-271964342D02*
X418028571Y-271678628D01*
X418028571Y-271678628D02*
X418076190Y-271583390D01*
X418076190Y-271583390D02*
X418123809Y-271535771D01*
X418123809Y-271535771D02*
X418219047Y-271488152D01*
X418219047Y-271488152D02*
X418409523Y-271488152D01*
X418409523Y-271488152D02*
X418504761Y-271535771D01*
X418695238Y-272250057D02*
X419457142Y-272250057D01*
X419647619Y-271250057D02*
X419695238Y-271202438D01*
X419695238Y-271202438D02*
X419790476Y-271154819D01*
X419790476Y-271154819D02*
X420028571Y-271154819D01*
X420028571Y-271154819D02*
X420123809Y-271202438D01*
X420123809Y-271202438D02*
X420171428Y-271250057D01*
X420171428Y-271250057D02*
X420219047Y-271345295D01*
X420219047Y-271345295D02*
X420219047Y-271440533D01*
X420219047Y-271440533D02*
X420171428Y-271583390D01*
X420171428Y-271583390D02*
X419600000Y-272154819D01*
X419600000Y-272154819D02*
X420219047Y-272154819D01*
X420695238Y-272154819D02*
X420885714Y-272154819D01*
X420885714Y-272154819D02*
X420980952Y-272107200D01*
X420980952Y-272107200D02*
X421028571Y-272059580D01*
X421028571Y-272059580D02*
X421123809Y-271916723D01*
X421123809Y-271916723D02*
X421171428Y-271726247D01*
X421171428Y-271726247D02*
X421171428Y-271345295D01*
X421171428Y-271345295D02*
X421123809Y-271250057D01*
X421123809Y-271250057D02*
X421076190Y-271202438D01*
X421076190Y-271202438D02*
X420980952Y-271154819D01*
X420980952Y-271154819D02*
X420790476Y-271154819D01*
X420790476Y-271154819D02*
X420695238Y-271202438D01*
X420695238Y-271202438D02*
X420647619Y-271250057D01*
X420647619Y-271250057D02*
X420600000Y-271345295D01*
X420600000Y-271345295D02*
X420600000Y-271583390D01*
X420600000Y-271583390D02*
X420647619Y-271678628D01*
X420647619Y-271678628D02*
X420695238Y-271726247D01*
X420695238Y-271726247D02*
X420790476Y-271773866D01*
X420790476Y-271773866D02*
X420980952Y-271773866D01*
X420980952Y-271773866D02*
X421076190Y-271726247D01*
X421076190Y-271726247D02*
X421123809Y-271678628D01*
X421123809Y-271678628D02*
X421171428Y-271583390D01*
X359926190Y-272154819D02*
X359926190Y-271154819D01*
X360497618Y-272154819D02*
X360069047Y-271583390D01*
X360497618Y-271154819D02*
X359926190Y-271726247D01*
X361354761Y-272107200D02*
X361259523Y-272154819D01*
X361259523Y-272154819D02*
X361069047Y-272154819D01*
X361069047Y-272154819D02*
X360973809Y-272107200D01*
X360973809Y-272107200D02*
X360926190Y-272059580D01*
X360926190Y-272059580D02*
X360878571Y-271964342D01*
X360878571Y-271964342D02*
X360878571Y-271678628D01*
X360878571Y-271678628D02*
X360926190Y-271583390D01*
X360926190Y-271583390D02*
X360973809Y-271535771D01*
X360973809Y-271535771D02*
X361069047Y-271488152D01*
X361069047Y-271488152D02*
X361259523Y-271488152D01*
X361259523Y-271488152D02*
X361354761Y-271535771D01*
X361545238Y-272250057D02*
X362307142Y-272250057D01*
X362497619Y-271250057D02*
X362545238Y-271202438D01*
X362545238Y-271202438D02*
X362640476Y-271154819D01*
X362640476Y-271154819D02*
X362878571Y-271154819D01*
X362878571Y-271154819D02*
X362973809Y-271202438D01*
X362973809Y-271202438D02*
X363021428Y-271250057D01*
X363021428Y-271250057D02*
X363069047Y-271345295D01*
X363069047Y-271345295D02*
X363069047Y-271440533D01*
X363069047Y-271440533D02*
X363021428Y-271583390D01*
X363021428Y-271583390D02*
X362450000Y-272154819D01*
X362450000Y-272154819D02*
X363069047Y-272154819D01*
X363402381Y-271154819D02*
X364069047Y-271154819D01*
X364069047Y-271154819D02*
X363640476Y-272154819D01*
X236101190Y-291204819D02*
X236101190Y-290204819D01*
X236672618Y-291204819D02*
X236244047Y-290633390D01*
X236672618Y-290204819D02*
X236101190Y-290776247D01*
X237529761Y-291157200D02*
X237434523Y-291204819D01*
X237434523Y-291204819D02*
X237244047Y-291204819D01*
X237244047Y-291204819D02*
X237148809Y-291157200D01*
X237148809Y-291157200D02*
X237101190Y-291109580D01*
X237101190Y-291109580D02*
X237053571Y-291014342D01*
X237053571Y-291014342D02*
X237053571Y-290728628D01*
X237053571Y-290728628D02*
X237101190Y-290633390D01*
X237101190Y-290633390D02*
X237148809Y-290585771D01*
X237148809Y-290585771D02*
X237244047Y-290538152D01*
X237244047Y-290538152D02*
X237434523Y-290538152D01*
X237434523Y-290538152D02*
X237529761Y-290585771D01*
X237720238Y-291300057D02*
X238482142Y-291300057D01*
X238625000Y-290204819D02*
X239244047Y-290204819D01*
X239244047Y-290204819D02*
X238910714Y-290585771D01*
X238910714Y-290585771D02*
X239053571Y-290585771D01*
X239053571Y-290585771D02*
X239148809Y-290633390D01*
X239148809Y-290633390D02*
X239196428Y-290681009D01*
X239196428Y-290681009D02*
X239244047Y-290776247D01*
X239244047Y-290776247D02*
X239244047Y-291014342D01*
X239244047Y-291014342D02*
X239196428Y-291109580D01*
X239196428Y-291109580D02*
X239148809Y-291157200D01*
X239148809Y-291157200D02*
X239053571Y-291204819D01*
X239053571Y-291204819D02*
X238767857Y-291204819D01*
X238767857Y-291204819D02*
X238672619Y-291157200D01*
X238672619Y-291157200D02*
X238625000Y-291109580D01*
X240101190Y-290204819D02*
X239910714Y-290204819D01*
X239910714Y-290204819D02*
X239815476Y-290252438D01*
X239815476Y-290252438D02*
X239767857Y-290300057D01*
X239767857Y-290300057D02*
X239672619Y-290442914D01*
X239672619Y-290442914D02*
X239625000Y-290633390D01*
X239625000Y-290633390D02*
X239625000Y-291014342D01*
X239625000Y-291014342D02*
X239672619Y-291109580D01*
X239672619Y-291109580D02*
X239720238Y-291157200D01*
X239720238Y-291157200D02*
X239815476Y-291204819D01*
X239815476Y-291204819D02*
X240005952Y-291204819D01*
X240005952Y-291204819D02*
X240101190Y-291157200D01*
X240101190Y-291157200D02*
X240148809Y-291109580D01*
X240148809Y-291109580D02*
X240196428Y-291014342D01*
X240196428Y-291014342D02*
X240196428Y-290776247D01*
X240196428Y-290776247D02*
X240148809Y-290681009D01*
X240148809Y-290681009D02*
X240101190Y-290633390D01*
X240101190Y-290633390D02*
X240005952Y-290585771D01*
X240005952Y-290585771D02*
X239815476Y-290585771D01*
X239815476Y-290585771D02*
X239720238Y-290633390D01*
X239720238Y-290633390D02*
X239672619Y-290681009D01*
X239672619Y-290681009D02*
X239625000Y-290776247D01*
X227052381Y-253104819D02*
X227052381Y-252104819D01*
X227623809Y-253104819D02*
X227195238Y-252533390D01*
X227623809Y-252104819D02*
X227052381Y-252676247D01*
X228480952Y-253057200D02*
X228385714Y-253104819D01*
X228385714Y-253104819D02*
X228195238Y-253104819D01*
X228195238Y-253104819D02*
X228100000Y-253057200D01*
X228100000Y-253057200D02*
X228052381Y-253009580D01*
X228052381Y-253009580D02*
X228004762Y-252914342D01*
X228004762Y-252914342D02*
X228004762Y-252628628D01*
X228004762Y-252628628D02*
X228052381Y-252533390D01*
X228052381Y-252533390D02*
X228100000Y-252485771D01*
X228100000Y-252485771D02*
X228195238Y-252438152D01*
X228195238Y-252438152D02*
X228385714Y-252438152D01*
X228385714Y-252438152D02*
X228480952Y-252485771D01*
X228671429Y-253200057D02*
X229433333Y-253200057D01*
X230100000Y-252104819D02*
X229909524Y-252104819D01*
X229909524Y-252104819D02*
X229814286Y-252152438D01*
X229814286Y-252152438D02*
X229766667Y-252200057D01*
X229766667Y-252200057D02*
X229671429Y-252342914D01*
X229671429Y-252342914D02*
X229623810Y-252533390D01*
X229623810Y-252533390D02*
X229623810Y-252914342D01*
X229623810Y-252914342D02*
X229671429Y-253009580D01*
X229671429Y-253009580D02*
X229719048Y-253057200D01*
X229719048Y-253057200D02*
X229814286Y-253104819D01*
X229814286Y-253104819D02*
X230004762Y-253104819D01*
X230004762Y-253104819D02*
X230100000Y-253057200D01*
X230100000Y-253057200D02*
X230147619Y-253009580D01*
X230147619Y-253009580D02*
X230195238Y-252914342D01*
X230195238Y-252914342D02*
X230195238Y-252676247D01*
X230195238Y-252676247D02*
X230147619Y-252581009D01*
X230147619Y-252581009D02*
X230100000Y-252533390D01*
X230100000Y-252533390D02*
X230004762Y-252485771D01*
X230004762Y-252485771D02*
X229814286Y-252485771D01*
X229814286Y-252485771D02*
X229719048Y-252533390D01*
X229719048Y-252533390D02*
X229671429Y-252581009D01*
X229671429Y-252581009D02*
X229623810Y-252676247D01*
X298013690Y-310254819D02*
X298013690Y-309254819D01*
X298585118Y-310254819D02*
X298156547Y-309683390D01*
X298585118Y-309254819D02*
X298013690Y-309826247D01*
X299442261Y-310207200D02*
X299347023Y-310254819D01*
X299347023Y-310254819D02*
X299156547Y-310254819D01*
X299156547Y-310254819D02*
X299061309Y-310207200D01*
X299061309Y-310207200D02*
X299013690Y-310159580D01*
X299013690Y-310159580D02*
X298966071Y-310064342D01*
X298966071Y-310064342D02*
X298966071Y-309778628D01*
X298966071Y-309778628D02*
X299013690Y-309683390D01*
X299013690Y-309683390D02*
X299061309Y-309635771D01*
X299061309Y-309635771D02*
X299156547Y-309588152D01*
X299156547Y-309588152D02*
X299347023Y-309588152D01*
X299347023Y-309588152D02*
X299442261Y-309635771D01*
X299632738Y-310350057D02*
X300394642Y-310350057D01*
X301108928Y-309254819D02*
X300632738Y-309254819D01*
X300632738Y-309254819D02*
X300585119Y-309731009D01*
X300585119Y-309731009D02*
X300632738Y-309683390D01*
X300632738Y-309683390D02*
X300727976Y-309635771D01*
X300727976Y-309635771D02*
X300966071Y-309635771D01*
X300966071Y-309635771D02*
X301061309Y-309683390D01*
X301061309Y-309683390D02*
X301108928Y-309731009D01*
X301108928Y-309731009D02*
X301156547Y-309826247D01*
X301156547Y-309826247D02*
X301156547Y-310064342D01*
X301156547Y-310064342D02*
X301108928Y-310159580D01*
X301108928Y-310159580D02*
X301061309Y-310207200D01*
X301061309Y-310207200D02*
X300966071Y-310254819D01*
X300966071Y-310254819D02*
X300727976Y-310254819D01*
X300727976Y-310254819D02*
X300632738Y-310207200D01*
X300632738Y-310207200D02*
X300585119Y-310159580D01*
X302061309Y-309254819D02*
X301585119Y-309254819D01*
X301585119Y-309254819D02*
X301537500Y-309731009D01*
X301537500Y-309731009D02*
X301585119Y-309683390D01*
X301585119Y-309683390D02*
X301680357Y-309635771D01*
X301680357Y-309635771D02*
X301918452Y-309635771D01*
X301918452Y-309635771D02*
X302013690Y-309683390D01*
X302013690Y-309683390D02*
X302061309Y-309731009D01*
X302061309Y-309731009D02*
X302108928Y-309826247D01*
X302108928Y-309826247D02*
X302108928Y-310064342D01*
X302108928Y-310064342D02*
X302061309Y-310159580D01*
X302061309Y-310159580D02*
X302013690Y-310207200D01*
X302013690Y-310207200D02*
X301918452Y-310254819D01*
X301918452Y-310254819D02*
X301680357Y-310254819D01*
X301680357Y-310254819D02*
X301585119Y-310207200D01*
X301585119Y-310207200D02*
X301537500Y-310159580D01*
X340876190Y-348354819D02*
X340876190Y-347354819D01*
X341447618Y-348354819D02*
X341019047Y-347783390D01*
X341447618Y-347354819D02*
X340876190Y-347926247D01*
X342304761Y-348307200D02*
X342209523Y-348354819D01*
X342209523Y-348354819D02*
X342019047Y-348354819D01*
X342019047Y-348354819D02*
X341923809Y-348307200D01*
X341923809Y-348307200D02*
X341876190Y-348259580D01*
X341876190Y-348259580D02*
X341828571Y-348164342D01*
X341828571Y-348164342D02*
X341828571Y-347878628D01*
X341828571Y-347878628D02*
X341876190Y-347783390D01*
X341876190Y-347783390D02*
X341923809Y-347735771D01*
X341923809Y-347735771D02*
X342019047Y-347688152D01*
X342019047Y-347688152D02*
X342209523Y-347688152D01*
X342209523Y-347688152D02*
X342304761Y-347735771D01*
X342495238Y-348450057D02*
X343257142Y-348450057D01*
X343638095Y-347783390D02*
X343542857Y-347735771D01*
X343542857Y-347735771D02*
X343495238Y-347688152D01*
X343495238Y-347688152D02*
X343447619Y-347592914D01*
X343447619Y-347592914D02*
X343447619Y-347545295D01*
X343447619Y-347545295D02*
X343495238Y-347450057D01*
X343495238Y-347450057D02*
X343542857Y-347402438D01*
X343542857Y-347402438D02*
X343638095Y-347354819D01*
X343638095Y-347354819D02*
X343828571Y-347354819D01*
X343828571Y-347354819D02*
X343923809Y-347402438D01*
X343923809Y-347402438D02*
X343971428Y-347450057D01*
X343971428Y-347450057D02*
X344019047Y-347545295D01*
X344019047Y-347545295D02*
X344019047Y-347592914D01*
X344019047Y-347592914D02*
X343971428Y-347688152D01*
X343971428Y-347688152D02*
X343923809Y-347735771D01*
X343923809Y-347735771D02*
X343828571Y-347783390D01*
X343828571Y-347783390D02*
X343638095Y-347783390D01*
X343638095Y-347783390D02*
X343542857Y-347831009D01*
X343542857Y-347831009D02*
X343495238Y-347878628D01*
X343495238Y-347878628D02*
X343447619Y-347973866D01*
X343447619Y-347973866D02*
X343447619Y-348164342D01*
X343447619Y-348164342D02*
X343495238Y-348259580D01*
X343495238Y-348259580D02*
X343542857Y-348307200D01*
X343542857Y-348307200D02*
X343638095Y-348354819D01*
X343638095Y-348354819D02*
X343828571Y-348354819D01*
X343828571Y-348354819D02*
X343923809Y-348307200D01*
X343923809Y-348307200D02*
X343971428Y-348259580D01*
X343971428Y-348259580D02*
X344019047Y-348164342D01*
X344019047Y-348164342D02*
X344019047Y-347973866D01*
X344019047Y-347973866D02*
X343971428Y-347878628D01*
X343971428Y-347878628D02*
X343923809Y-347831009D01*
X343923809Y-347831009D02*
X343828571Y-347783390D01*
X344638095Y-347354819D02*
X344733333Y-347354819D01*
X344733333Y-347354819D02*
X344828571Y-347402438D01*
X344828571Y-347402438D02*
X344876190Y-347450057D01*
X344876190Y-347450057D02*
X344923809Y-347545295D01*
X344923809Y-347545295D02*
X344971428Y-347735771D01*
X344971428Y-347735771D02*
X344971428Y-347973866D01*
X344971428Y-347973866D02*
X344923809Y-348164342D01*
X344923809Y-348164342D02*
X344876190Y-348259580D01*
X344876190Y-348259580D02*
X344828571Y-348307200D01*
X344828571Y-348307200D02*
X344733333Y-348354819D01*
X344733333Y-348354819D02*
X344638095Y-348354819D01*
X344638095Y-348354819D02*
X344542857Y-348307200D01*
X344542857Y-348307200D02*
X344495238Y-348259580D01*
X344495238Y-348259580D02*
X344447619Y-348164342D01*
X344447619Y-348164342D02*
X344400000Y-347973866D01*
X344400000Y-347973866D02*
X344400000Y-347735771D01*
X344400000Y-347735771D02*
X344447619Y-347545295D01*
X344447619Y-347545295D02*
X344495238Y-347450057D01*
X344495238Y-347450057D02*
X344542857Y-347402438D01*
X344542857Y-347402438D02*
X344638095Y-347354819D01*
X123864819Y-233171904D02*
X122864819Y-233171904D01*
X123341009Y-233171904D02*
X123341009Y-232600476D01*
X123864819Y-232600476D02*
X122864819Y-232600476D01*
X122864819Y-232219523D02*
X122864819Y-231600476D01*
X122864819Y-231600476D02*
X123245771Y-231933809D01*
X123245771Y-231933809D02*
X123245771Y-231790952D01*
X123245771Y-231790952D02*
X123293390Y-231695714D01*
X123293390Y-231695714D02*
X123341009Y-231648095D01*
X123341009Y-231648095D02*
X123436247Y-231600476D01*
X123436247Y-231600476D02*
X123674342Y-231600476D01*
X123674342Y-231600476D02*
X123769580Y-231648095D01*
X123769580Y-231648095D02*
X123817200Y-231695714D01*
X123817200Y-231695714D02*
X123864819Y-231790952D01*
X123864819Y-231790952D02*
X123864819Y-232076666D01*
X123864819Y-232076666D02*
X123817200Y-232171904D01*
X123817200Y-232171904D02*
X123769580Y-232219523D01*
X207526190Y-272154819D02*
X207526190Y-271154819D01*
X208097618Y-272154819D02*
X207669047Y-271583390D01*
X208097618Y-271154819D02*
X207526190Y-271726247D01*
X208954761Y-272107200D02*
X208859523Y-272154819D01*
X208859523Y-272154819D02*
X208669047Y-272154819D01*
X208669047Y-272154819D02*
X208573809Y-272107200D01*
X208573809Y-272107200D02*
X208526190Y-272059580D01*
X208526190Y-272059580D02*
X208478571Y-271964342D01*
X208478571Y-271964342D02*
X208478571Y-271678628D01*
X208478571Y-271678628D02*
X208526190Y-271583390D01*
X208526190Y-271583390D02*
X208573809Y-271535771D01*
X208573809Y-271535771D02*
X208669047Y-271488152D01*
X208669047Y-271488152D02*
X208859523Y-271488152D01*
X208859523Y-271488152D02*
X208954761Y-271535771D01*
X209145238Y-272250057D02*
X209907142Y-272250057D01*
X210669047Y-272154819D02*
X210097619Y-272154819D01*
X210383333Y-272154819D02*
X210383333Y-271154819D01*
X210383333Y-271154819D02*
X210288095Y-271297676D01*
X210288095Y-271297676D02*
X210192857Y-271392914D01*
X210192857Y-271392914D02*
X210097619Y-271440533D01*
X211145238Y-272154819D02*
X211335714Y-272154819D01*
X211335714Y-272154819D02*
X211430952Y-272107200D01*
X211430952Y-272107200D02*
X211478571Y-272059580D01*
X211478571Y-272059580D02*
X211573809Y-271916723D01*
X211573809Y-271916723D02*
X211621428Y-271726247D01*
X211621428Y-271726247D02*
X211621428Y-271345295D01*
X211621428Y-271345295D02*
X211573809Y-271250057D01*
X211573809Y-271250057D02*
X211526190Y-271202438D01*
X211526190Y-271202438D02*
X211430952Y-271154819D01*
X211430952Y-271154819D02*
X211240476Y-271154819D01*
X211240476Y-271154819D02*
X211145238Y-271202438D01*
X211145238Y-271202438D02*
X211097619Y-271250057D01*
X211097619Y-271250057D02*
X211050000Y-271345295D01*
X211050000Y-271345295D02*
X211050000Y-271583390D01*
X211050000Y-271583390D02*
X211097619Y-271678628D01*
X211097619Y-271678628D02*
X211145238Y-271726247D01*
X211145238Y-271726247D02*
X211240476Y-271773866D01*
X211240476Y-271773866D02*
X211430952Y-271773866D01*
X211430952Y-271773866D02*
X211526190Y-271726247D01*
X211526190Y-271726247D02*
X211573809Y-271678628D01*
X211573809Y-271678628D02*
X211621428Y-271583390D01*
X295783095Y-338054819D02*
X295783095Y-337054819D01*
X295783095Y-337531009D02*
X296354523Y-337531009D01*
X296354523Y-338054819D02*
X296354523Y-337054819D01*
X297259285Y-337054819D02*
X297068809Y-337054819D01*
X297068809Y-337054819D02*
X296973571Y-337102438D01*
X296973571Y-337102438D02*
X296925952Y-337150057D01*
X296925952Y-337150057D02*
X296830714Y-337292914D01*
X296830714Y-337292914D02*
X296783095Y-337483390D01*
X296783095Y-337483390D02*
X296783095Y-337864342D01*
X296783095Y-337864342D02*
X296830714Y-337959580D01*
X296830714Y-337959580D02*
X296878333Y-338007200D01*
X296878333Y-338007200D02*
X296973571Y-338054819D01*
X296973571Y-338054819D02*
X297164047Y-338054819D01*
X297164047Y-338054819D02*
X297259285Y-338007200D01*
X297259285Y-338007200D02*
X297306904Y-337959580D01*
X297306904Y-337959580D02*
X297354523Y-337864342D01*
X297354523Y-337864342D02*
X297354523Y-337626247D01*
X297354523Y-337626247D02*
X297306904Y-337531009D01*
X297306904Y-337531009D02*
X297259285Y-337483390D01*
X297259285Y-337483390D02*
X297164047Y-337435771D01*
X297164047Y-337435771D02*
X296973571Y-337435771D01*
X296973571Y-337435771D02*
X296878333Y-337483390D01*
X296878333Y-337483390D02*
X296830714Y-337531009D01*
X296830714Y-337531009D02*
X296783095Y-337626247D01*
X326588690Y-329304819D02*
X326588690Y-328304819D01*
X327160118Y-329304819D02*
X326731547Y-328733390D01*
X327160118Y-328304819D02*
X326588690Y-328876247D01*
X328017261Y-329257200D02*
X327922023Y-329304819D01*
X327922023Y-329304819D02*
X327731547Y-329304819D01*
X327731547Y-329304819D02*
X327636309Y-329257200D01*
X327636309Y-329257200D02*
X327588690Y-329209580D01*
X327588690Y-329209580D02*
X327541071Y-329114342D01*
X327541071Y-329114342D02*
X327541071Y-328828628D01*
X327541071Y-328828628D02*
X327588690Y-328733390D01*
X327588690Y-328733390D02*
X327636309Y-328685771D01*
X327636309Y-328685771D02*
X327731547Y-328638152D01*
X327731547Y-328638152D02*
X327922023Y-328638152D01*
X327922023Y-328638152D02*
X328017261Y-328685771D01*
X328207738Y-329400057D02*
X328969642Y-329400057D01*
X329112500Y-328304819D02*
X329779166Y-328304819D01*
X329779166Y-328304819D02*
X329350595Y-329304819D01*
X330683928Y-329304819D02*
X330112500Y-329304819D01*
X330398214Y-329304819D02*
X330398214Y-328304819D01*
X330398214Y-328304819D02*
X330302976Y-328447676D01*
X330302976Y-328447676D02*
X330207738Y-328542914D01*
X330207738Y-328542914D02*
X330112500Y-328590533D01*
X188952381Y-253104819D02*
X188952381Y-252104819D01*
X189523809Y-253104819D02*
X189095238Y-252533390D01*
X189523809Y-252104819D02*
X188952381Y-252676247D01*
X190380952Y-253057200D02*
X190285714Y-253104819D01*
X190285714Y-253104819D02*
X190095238Y-253104819D01*
X190095238Y-253104819D02*
X190000000Y-253057200D01*
X190000000Y-253057200D02*
X189952381Y-253009580D01*
X189952381Y-253009580D02*
X189904762Y-252914342D01*
X189904762Y-252914342D02*
X189904762Y-252628628D01*
X189904762Y-252628628D02*
X189952381Y-252533390D01*
X189952381Y-252533390D02*
X190000000Y-252485771D01*
X190000000Y-252485771D02*
X190095238Y-252438152D01*
X190095238Y-252438152D02*
X190285714Y-252438152D01*
X190285714Y-252438152D02*
X190380952Y-252485771D01*
X190571429Y-253200057D02*
X191333333Y-253200057D01*
X192000000Y-252438152D02*
X192000000Y-253104819D01*
X191761905Y-252057200D02*
X191523810Y-252771485D01*
X191523810Y-252771485D02*
X192142857Y-252771485D01*
X150376190Y-272154819D02*
X150376190Y-271154819D01*
X150947618Y-272154819D02*
X150519047Y-271583390D01*
X150947618Y-271154819D02*
X150376190Y-271726247D01*
X151804761Y-272107200D02*
X151709523Y-272154819D01*
X151709523Y-272154819D02*
X151519047Y-272154819D01*
X151519047Y-272154819D02*
X151423809Y-272107200D01*
X151423809Y-272107200D02*
X151376190Y-272059580D01*
X151376190Y-272059580D02*
X151328571Y-271964342D01*
X151328571Y-271964342D02*
X151328571Y-271678628D01*
X151328571Y-271678628D02*
X151376190Y-271583390D01*
X151376190Y-271583390D02*
X151423809Y-271535771D01*
X151423809Y-271535771D02*
X151519047Y-271488152D01*
X151519047Y-271488152D02*
X151709523Y-271488152D01*
X151709523Y-271488152D02*
X151804761Y-271535771D01*
X151995238Y-272250057D02*
X152757142Y-272250057D01*
X153519047Y-272154819D02*
X152947619Y-272154819D01*
X153233333Y-272154819D02*
X153233333Y-271154819D01*
X153233333Y-271154819D02*
X153138095Y-271297676D01*
X153138095Y-271297676D02*
X153042857Y-271392914D01*
X153042857Y-271392914D02*
X152947619Y-271440533D01*
X154376190Y-271154819D02*
X154185714Y-271154819D01*
X154185714Y-271154819D02*
X154090476Y-271202438D01*
X154090476Y-271202438D02*
X154042857Y-271250057D01*
X154042857Y-271250057D02*
X153947619Y-271392914D01*
X153947619Y-271392914D02*
X153900000Y-271583390D01*
X153900000Y-271583390D02*
X153900000Y-271964342D01*
X153900000Y-271964342D02*
X153947619Y-272059580D01*
X153947619Y-272059580D02*
X153995238Y-272107200D01*
X153995238Y-272107200D02*
X154090476Y-272154819D01*
X154090476Y-272154819D02*
X154280952Y-272154819D01*
X154280952Y-272154819D02*
X154376190Y-272107200D01*
X154376190Y-272107200D02*
X154423809Y-272059580D01*
X154423809Y-272059580D02*
X154471428Y-271964342D01*
X154471428Y-271964342D02*
X154471428Y-271726247D01*
X154471428Y-271726247D02*
X154423809Y-271631009D01*
X154423809Y-271631009D02*
X154376190Y-271583390D01*
X154376190Y-271583390D02*
X154280952Y-271535771D01*
X154280952Y-271535771D02*
X154090476Y-271535771D01*
X154090476Y-271535771D02*
X153995238Y-271583390D01*
X153995238Y-271583390D02*
X153947619Y-271631009D01*
X153947619Y-271631009D02*
X153900000Y-271726247D01*
X417076190Y-291204819D02*
X417076190Y-290204819D01*
X417647618Y-291204819D02*
X417219047Y-290633390D01*
X417647618Y-290204819D02*
X417076190Y-290776247D01*
X418504761Y-291157200D02*
X418409523Y-291204819D01*
X418409523Y-291204819D02*
X418219047Y-291204819D01*
X418219047Y-291204819D02*
X418123809Y-291157200D01*
X418123809Y-291157200D02*
X418076190Y-291109580D01*
X418076190Y-291109580D02*
X418028571Y-291014342D01*
X418028571Y-291014342D02*
X418028571Y-290728628D01*
X418028571Y-290728628D02*
X418076190Y-290633390D01*
X418076190Y-290633390D02*
X418123809Y-290585771D01*
X418123809Y-290585771D02*
X418219047Y-290538152D01*
X418219047Y-290538152D02*
X418409523Y-290538152D01*
X418409523Y-290538152D02*
X418504761Y-290585771D01*
X418695238Y-291300057D02*
X419457142Y-291300057D01*
X420123809Y-290538152D02*
X420123809Y-291204819D01*
X419885714Y-290157200D02*
X419647619Y-290871485D01*
X419647619Y-290871485D02*
X420266666Y-290871485D01*
X421123809Y-290204819D02*
X420647619Y-290204819D01*
X420647619Y-290204819D02*
X420600000Y-290681009D01*
X420600000Y-290681009D02*
X420647619Y-290633390D01*
X420647619Y-290633390D02*
X420742857Y-290585771D01*
X420742857Y-290585771D02*
X420980952Y-290585771D01*
X420980952Y-290585771D02*
X421076190Y-290633390D01*
X421076190Y-290633390D02*
X421123809Y-290681009D01*
X421123809Y-290681009D02*
X421171428Y-290776247D01*
X421171428Y-290776247D02*
X421171428Y-291014342D01*
X421171428Y-291014342D02*
X421123809Y-291109580D01*
X421123809Y-291109580D02*
X421076190Y-291157200D01*
X421076190Y-291157200D02*
X420980952Y-291204819D01*
X420980952Y-291204819D02*
X420742857Y-291204819D01*
X420742857Y-291204819D02*
X420647619Y-291157200D01*
X420647619Y-291157200D02*
X420600000Y-291109580D01*
X178951190Y-291204819D02*
X178951190Y-290204819D01*
X179522618Y-291204819D02*
X179094047Y-290633390D01*
X179522618Y-290204819D02*
X178951190Y-290776247D01*
X180379761Y-291157200D02*
X180284523Y-291204819D01*
X180284523Y-291204819D02*
X180094047Y-291204819D01*
X180094047Y-291204819D02*
X179998809Y-291157200D01*
X179998809Y-291157200D02*
X179951190Y-291109580D01*
X179951190Y-291109580D02*
X179903571Y-291014342D01*
X179903571Y-291014342D02*
X179903571Y-290728628D01*
X179903571Y-290728628D02*
X179951190Y-290633390D01*
X179951190Y-290633390D02*
X179998809Y-290585771D01*
X179998809Y-290585771D02*
X180094047Y-290538152D01*
X180094047Y-290538152D02*
X180284523Y-290538152D01*
X180284523Y-290538152D02*
X180379761Y-290585771D01*
X180570238Y-291300057D02*
X181332142Y-291300057D01*
X181475000Y-290204819D02*
X182094047Y-290204819D01*
X182094047Y-290204819D02*
X181760714Y-290585771D01*
X181760714Y-290585771D02*
X181903571Y-290585771D01*
X181903571Y-290585771D02*
X181998809Y-290633390D01*
X181998809Y-290633390D02*
X182046428Y-290681009D01*
X182046428Y-290681009D02*
X182094047Y-290776247D01*
X182094047Y-290776247D02*
X182094047Y-291014342D01*
X182094047Y-291014342D02*
X182046428Y-291109580D01*
X182046428Y-291109580D02*
X181998809Y-291157200D01*
X181998809Y-291157200D02*
X181903571Y-291204819D01*
X181903571Y-291204819D02*
X181617857Y-291204819D01*
X181617857Y-291204819D02*
X181522619Y-291157200D01*
X181522619Y-291157200D02*
X181475000Y-291109580D01*
X182427381Y-290204819D02*
X183046428Y-290204819D01*
X183046428Y-290204819D02*
X182713095Y-290585771D01*
X182713095Y-290585771D02*
X182855952Y-290585771D01*
X182855952Y-290585771D02*
X182951190Y-290633390D01*
X182951190Y-290633390D02*
X182998809Y-290681009D01*
X182998809Y-290681009D02*
X183046428Y-290776247D01*
X183046428Y-290776247D02*
X183046428Y-291014342D01*
X183046428Y-291014342D02*
X182998809Y-291109580D01*
X182998809Y-291109580D02*
X182951190Y-291157200D01*
X182951190Y-291157200D02*
X182855952Y-291204819D01*
X182855952Y-291204819D02*
X182570238Y-291204819D01*
X182570238Y-291204819D02*
X182475000Y-291157200D01*
X182475000Y-291157200D02*
X182427381Y-291109580D01*
X302776190Y-253104819D02*
X302776190Y-252104819D01*
X303347618Y-253104819D02*
X302919047Y-252533390D01*
X303347618Y-252104819D02*
X302776190Y-252676247D01*
X304204761Y-253057200D02*
X304109523Y-253104819D01*
X304109523Y-253104819D02*
X303919047Y-253104819D01*
X303919047Y-253104819D02*
X303823809Y-253057200D01*
X303823809Y-253057200D02*
X303776190Y-253009580D01*
X303776190Y-253009580D02*
X303728571Y-252914342D01*
X303728571Y-252914342D02*
X303728571Y-252628628D01*
X303728571Y-252628628D02*
X303776190Y-252533390D01*
X303776190Y-252533390D02*
X303823809Y-252485771D01*
X303823809Y-252485771D02*
X303919047Y-252438152D01*
X303919047Y-252438152D02*
X304109523Y-252438152D01*
X304109523Y-252438152D02*
X304204761Y-252485771D01*
X304395238Y-253200057D02*
X305157142Y-253200057D01*
X305919047Y-253104819D02*
X305347619Y-253104819D01*
X305633333Y-253104819D02*
X305633333Y-252104819D01*
X305633333Y-252104819D02*
X305538095Y-252247676D01*
X305538095Y-252247676D02*
X305442857Y-252342914D01*
X305442857Y-252342914D02*
X305347619Y-252390533D01*
X306538095Y-252104819D02*
X306633333Y-252104819D01*
X306633333Y-252104819D02*
X306728571Y-252152438D01*
X306728571Y-252152438D02*
X306776190Y-252200057D01*
X306776190Y-252200057D02*
X306823809Y-252295295D01*
X306823809Y-252295295D02*
X306871428Y-252485771D01*
X306871428Y-252485771D02*
X306871428Y-252723866D01*
X306871428Y-252723866D02*
X306823809Y-252914342D01*
X306823809Y-252914342D02*
X306776190Y-253009580D01*
X306776190Y-253009580D02*
X306728571Y-253057200D01*
X306728571Y-253057200D02*
X306633333Y-253104819D01*
X306633333Y-253104819D02*
X306538095Y-253104819D01*
X306538095Y-253104819D02*
X306442857Y-253057200D01*
X306442857Y-253057200D02*
X306395238Y-253009580D01*
X306395238Y-253009580D02*
X306347619Y-252914342D01*
X306347619Y-252914342D02*
X306300000Y-252723866D01*
X306300000Y-252723866D02*
X306300000Y-252485771D01*
X306300000Y-252485771D02*
X306347619Y-252295295D01*
X306347619Y-252295295D02*
X306395238Y-252200057D01*
X306395238Y-252200057D02*
X306442857Y-252152438D01*
X306442857Y-252152438D02*
X306538095Y-252104819D01*
X436126190Y-310254819D02*
X436126190Y-309254819D01*
X436697618Y-310254819D02*
X436269047Y-309683390D01*
X436697618Y-309254819D02*
X436126190Y-309826247D01*
X437554761Y-310207200D02*
X437459523Y-310254819D01*
X437459523Y-310254819D02*
X437269047Y-310254819D01*
X437269047Y-310254819D02*
X437173809Y-310207200D01*
X437173809Y-310207200D02*
X437126190Y-310159580D01*
X437126190Y-310159580D02*
X437078571Y-310064342D01*
X437078571Y-310064342D02*
X437078571Y-309778628D01*
X437078571Y-309778628D02*
X437126190Y-309683390D01*
X437126190Y-309683390D02*
X437173809Y-309635771D01*
X437173809Y-309635771D02*
X437269047Y-309588152D01*
X437269047Y-309588152D02*
X437459523Y-309588152D01*
X437459523Y-309588152D02*
X437554761Y-309635771D01*
X437745238Y-310350057D02*
X438507142Y-310350057D01*
X439173809Y-309254819D02*
X438983333Y-309254819D01*
X438983333Y-309254819D02*
X438888095Y-309302438D01*
X438888095Y-309302438D02*
X438840476Y-309350057D01*
X438840476Y-309350057D02*
X438745238Y-309492914D01*
X438745238Y-309492914D02*
X438697619Y-309683390D01*
X438697619Y-309683390D02*
X438697619Y-310064342D01*
X438697619Y-310064342D02*
X438745238Y-310159580D01*
X438745238Y-310159580D02*
X438792857Y-310207200D01*
X438792857Y-310207200D02*
X438888095Y-310254819D01*
X438888095Y-310254819D02*
X439078571Y-310254819D01*
X439078571Y-310254819D02*
X439173809Y-310207200D01*
X439173809Y-310207200D02*
X439221428Y-310159580D01*
X439221428Y-310159580D02*
X439269047Y-310064342D01*
X439269047Y-310064342D02*
X439269047Y-309826247D01*
X439269047Y-309826247D02*
X439221428Y-309731009D01*
X439221428Y-309731009D02*
X439173809Y-309683390D01*
X439173809Y-309683390D02*
X439078571Y-309635771D01*
X439078571Y-309635771D02*
X438888095Y-309635771D01*
X438888095Y-309635771D02*
X438792857Y-309683390D01*
X438792857Y-309683390D02*
X438745238Y-309731009D01*
X438745238Y-309731009D02*
X438697619Y-309826247D01*
X440221428Y-310254819D02*
X439650000Y-310254819D01*
X439935714Y-310254819D02*
X439935714Y-309254819D01*
X439935714Y-309254819D02*
X439840476Y-309397676D01*
X439840476Y-309397676D02*
X439745238Y-309492914D01*
X439745238Y-309492914D02*
X439650000Y-309540533D01*
X193238690Y-329304819D02*
X193238690Y-328304819D01*
X193810118Y-329304819D02*
X193381547Y-328733390D01*
X193810118Y-328304819D02*
X193238690Y-328876247D01*
X194667261Y-329257200D02*
X194572023Y-329304819D01*
X194572023Y-329304819D02*
X194381547Y-329304819D01*
X194381547Y-329304819D02*
X194286309Y-329257200D01*
X194286309Y-329257200D02*
X194238690Y-329209580D01*
X194238690Y-329209580D02*
X194191071Y-329114342D01*
X194191071Y-329114342D02*
X194191071Y-328828628D01*
X194191071Y-328828628D02*
X194238690Y-328733390D01*
X194238690Y-328733390D02*
X194286309Y-328685771D01*
X194286309Y-328685771D02*
X194381547Y-328638152D01*
X194381547Y-328638152D02*
X194572023Y-328638152D01*
X194572023Y-328638152D02*
X194667261Y-328685771D01*
X194857738Y-329400057D02*
X195619642Y-329400057D01*
X196286309Y-328304819D02*
X196095833Y-328304819D01*
X196095833Y-328304819D02*
X196000595Y-328352438D01*
X196000595Y-328352438D02*
X195952976Y-328400057D01*
X195952976Y-328400057D02*
X195857738Y-328542914D01*
X195857738Y-328542914D02*
X195810119Y-328733390D01*
X195810119Y-328733390D02*
X195810119Y-329114342D01*
X195810119Y-329114342D02*
X195857738Y-329209580D01*
X195857738Y-329209580D02*
X195905357Y-329257200D01*
X195905357Y-329257200D02*
X196000595Y-329304819D01*
X196000595Y-329304819D02*
X196191071Y-329304819D01*
X196191071Y-329304819D02*
X196286309Y-329257200D01*
X196286309Y-329257200D02*
X196333928Y-329209580D01*
X196333928Y-329209580D02*
X196381547Y-329114342D01*
X196381547Y-329114342D02*
X196381547Y-328876247D01*
X196381547Y-328876247D02*
X196333928Y-328781009D01*
X196333928Y-328781009D02*
X196286309Y-328733390D01*
X196286309Y-328733390D02*
X196191071Y-328685771D01*
X196191071Y-328685771D02*
X196000595Y-328685771D01*
X196000595Y-328685771D02*
X195905357Y-328733390D01*
X195905357Y-328733390D02*
X195857738Y-328781009D01*
X195857738Y-328781009D02*
X195810119Y-328876247D01*
X197238690Y-328638152D02*
X197238690Y-329304819D01*
X197000595Y-328257200D02*
X196762500Y-328971485D01*
X196762500Y-328971485D02*
X197381547Y-328971485D01*
X417076190Y-348354819D02*
X417076190Y-347354819D01*
X417647618Y-348354819D02*
X417219047Y-347783390D01*
X417647618Y-347354819D02*
X417076190Y-347926247D01*
X418504761Y-348307200D02*
X418409523Y-348354819D01*
X418409523Y-348354819D02*
X418219047Y-348354819D01*
X418219047Y-348354819D02*
X418123809Y-348307200D01*
X418123809Y-348307200D02*
X418076190Y-348259580D01*
X418076190Y-348259580D02*
X418028571Y-348164342D01*
X418028571Y-348164342D02*
X418028571Y-347878628D01*
X418028571Y-347878628D02*
X418076190Y-347783390D01*
X418076190Y-347783390D02*
X418123809Y-347735771D01*
X418123809Y-347735771D02*
X418219047Y-347688152D01*
X418219047Y-347688152D02*
X418409523Y-347688152D01*
X418409523Y-347688152D02*
X418504761Y-347735771D01*
X418695238Y-348450057D02*
X419457142Y-348450057D01*
X419838095Y-347783390D02*
X419742857Y-347735771D01*
X419742857Y-347735771D02*
X419695238Y-347688152D01*
X419695238Y-347688152D02*
X419647619Y-347592914D01*
X419647619Y-347592914D02*
X419647619Y-347545295D01*
X419647619Y-347545295D02*
X419695238Y-347450057D01*
X419695238Y-347450057D02*
X419742857Y-347402438D01*
X419742857Y-347402438D02*
X419838095Y-347354819D01*
X419838095Y-347354819D02*
X420028571Y-347354819D01*
X420028571Y-347354819D02*
X420123809Y-347402438D01*
X420123809Y-347402438D02*
X420171428Y-347450057D01*
X420171428Y-347450057D02*
X420219047Y-347545295D01*
X420219047Y-347545295D02*
X420219047Y-347592914D01*
X420219047Y-347592914D02*
X420171428Y-347688152D01*
X420171428Y-347688152D02*
X420123809Y-347735771D01*
X420123809Y-347735771D02*
X420028571Y-347783390D01*
X420028571Y-347783390D02*
X419838095Y-347783390D01*
X419838095Y-347783390D02*
X419742857Y-347831009D01*
X419742857Y-347831009D02*
X419695238Y-347878628D01*
X419695238Y-347878628D02*
X419647619Y-347973866D01*
X419647619Y-347973866D02*
X419647619Y-348164342D01*
X419647619Y-348164342D02*
X419695238Y-348259580D01*
X419695238Y-348259580D02*
X419742857Y-348307200D01*
X419742857Y-348307200D02*
X419838095Y-348354819D01*
X419838095Y-348354819D02*
X420028571Y-348354819D01*
X420028571Y-348354819D02*
X420123809Y-348307200D01*
X420123809Y-348307200D02*
X420171428Y-348259580D01*
X420171428Y-348259580D02*
X420219047Y-348164342D01*
X420219047Y-348164342D02*
X420219047Y-347973866D01*
X420219047Y-347973866D02*
X420171428Y-347878628D01*
X420171428Y-347878628D02*
X420123809Y-347831009D01*
X420123809Y-347831009D02*
X420028571Y-347783390D01*
X421076190Y-347688152D02*
X421076190Y-348354819D01*
X420838095Y-347307200D02*
X420600000Y-348021485D01*
X420600000Y-348021485D02*
X421219047Y-348021485D01*
D11*
X453237500Y-297306250D02*
X456037500Y-297306250D01*
X453237500Y-302206250D02*
X453237500Y-297306250D01*
X453237500Y-310706250D02*
X453237500Y-305806250D01*
X455837500Y-310706250D02*
X453237500Y-310706250D01*
X459537500Y-303506250D02*
X459537500Y-304506250D01*
X460037500Y-304006250D02*
X459037500Y-304006250D01*
X460837500Y-310706250D02*
X458237500Y-310706250D01*
X463337500Y-296506250D02*
X463637500Y-296206250D01*
X463637500Y-296206250D02*
X463637500Y-296806250D01*
X463637500Y-296806250D02*
X463337500Y-296506250D01*
X465837500Y-297306250D02*
X463337500Y-297306250D01*
X465837500Y-302106250D02*
X465837500Y-297306250D01*
X465837500Y-305806250D02*
X465837500Y-310706250D01*
X465837500Y-310706250D02*
X463237500Y-310706250D01*
X462537500Y-304006250D02*
G75*
G02*
X456537500Y-304006250I-3000000J0D01*
G01*
X456537500Y-304006250D02*
G75*
G02*
X462537500Y-304006250I3000000J0D01*
G01*
X411550000Y-242756250D02*
X412150000Y-242756250D01*
X411850000Y-243056250D02*
X411550000Y-242756250D01*
X412150000Y-242756250D02*
X411850000Y-243056250D01*
X412650000Y-240556250D02*
X412650000Y-243056250D01*
X412650000Y-253156250D02*
X412650000Y-250356250D01*
X417450000Y-240556250D02*
X412650000Y-240556250D01*
X417550000Y-253156250D02*
X412650000Y-253156250D01*
X418850000Y-246856250D02*
X419850000Y-246856250D01*
X419350000Y-246356250D02*
X419350000Y-247356250D01*
X421150000Y-240556250D02*
X426050000Y-240556250D01*
X426050000Y-240556250D02*
X426050000Y-243156250D01*
X426050000Y-245556250D02*
X426050000Y-248156250D01*
X426050000Y-250556250D02*
X426050000Y-253156250D01*
X426050000Y-253156250D02*
X421150000Y-253156250D01*
X422350000Y-246856250D02*
G75*
G02*
X416350000Y-246856250I-3000000J0D01*
G01*
X416350000Y-246856250D02*
G75*
G02*
X422350000Y-246856250I3000000J0D01*
G01*
X430600000Y-242756250D02*
X431200000Y-242756250D01*
X430900000Y-243056250D02*
X430600000Y-242756250D01*
X431200000Y-242756250D02*
X430900000Y-243056250D01*
X431700000Y-240556250D02*
X431700000Y-243056250D01*
X431700000Y-253156250D02*
X431700000Y-250356250D01*
X436500000Y-240556250D02*
X431700000Y-240556250D01*
X436600000Y-253156250D02*
X431700000Y-253156250D01*
X437900000Y-246856250D02*
X438900000Y-246856250D01*
X438400000Y-246356250D02*
X438400000Y-247356250D01*
X440200000Y-240556250D02*
X445100000Y-240556250D01*
X445100000Y-240556250D02*
X445100000Y-243156250D01*
X445100000Y-245556250D02*
X445100000Y-248156250D01*
X445100000Y-250556250D02*
X445100000Y-253156250D01*
X445100000Y-253156250D02*
X440200000Y-253156250D01*
X441400000Y-246856250D02*
G75*
G02*
X435400000Y-246856250I-3000000J0D01*
G01*
X435400000Y-246856250D02*
G75*
G02*
X441400000Y-246856250I3000000J0D01*
G01*
D12*
X459740000Y-238506000D02*
X459740000Y-243205000D01*
X459740000Y-243205000D02*
X467360000Y-243205000D01*
X467360000Y-243205000D02*
X467360000Y-238506000D01*
%LPC*%
D13*
X462037500Y-296506250D03*
D14*
X457037500Y-296506250D03*
X459537500Y-296506250D03*
D15*
X465137500Y-304006250D03*
X453937500Y-304006250D03*
D14*
X462037500Y-311006250D03*
X457037500Y-311006250D03*
D16*
X452120000Y-342900000D03*
D17*
X453390000Y-340360000D03*
D18*
X457200000Y-342900000D03*
D17*
X459740000Y-337820000D03*
D16*
X462280000Y-342900000D03*
X166370000Y-266700000D03*
D17*
X167640000Y-264160000D03*
D18*
X171450000Y-266700000D03*
D17*
X173990000Y-261620000D03*
D16*
X176530000Y-266700000D03*
X280670000Y-247650000D03*
D17*
X281940000Y-245110000D03*
D18*
X285750000Y-247650000D03*
D17*
X288290000Y-242570000D03*
D16*
X290830000Y-247650000D03*
X433070000Y-342900000D03*
D17*
X434340000Y-340360000D03*
D18*
X438150000Y-342900000D03*
D17*
X440690000Y-337820000D03*
D16*
X443230000Y-342900000D03*
X197326250Y-342900000D03*
D17*
X198596250Y-340360000D03*
D18*
X202406250Y-342900000D03*
D17*
X204946250Y-337820000D03*
D16*
X207486250Y-342900000D03*
X433070000Y-266700000D03*
D17*
X434340000Y-264160000D03*
D18*
X438150000Y-266700000D03*
D17*
X440690000Y-261620000D03*
D16*
X443230000Y-266700000D03*
D19*
X251460000Y-342900000D03*
D16*
X342582500Y-323850000D03*
D17*
X343852500Y-321310000D03*
D18*
X347662500Y-323850000D03*
D17*
X350202500Y-318770000D03*
D16*
X352742500Y-323850000D03*
X394970000Y-342900000D03*
D17*
X396240000Y-340360000D03*
D18*
X400050000Y-342900000D03*
D17*
X402590000Y-337820000D03*
D16*
X405130000Y-342900000D03*
X128270000Y-266700000D03*
D17*
X129540000Y-264160000D03*
D18*
X133350000Y-266700000D03*
D17*
X135890000Y-261620000D03*
D16*
X138430000Y-266700000D03*
X347345000Y-285750000D03*
D17*
X348615000Y-283210000D03*
D18*
X352425000Y-285750000D03*
D17*
X354965000Y-280670000D03*
D16*
X357505000Y-285750000D03*
X185420000Y-266700000D03*
D17*
X186690000Y-264160000D03*
D18*
X190500000Y-266700000D03*
D17*
X193040000Y-261620000D03*
D16*
X195580000Y-266700000D03*
X304482500Y-323850000D03*
D17*
X305752500Y-321310000D03*
D18*
X309562500Y-323850000D03*
D17*
X312102500Y-318770000D03*
D16*
X314642500Y-323850000D03*
X271145000Y-285750000D03*
D17*
X272415000Y-283210000D03*
D18*
X276225000Y-285750000D03*
D17*
X278765000Y-280670000D03*
D16*
X281305000Y-285750000D03*
X199707500Y-304800000D03*
D17*
X200977500Y-302260000D03*
D18*
X204787500Y-304800000D03*
D17*
X207327500Y-299720000D03*
D16*
X209867500Y-304800000D03*
D19*
X390525000Y-232410000D03*
D16*
X433070000Y-323850000D03*
D17*
X434340000Y-321310000D03*
D18*
X438150000Y-323850000D03*
D17*
X440690000Y-318770000D03*
D16*
X443230000Y-323850000D03*
X356870000Y-247650000D03*
D17*
X358140000Y-245110000D03*
D18*
X361950000Y-247650000D03*
D17*
X364490000Y-242570000D03*
D16*
X367030000Y-247650000D03*
X166370000Y-247650000D03*
D17*
X167640000Y-245110000D03*
D18*
X171450000Y-247650000D03*
D17*
X173990000Y-242570000D03*
D16*
X176530000Y-247650000D03*
X135413750Y-304800000D03*
D17*
X136683750Y-302260000D03*
D18*
X140493750Y-304800000D03*
D17*
X143033750Y-299720000D03*
D16*
X145573750Y-304800000D03*
X147320000Y-247650000D03*
D17*
X148590000Y-245110000D03*
D18*
X152400000Y-247650000D03*
D17*
X154940000Y-242570000D03*
D16*
X157480000Y-247650000D03*
X156845000Y-285750000D03*
D17*
X158115000Y-283210000D03*
D18*
X161925000Y-285750000D03*
D17*
X164465000Y-280670000D03*
D16*
X167005000Y-285750000D03*
X218757500Y-304800000D03*
D17*
X220027500Y-302260000D03*
D18*
X223837500Y-304800000D03*
D17*
X226377500Y-299720000D03*
D16*
X228917500Y-304800000D03*
X161607500Y-304800000D03*
D17*
X162877500Y-302260000D03*
D18*
X166687500Y-304800000D03*
D17*
X169227500Y-299720000D03*
D16*
X171767500Y-304800000D03*
X252095000Y-285750000D03*
D17*
X253365000Y-283210000D03*
D18*
X257175000Y-285750000D03*
D17*
X259715000Y-280670000D03*
D16*
X262255000Y-285750000D03*
D13*
X411850000Y-244356250D03*
D14*
X411850000Y-249356250D03*
X411850000Y-246856250D03*
D20*
X419350000Y-241256250D03*
X419350000Y-252456250D03*
D14*
X426350000Y-244356250D03*
X426350000Y-249356250D03*
D16*
X209232500Y-323850000D03*
D17*
X210502500Y-321310000D03*
D18*
X214312500Y-323850000D03*
D17*
X216852500Y-318770000D03*
D16*
X219392500Y-323850000D03*
X356870000Y-342900000D03*
D17*
X358140000Y-340360000D03*
D18*
X361950000Y-342900000D03*
D17*
X364490000Y-337820000D03*
D16*
X367030000Y-342900000D03*
X280670000Y-266700000D03*
D17*
X281940000Y-264160000D03*
D18*
X285750000Y-266700000D03*
D17*
X288290000Y-261620000D03*
D16*
X290830000Y-266700000D03*
X290195000Y-285750000D03*
D17*
X291465000Y-283210000D03*
D18*
X295275000Y-285750000D03*
D17*
X297815000Y-280670000D03*
D16*
X300355000Y-285750000D03*
X328295000Y-285750000D03*
D17*
X329565000Y-283210000D03*
D18*
X333375000Y-285750000D03*
D17*
X335915000Y-280670000D03*
D16*
X338455000Y-285750000D03*
X237807500Y-304800000D03*
D17*
X239077500Y-302260000D03*
D18*
X242887500Y-304800000D03*
D17*
X245427500Y-299720000D03*
D16*
X247967500Y-304800000D03*
X194945000Y-285750000D03*
D17*
X196215000Y-283210000D03*
D18*
X200025000Y-285750000D03*
D17*
X202565000Y-280670000D03*
D16*
X205105000Y-285750000D03*
X204470000Y-247650000D03*
D17*
X205740000Y-245110000D03*
D18*
X209550000Y-247650000D03*
D17*
X212090000Y-242570000D03*
D16*
X214630000Y-247650000D03*
X309245000Y-285750000D03*
D17*
X310515000Y-283210000D03*
D18*
X314325000Y-285750000D03*
D17*
X316865000Y-280670000D03*
D16*
X319405000Y-285750000D03*
X275907500Y-304800000D03*
D17*
X277177500Y-302260000D03*
D18*
X280987500Y-304800000D03*
D17*
X283527500Y-299720000D03*
D16*
X286067500Y-304800000D03*
X394970000Y-247650000D03*
D17*
X396240000Y-245110000D03*
D18*
X400050000Y-247650000D03*
D17*
X402590000Y-242570000D03*
D16*
X405130000Y-247650000D03*
D21*
X378587000Y-259715000D03*
D18*
X378587000Y-274955000D03*
D16*
X385445000Y-266700000D03*
D17*
X386715000Y-264160000D03*
D18*
X390525000Y-266700000D03*
D17*
X393065000Y-261620000D03*
D16*
X395605000Y-266700000D03*
D21*
X402463000Y-259715000D03*
D18*
X402463000Y-274955000D03*
D16*
X256857500Y-304800000D03*
D17*
X258127500Y-302260000D03*
D18*
X261937500Y-304800000D03*
D17*
X264477500Y-299720000D03*
D16*
X267017500Y-304800000D03*
X333057500Y-304800000D03*
D17*
X334327500Y-302260000D03*
D18*
X338137500Y-304800000D03*
D17*
X340677500Y-299720000D03*
D16*
X343217500Y-304800000D03*
D19*
X118110000Y-358140000D03*
X481330000Y-358140000D03*
D16*
X175895000Y-342900000D03*
D17*
X177165000Y-340360000D03*
D18*
X180975000Y-342900000D03*
D17*
X183515000Y-337820000D03*
D16*
X186055000Y-342900000D03*
D21*
X371443250Y-316865000D03*
D18*
X371443250Y-332105000D03*
D16*
X378301250Y-323850000D03*
D17*
X379571250Y-321310000D03*
D18*
X383381250Y-323850000D03*
D17*
X385921250Y-318770000D03*
D16*
X388461250Y-323850000D03*
D21*
X395319250Y-316865000D03*
D18*
X395319250Y-332105000D03*
D16*
X337820000Y-247650000D03*
D17*
X339090000Y-245110000D03*
D18*
X342900000Y-247650000D03*
D17*
X345440000Y-242570000D03*
D16*
X347980000Y-247650000D03*
X223520000Y-266700000D03*
D17*
X224790000Y-264160000D03*
D18*
X228600000Y-266700000D03*
D17*
X231140000Y-261620000D03*
D16*
X233680000Y-266700000D03*
X414020000Y-304800000D03*
D17*
X415290000Y-302260000D03*
D18*
X419100000Y-304800000D03*
D17*
X421640000Y-299720000D03*
D16*
X424180000Y-304800000D03*
X133032500Y-285750000D03*
D17*
X134302500Y-283210000D03*
D18*
X138112500Y-285750000D03*
D17*
X140652500Y-280670000D03*
D16*
X143192500Y-285750000D03*
X285432500Y-323850000D03*
D17*
X286702500Y-321310000D03*
D18*
X290512500Y-323850000D03*
D17*
X293052500Y-318770000D03*
D16*
X295592500Y-323850000D03*
X261620000Y-247650000D03*
D17*
X262890000Y-245110000D03*
D18*
X266700000Y-247650000D03*
D17*
X269240000Y-242570000D03*
D16*
X271780000Y-247650000D03*
X128270000Y-247650000D03*
D17*
X129540000Y-245110000D03*
D18*
X133350000Y-247650000D03*
D17*
X135890000Y-242570000D03*
D16*
X138430000Y-247650000D03*
X247332500Y-323850000D03*
D17*
X248602500Y-321310000D03*
D18*
X252412500Y-323850000D03*
D17*
X254952500Y-318770000D03*
D16*
X257492500Y-323850000D03*
X261620000Y-266700000D03*
D17*
X262890000Y-264160000D03*
D18*
X266700000Y-266700000D03*
D17*
X269240000Y-261620000D03*
D16*
X271780000Y-266700000D03*
X366395000Y-285750000D03*
D17*
X367665000Y-283210000D03*
D18*
X371475000Y-285750000D03*
D17*
X374015000Y-280670000D03*
D16*
X376555000Y-285750000D03*
X299720000Y-266700000D03*
D17*
X300990000Y-264160000D03*
D18*
X304800000Y-266700000D03*
D17*
X307340000Y-261620000D03*
D16*
X309880000Y-266700000D03*
X314007500Y-304800000D03*
D17*
X315277500Y-302260000D03*
D18*
X319087500Y-304800000D03*
D17*
X321627500Y-299720000D03*
D16*
X324167500Y-304800000D03*
X180657500Y-304800000D03*
D17*
X181927500Y-302260000D03*
D18*
X185737500Y-304800000D03*
D17*
X188277500Y-299720000D03*
D16*
X190817500Y-304800000D03*
X171132500Y-323850000D03*
D17*
X172402500Y-321310000D03*
D18*
X176212500Y-323850000D03*
D17*
X178752500Y-318770000D03*
D16*
X181292500Y-323850000D03*
X242570000Y-247650000D03*
D17*
X243840000Y-245110000D03*
D18*
X247650000Y-247650000D03*
D17*
X250190000Y-242570000D03*
D16*
X252730000Y-247650000D03*
X266382500Y-323850000D03*
D17*
X267652500Y-321310000D03*
D18*
X271462500Y-323850000D03*
D17*
X274002500Y-318770000D03*
D16*
X276542500Y-323850000D03*
X433070000Y-285750000D03*
D17*
X434340000Y-283210000D03*
D18*
X438150000Y-285750000D03*
D17*
X440690000Y-280670000D03*
D16*
X443230000Y-285750000D03*
D21*
X376205750Y-297815000D03*
D18*
X376205750Y-313055000D03*
D16*
X383063750Y-304800000D03*
D17*
X384333750Y-302260000D03*
D18*
X388143750Y-304800000D03*
D17*
X390683750Y-299720000D03*
D16*
X393223750Y-304800000D03*
D21*
X400081750Y-297815000D03*
D18*
X400081750Y-313055000D03*
D16*
X337820000Y-266700000D03*
D17*
X339090000Y-264160000D03*
D18*
X342900000Y-266700000D03*
D17*
X345440000Y-261620000D03*
D16*
X347980000Y-266700000D03*
D19*
X481330000Y-232410000D03*
D16*
X228282500Y-323850000D03*
D17*
X229552500Y-321310000D03*
D18*
X233362500Y-323850000D03*
D17*
X235902500Y-318770000D03*
D16*
X238442500Y-323850000D03*
X154463750Y-342900000D03*
D17*
X155733750Y-340360000D03*
D18*
X159543750Y-342900000D03*
D17*
X162083750Y-337820000D03*
D16*
X164623750Y-342900000D03*
X352107500Y-304800000D03*
D17*
X353377500Y-302260000D03*
D18*
X357187500Y-304800000D03*
D17*
X359727500Y-299720000D03*
D16*
X362267500Y-304800000D03*
X213995000Y-285750000D03*
D17*
X215265000Y-283210000D03*
D18*
X219075000Y-285750000D03*
D17*
X221615000Y-280670000D03*
D16*
X224155000Y-285750000D03*
D21*
X133318250Y-316865000D03*
D18*
X133318250Y-332105000D03*
D16*
X140176250Y-323850000D03*
D17*
X141446250Y-321310000D03*
D18*
X145256250Y-323850000D03*
D17*
X147796250Y-318770000D03*
D16*
X150336250Y-323850000D03*
D21*
X157194250Y-316865000D03*
D18*
X157194250Y-332105000D03*
D19*
X208915000Y-232410000D03*
D16*
X130651250Y-342900000D03*
D17*
X131921250Y-340360000D03*
D18*
X135731250Y-342900000D03*
D17*
X138271250Y-337820000D03*
D16*
X140811250Y-342900000D03*
D13*
X430900000Y-244356250D03*
D14*
X430900000Y-249356250D03*
X430900000Y-246856250D03*
D20*
X438400000Y-241256250D03*
X438400000Y-252456250D03*
D14*
X445400000Y-244356250D03*
X445400000Y-249356250D03*
D16*
X375920000Y-342900000D03*
D17*
X377190000Y-340360000D03*
D18*
X381000000Y-342900000D03*
D17*
X383540000Y-337820000D03*
D16*
X386080000Y-342900000D03*
X318770000Y-247650000D03*
D17*
X320040000Y-245110000D03*
D18*
X323850000Y-247650000D03*
D17*
X326390000Y-242570000D03*
D16*
X328930000Y-247650000D03*
X318770000Y-266700000D03*
D17*
X320040000Y-264160000D03*
D18*
X323850000Y-266700000D03*
D17*
X326390000Y-261620000D03*
D16*
X328930000Y-266700000D03*
X242570000Y-266700000D03*
D17*
X243840000Y-264160000D03*
D18*
X247650000Y-266700000D03*
D17*
X250190000Y-261620000D03*
D16*
X252730000Y-266700000D03*
X414020000Y-266700000D03*
D17*
X415290000Y-264160000D03*
D18*
X419100000Y-266700000D03*
D17*
X421640000Y-261620000D03*
D16*
X424180000Y-266700000D03*
X356870000Y-266700000D03*
D17*
X358140000Y-264160000D03*
D18*
X361950000Y-266700000D03*
D17*
X364490000Y-261620000D03*
D16*
X367030000Y-266700000D03*
X233045000Y-285750000D03*
D17*
X234315000Y-283210000D03*
D18*
X238125000Y-285750000D03*
D17*
X240665000Y-280670000D03*
D16*
X243205000Y-285750000D03*
X223520000Y-247650000D03*
D17*
X224790000Y-245110000D03*
D18*
X228600000Y-247650000D03*
D17*
X231140000Y-242570000D03*
D16*
X233680000Y-247650000D03*
X294957500Y-304800000D03*
D17*
X296227500Y-302260000D03*
D18*
X300037500Y-304800000D03*
D17*
X302577500Y-299720000D03*
D16*
X305117500Y-304800000D03*
X337820000Y-342900000D03*
D17*
X339090000Y-340360000D03*
D18*
X342900000Y-342900000D03*
D17*
X345440000Y-337820000D03*
D16*
X347980000Y-342900000D03*
D19*
X118110000Y-232410000D03*
D16*
X204470000Y-266700000D03*
D17*
X205740000Y-264160000D03*
D18*
X209550000Y-266700000D03*
D17*
X212090000Y-261620000D03*
D16*
X214630000Y-266700000D03*
D19*
X296545000Y-342900000D03*
D16*
X323532500Y-323850000D03*
D17*
X324802500Y-321310000D03*
D18*
X328612500Y-323850000D03*
D17*
X331152500Y-318770000D03*
D16*
X333692500Y-323850000D03*
X185420000Y-247650000D03*
D17*
X186690000Y-245110000D03*
D18*
X190500000Y-247650000D03*
D17*
X193040000Y-242570000D03*
D16*
X195580000Y-247650000D03*
X147320000Y-266700000D03*
D17*
X148590000Y-264160000D03*
D18*
X152400000Y-266700000D03*
D17*
X154940000Y-261620000D03*
D16*
X157480000Y-266700000D03*
X414020000Y-285750000D03*
D17*
X415290000Y-283210000D03*
D18*
X419100000Y-285750000D03*
D17*
X421640000Y-280670000D03*
D16*
X424180000Y-285750000D03*
X175895000Y-285750000D03*
D17*
X177165000Y-283210000D03*
D18*
X180975000Y-285750000D03*
D17*
X183515000Y-280670000D03*
D16*
X186055000Y-285750000D03*
D21*
X223843850Y-335915000D03*
D18*
X223843850Y-351155000D03*
D16*
X268763750Y-342900000D03*
D17*
X270033750Y-340360000D03*
D18*
X273843750Y-342900000D03*
D17*
X276383750Y-337820000D03*
D16*
X278923750Y-342900000D03*
D21*
X323843650Y-335915000D03*
D18*
X323843650Y-351155000D03*
D16*
X299720000Y-247650000D03*
D17*
X300990000Y-245110000D03*
D18*
X304800000Y-247650000D03*
D17*
X307340000Y-242570000D03*
D16*
X309880000Y-247650000D03*
X433070000Y-304800000D03*
D17*
X434340000Y-302260000D03*
D18*
X438150000Y-304800000D03*
D17*
X440690000Y-299720000D03*
D16*
X443230000Y-304800000D03*
X390207500Y-285750000D03*
D17*
X391477500Y-283210000D03*
D18*
X395287500Y-285750000D03*
D17*
X397827500Y-280670000D03*
D16*
X400367500Y-285750000D03*
X190182500Y-323850000D03*
D17*
X191452500Y-321310000D03*
D18*
X195262500Y-323850000D03*
D17*
X197802500Y-318770000D03*
D16*
X200342500Y-323850000D03*
X414020000Y-342900000D03*
D17*
X415290000Y-340360000D03*
D18*
X419100000Y-342900000D03*
D17*
X421640000Y-337820000D03*
D16*
X424180000Y-342900000D03*
D22*
X471170000Y-240665000D03*
X471170000Y-243205000D03*
X471170000Y-245745000D03*
X471170000Y-248285000D03*
X471170000Y-250825000D03*
X471170000Y-253365000D03*
X471170000Y-255905000D03*
X471170000Y-258445000D03*
X471170000Y-260985000D03*
X471170000Y-263525000D03*
X471170000Y-266065000D03*
X471170000Y-268605000D03*
X471170000Y-271145000D03*
X471170000Y-273685000D03*
X471170000Y-276225000D03*
X471170000Y-278765000D03*
X471170000Y-281305000D03*
X471170000Y-283845000D03*
X471170000Y-286385000D03*
X471170000Y-288925000D03*
X455930000Y-240665000D03*
X455930000Y-243205000D03*
X455930000Y-245745000D03*
X455930000Y-248285000D03*
X455930000Y-250825000D03*
X455930000Y-253365000D03*
X455930000Y-255905000D03*
X455930000Y-258445000D03*
X455930000Y-260985000D03*
X455930000Y-263525000D03*
X455930000Y-266065000D03*
X455930000Y-268605000D03*
X455930000Y-271145000D03*
X455930000Y-273685000D03*
X455930000Y-276225000D03*
X455930000Y-278765000D03*
X455930000Y-281305000D03*
X455930000Y-283845000D03*
X455930000Y-286385000D03*
X455930000Y-288925000D03*
%LPD*%
M02*
