G04 #@! TF.GenerationSoftware,KiCad,Pcbnew,8.0.7*
G04 #@! TF.CreationDate,2025-03-15T22:58:08-07:00*
G04 #@! TF.ProjectId,keyboard,6b657962-6f61-4726-942e-6b696361645f,rev?*
G04 #@! TF.SameCoordinates,Original*
G04 #@! TF.FileFunction,Paste,Bot*
G04 #@! TF.FilePolarity,Positive*
%FSLAX46Y46*%
G04 Gerber Fmt 4.6, Leading zero omitted, Abs format (unit mm)*
G04 Created by KiCad (PCBNEW 8.0.7) date 2025-03-15 22:58:08*
%MOMM*%
%LPD*%
G01*
G04 APERTURE LIST*
G04 Aperture macros list*
%AMRoundRect*
0 Rectangle with rounded corners*
0 $1 Rounding radius*
0 $2 $3 $4 $5 $6 $7 $8 $9 X,Y pos of 4 corners*
0 Add a 4 corners polygon primitive as box body*
4,1,4,$2,$3,$4,$5,$6,$7,$8,$9,$2,$3,0*
0 Add four circle primitives for the rounded corners*
1,1,$1+$1,$2,$3*
1,1,$1+$1,$4,$5*
1,1,$1+$1,$6,$7*
1,1,$1+$1,$8,$9*
0 Add four rect primitives between the rounded corners*
20,1,$1+$1,$2,$3,$4,$5,0*
20,1,$1+$1,$4,$5,$6,$7,0*
20,1,$1+$1,$6,$7,$8,$9,0*
20,1,$1+$1,$8,$9,$2,$3,0*%
G04 Aperture macros list end*
%ADD10R,2.550000X2.500000*%
%ADD11RoundRect,0.225000X0.375000X-0.225000X0.375000X0.225000X-0.375000X0.225000X-0.375000X-0.225000X0*%
%ADD12C,1.524000*%
G04 APERTURE END LIST*
D10*
X450115000Y-340360000D03*
X463042000Y-337820000D03*
X164365000Y-264160000D03*
X177292000Y-261620000D03*
X278665000Y-245110000D03*
X291592000Y-242570000D03*
X431065000Y-340360000D03*
X443992000Y-337820000D03*
X195321250Y-340360000D03*
X208248250Y-337820000D03*
X431065000Y-264160000D03*
X443992000Y-261620000D03*
X340577500Y-321310000D03*
X353504500Y-318770000D03*
X392965000Y-340360000D03*
X405892000Y-337820000D03*
X126265000Y-264160000D03*
X139192000Y-261620000D03*
X345340000Y-283210000D03*
X358267000Y-280670000D03*
X183415000Y-264160000D03*
X196342000Y-261620000D03*
X302477500Y-321310000D03*
X315404500Y-318770000D03*
X269140000Y-283210000D03*
X282067000Y-280670000D03*
X197702500Y-302260000D03*
X210629500Y-299720000D03*
X431065000Y-321310000D03*
X443992000Y-318770000D03*
X354865000Y-245110000D03*
X367792000Y-242570000D03*
X164365000Y-245110000D03*
X177292000Y-242570000D03*
X133408750Y-302260000D03*
X146335750Y-299720000D03*
X145315000Y-245110000D03*
X158242000Y-242570000D03*
X154840000Y-283210000D03*
X167767000Y-280670000D03*
X216752500Y-302260000D03*
X229679500Y-299720000D03*
X159602500Y-302260000D03*
X172529500Y-299720000D03*
X250090000Y-283210000D03*
X263017000Y-280670000D03*
X207227500Y-321310000D03*
X220154500Y-318770000D03*
X354865000Y-340360000D03*
X367792000Y-337820000D03*
X278665000Y-264160000D03*
X291592000Y-261620000D03*
X288190000Y-283210000D03*
X301117000Y-280670000D03*
X326290000Y-283210000D03*
X339217000Y-280670000D03*
X235802500Y-302260000D03*
X248729500Y-299720000D03*
X192940000Y-283210000D03*
X205867000Y-280670000D03*
X202465000Y-245110000D03*
X215392000Y-242570000D03*
X307240000Y-283210000D03*
X320167000Y-280670000D03*
X273902500Y-302260000D03*
X286829500Y-299720000D03*
X392965000Y-245110000D03*
X405892000Y-242570000D03*
X383440000Y-264160000D03*
X396367000Y-261620000D03*
X254852500Y-302260000D03*
X267779500Y-299720000D03*
X331052500Y-302260000D03*
X343979500Y-299720000D03*
X173890000Y-340360000D03*
X186817000Y-337820000D03*
X376296250Y-321310000D03*
X389223250Y-318770000D03*
X335815000Y-245110000D03*
X348742000Y-242570000D03*
X221515000Y-264160000D03*
X234442000Y-261620000D03*
X412015000Y-302260000D03*
X424942000Y-299720000D03*
X131027500Y-283210000D03*
X143954500Y-280670000D03*
X283427500Y-321310000D03*
X296354500Y-318770000D03*
X259615000Y-245110000D03*
X272542000Y-242570000D03*
X126265000Y-245110000D03*
X139192000Y-242570000D03*
X245327500Y-321310000D03*
X258254500Y-318770000D03*
X259615000Y-264160000D03*
X272542000Y-261620000D03*
X364390000Y-283210000D03*
X377317000Y-280670000D03*
X297715000Y-264160000D03*
X310642000Y-261620000D03*
X312002500Y-302260000D03*
X324929500Y-299720000D03*
X178652500Y-302260000D03*
X191579500Y-299720000D03*
X169127500Y-321310000D03*
X182054500Y-318770000D03*
X240565000Y-245110000D03*
X253492000Y-242570000D03*
X264377500Y-321310000D03*
X277304500Y-318770000D03*
X431065000Y-283210000D03*
X443992000Y-280670000D03*
X381058750Y-302260000D03*
X393985750Y-299720000D03*
X335815000Y-264160000D03*
X348742000Y-261620000D03*
X226277500Y-321310000D03*
X239204500Y-318770000D03*
X152458750Y-340360000D03*
X165385750Y-337820000D03*
X350102500Y-302260000D03*
X363029500Y-299720000D03*
X211990000Y-283210000D03*
X224917000Y-280670000D03*
X138171250Y-321310000D03*
X151098250Y-318770000D03*
X128646250Y-340360000D03*
X141573250Y-337820000D03*
X373915000Y-340360000D03*
X386842000Y-337820000D03*
X316765000Y-245110000D03*
X329692000Y-242570000D03*
X316765000Y-264160000D03*
X329692000Y-261620000D03*
X240565000Y-264160000D03*
X253492000Y-261620000D03*
X412015000Y-264160000D03*
X424942000Y-261620000D03*
X354865000Y-264160000D03*
X367792000Y-261620000D03*
X231040000Y-283210000D03*
X243967000Y-280670000D03*
X221515000Y-245110000D03*
X234442000Y-242570000D03*
X292952500Y-302260000D03*
X305879500Y-299720000D03*
X335815000Y-340360000D03*
X348742000Y-337820000D03*
X202465000Y-264160000D03*
X215392000Y-261620000D03*
X321527500Y-321310000D03*
X334454500Y-318770000D03*
X183415000Y-245110000D03*
X196342000Y-242570000D03*
X145315000Y-264160000D03*
X158242000Y-261620000D03*
X412015000Y-283210000D03*
X424942000Y-280670000D03*
X173890000Y-283210000D03*
X186817000Y-280670000D03*
X266758750Y-340360000D03*
X279685750Y-337820000D03*
X297715000Y-245110000D03*
X310642000Y-242570000D03*
X431065000Y-302260000D03*
X443992000Y-299720000D03*
X388202500Y-283210000D03*
X401129500Y-280670000D03*
X188177500Y-321310000D03*
X201104500Y-318770000D03*
X412015000Y-340360000D03*
X424942000Y-337820000D03*
D11*
X412750000Y-257237500D03*
X412750000Y-253937500D03*
X236537500Y-250950000D03*
X236537500Y-247650000D03*
X446087500Y-270001000D03*
X446087500Y-266701000D03*
X188912500Y-346137500D03*
X188912500Y-342837500D03*
X317500000Y-327150000D03*
X317500000Y-323850000D03*
X350837500Y-250950000D03*
X350837500Y-247650000D03*
X179387500Y-250950000D03*
X179387500Y-247650000D03*
X212725000Y-308100000D03*
X212725000Y-304800000D03*
X269875000Y-308100000D03*
X269875000Y-304800000D03*
X279400000Y-327150000D03*
X279400000Y-323850000D03*
X250825000Y-308100000D03*
X250825000Y-304800000D03*
X407987500Y-346201000D03*
X407987500Y-342901000D03*
X303212500Y-289050000D03*
X303212500Y-285750000D03*
X141287500Y-250950000D03*
X141287500Y-247650000D03*
X153193750Y-327151000D03*
X153193750Y-323851000D03*
X160337500Y-250950000D03*
X160337500Y-247650000D03*
X288925000Y-308100000D03*
X288925000Y-304800000D03*
X198437500Y-250950000D03*
X198437500Y-247650000D03*
X193675000Y-308100000D03*
X193675000Y-304800000D03*
X241300000Y-327150000D03*
X241300000Y-323850000D03*
X255587500Y-250950000D03*
X255587500Y-247650000D03*
X298450000Y-327150000D03*
X298450000Y-323850000D03*
X217487500Y-270000000D03*
X217487500Y-266700000D03*
X143668750Y-346200000D03*
X143668750Y-342900000D03*
X360362500Y-289050000D03*
X360362500Y-285750000D03*
X217487500Y-250950000D03*
X217487500Y-247650000D03*
X331787500Y-270000000D03*
X331787500Y-266700000D03*
X407987500Y-250950000D03*
X407987500Y-247650000D03*
X188912500Y-289050000D03*
X188912500Y-285750000D03*
X444500000Y-257237500D03*
X444500000Y-253937500D03*
X174625000Y-308100000D03*
X174625000Y-304800000D03*
X403225000Y-289050000D03*
X403225000Y-285750000D03*
X446087500Y-289050000D03*
X446087500Y-285750000D03*
X388937500Y-346201000D03*
X388937500Y-342901000D03*
X227012500Y-289050000D03*
X227012500Y-285750000D03*
X265112500Y-289050000D03*
X265112500Y-285750000D03*
X255587500Y-270000000D03*
X255587500Y-266700000D03*
X307975000Y-308100000D03*
X307975000Y-304800000D03*
X284162500Y-289050000D03*
X284162500Y-285750000D03*
X446087500Y-308101000D03*
X446087500Y-304801000D03*
X169862500Y-289050000D03*
X169862500Y-285750000D03*
X203200000Y-327150000D03*
X203200000Y-323850000D03*
X427037500Y-308101000D03*
X427037500Y-304801000D03*
X322262500Y-289050000D03*
X322262500Y-285750000D03*
X179387500Y-270000000D03*
X179387500Y-266700000D03*
X260350000Y-327150000D03*
X260350000Y-323850000D03*
X379412500Y-289050000D03*
X379412500Y-285750000D03*
X369887500Y-270000000D03*
X369887500Y-266700000D03*
X396081250Y-308101000D03*
X396081250Y-304801000D03*
X425450000Y-257237500D03*
X425450000Y-253937500D03*
X365125000Y-308100000D03*
X365125000Y-304800000D03*
X331787500Y-250950000D03*
X331787500Y-247650000D03*
X327025000Y-308100000D03*
X327025000Y-304800000D03*
X450056250Y-300100000D03*
X450056250Y-296800000D03*
X427037500Y-346201000D03*
X427037500Y-342901000D03*
X446087500Y-346201000D03*
X446087500Y-342901000D03*
X446087500Y-327150000D03*
X446087500Y-323850000D03*
X391318750Y-327150000D03*
X391318750Y-323850000D03*
X274637500Y-250950000D03*
X274637500Y-247650000D03*
X431800000Y-257237500D03*
X431800000Y-253937500D03*
X369887500Y-250950000D03*
X369887500Y-247650000D03*
X236537500Y-270000000D03*
X236537500Y-266700000D03*
X184150000Y-327150000D03*
X184150000Y-323850000D03*
X341312500Y-289050000D03*
X341312500Y-285750000D03*
X198437500Y-270000000D03*
X198437500Y-266700000D03*
X231775000Y-308100000D03*
X231775000Y-304800000D03*
X148431250Y-308100000D03*
X148431250Y-304800000D03*
X350837500Y-270000000D03*
X350837500Y-266700000D03*
X346075000Y-308100000D03*
X346075000Y-304800000D03*
X369887500Y-346201000D03*
X369887500Y-342901000D03*
X141287500Y-270000000D03*
X141287500Y-266700000D03*
X167481250Y-346200000D03*
X167481250Y-342900000D03*
X281781250Y-346201000D03*
X281781250Y-342901000D03*
X146050000Y-289050000D03*
X146050000Y-285750000D03*
X160337500Y-270000000D03*
X160337500Y-266700000D03*
X465137500Y-346201000D03*
X465137500Y-342901000D03*
X427037500Y-270002000D03*
X427037500Y-266702000D03*
X350837500Y-346201000D03*
X350837500Y-342901000D03*
X246062500Y-289050000D03*
X246062500Y-285750000D03*
X312737500Y-250950000D03*
X312737500Y-247650000D03*
X207962500Y-289050000D03*
X207962500Y-285750000D03*
X336550000Y-327150000D03*
X336550000Y-323850000D03*
X293687500Y-250950000D03*
X293687500Y-247650000D03*
X274637500Y-270000000D03*
X274637500Y-266700000D03*
X427037500Y-289050000D03*
X427037500Y-285750000D03*
X312737500Y-270000000D03*
X312737500Y-266700000D03*
D12*
X471170000Y-240665000D03*
X471170000Y-243205000D03*
X471170000Y-245745000D03*
X471170000Y-248285000D03*
X471170000Y-250825000D03*
X471170000Y-253365000D03*
X471170000Y-255905000D03*
X471170000Y-258445000D03*
X471170000Y-260985000D03*
X471170000Y-263525000D03*
X471170000Y-266065000D03*
X471170000Y-268605000D03*
X471170000Y-271145000D03*
X471170000Y-273685000D03*
X471170000Y-276225000D03*
X471170000Y-278765000D03*
X471170000Y-281305000D03*
X471170000Y-283845000D03*
X471170000Y-286385000D03*
X471170000Y-288925000D03*
X455930000Y-240665000D03*
X455930000Y-243205000D03*
X455930000Y-245745000D03*
X455930000Y-248285000D03*
X455930000Y-250825000D03*
X455930000Y-253365000D03*
X455930000Y-255905000D03*
X455930000Y-258445000D03*
X455930000Y-260985000D03*
X455930000Y-263525000D03*
X455930000Y-266065000D03*
X455930000Y-268605000D03*
X455930000Y-271145000D03*
X455930000Y-273685000D03*
X455930000Y-276225000D03*
X455930000Y-278765000D03*
X455930000Y-281305000D03*
X455930000Y-283845000D03*
X455930000Y-286385000D03*
X455930000Y-288925000D03*
D11*
X398462500Y-270001000D03*
X398462500Y-266701000D03*
X355600000Y-327150000D03*
X355600000Y-323850000D03*
X210343750Y-346201000D03*
X210343750Y-342901000D03*
X293687500Y-270000000D03*
X293687500Y-266700000D03*
X222250000Y-327150000D03*
X222250000Y-323850000D03*
M02*
