G04 #@! TF.GenerationSoftware,KiCad,Pcbnew,8.0.7*
G04 #@! TF.CreationDate,2025-03-15T22:58:08-07:00*
G04 #@! TF.ProjectId,keyboard,6b657962-6f61-4726-942e-6b696361645f,rev?*
G04 #@! TF.SameCoordinates,Original*
G04 #@! TF.FileFunction,Soldermask,Bot*
G04 #@! TF.FilePolarity,Negative*
%FSLAX46Y46*%
G04 Gerber Fmt 4.6, Leading zero omitted, Abs format (unit mm)*
G04 Created by KiCad (PCBNEW 8.0.7) date 2025-03-15 22:58:08*
%MOMM*%
%LPD*%
G01*
G04 APERTURE LIST*
G04 Aperture macros list*
%AMRoundRect*
0 Rectangle with rounded corners*
0 $1 Rounding radius*
0 $2 $3 $4 $5 $6 $7 $8 $9 X,Y pos of 4 corners*
0 Add a 4 corners polygon primitive as box body*
4,1,4,$2,$3,$4,$5,$6,$7,$8,$9,$2,$3,0*
0 Add four circle primitives for the rounded corners*
1,1,$1+$1,$2,$3*
1,1,$1+$1,$4,$5*
1,1,$1+$1,$6,$7*
1,1,$1+$1,$8,$9*
0 Add four rect primitives between the rounded corners*
20,1,$1+$1,$2,$3,$4,$5,0*
20,1,$1+$1,$4,$5,$6,$7,0*
20,1,$1+$1,$6,$7,$8,$9,0*
20,1,$1+$1,$8,$9,$2,$3,0*%
G04 Aperture macros list end*
%ADD10R,2.000000X2.000000*%
%ADD11C,2.000000*%
%ADD12R,2.500000X3.000000*%
%ADD13C,1.750000*%
%ADD14C,3.000000*%
%ADD15C,3.987800*%
%ADD16R,2.550000X2.500000*%
%ADD17C,4.300000*%
%ADD18R,3.000000X2.500000*%
%ADD19C,3.048000*%
%ADD20RoundRect,0.225000X0.375000X-0.225000X0.375000X0.225000X-0.375000X0.225000X-0.375000X-0.225000X0*%
%ADD21C,1.524000*%
G04 APERTURE END LIST*
D10*
X462037500Y-296506250D03*
D11*
X457037500Y-296506250D03*
X459537500Y-296506250D03*
D12*
X465137500Y-304006250D03*
X453937500Y-304006250D03*
D11*
X462037500Y-311006250D03*
X457037500Y-311006250D03*
D13*
X452120000Y-342900000D03*
D14*
X453390000Y-340360000D03*
D15*
X457200000Y-342900000D03*
D14*
X459740000Y-337820000D03*
D13*
X462280000Y-342900000D03*
D16*
X450115000Y-340360000D03*
X463042000Y-337820000D03*
D13*
X166370000Y-266700000D03*
D14*
X167640000Y-264160000D03*
D15*
X171450000Y-266700000D03*
D14*
X173990000Y-261620000D03*
D13*
X176530000Y-266700000D03*
D16*
X164365000Y-264160000D03*
X177292000Y-261620000D03*
D13*
X280670000Y-247650000D03*
D14*
X281940000Y-245110000D03*
D15*
X285750000Y-247650000D03*
D14*
X288290000Y-242570000D03*
D13*
X290830000Y-247650000D03*
D16*
X278665000Y-245110000D03*
X291592000Y-242570000D03*
D13*
X433070000Y-342900000D03*
D14*
X434340000Y-340360000D03*
D15*
X438150000Y-342900000D03*
D14*
X440690000Y-337820000D03*
D13*
X443230000Y-342900000D03*
D16*
X431065000Y-340360000D03*
X443992000Y-337820000D03*
D13*
X197326250Y-342900000D03*
D14*
X198596250Y-340360000D03*
D15*
X202406250Y-342900000D03*
D14*
X204946250Y-337820000D03*
D13*
X207486250Y-342900000D03*
D16*
X195321250Y-340360000D03*
X208248250Y-337820000D03*
D13*
X433070000Y-266700000D03*
D14*
X434340000Y-264160000D03*
D15*
X438150000Y-266700000D03*
D14*
X440690000Y-261620000D03*
D13*
X443230000Y-266700000D03*
D16*
X431065000Y-264160000D03*
X443992000Y-261620000D03*
D17*
X251460000Y-342900000D03*
D13*
X342582500Y-323850000D03*
D14*
X343852500Y-321310000D03*
D15*
X347662500Y-323850000D03*
D14*
X350202500Y-318770000D03*
D13*
X352742500Y-323850000D03*
D16*
X340577500Y-321310000D03*
X353504500Y-318770000D03*
D13*
X394970000Y-342900000D03*
D14*
X396240000Y-340360000D03*
D15*
X400050000Y-342900000D03*
D14*
X402590000Y-337820000D03*
D13*
X405130000Y-342900000D03*
D16*
X392965000Y-340360000D03*
X405892000Y-337820000D03*
D13*
X128270000Y-266700000D03*
D14*
X129540000Y-264160000D03*
D15*
X133350000Y-266700000D03*
D14*
X135890000Y-261620000D03*
D13*
X138430000Y-266700000D03*
D16*
X126265000Y-264160000D03*
X139192000Y-261620000D03*
D13*
X347345000Y-285750000D03*
D14*
X348615000Y-283210000D03*
D15*
X352425000Y-285750000D03*
D14*
X354965000Y-280670000D03*
D13*
X357505000Y-285750000D03*
D16*
X345340000Y-283210000D03*
X358267000Y-280670000D03*
D13*
X185420000Y-266700000D03*
D14*
X186690000Y-264160000D03*
D15*
X190500000Y-266700000D03*
D14*
X193040000Y-261620000D03*
D13*
X195580000Y-266700000D03*
D16*
X183415000Y-264160000D03*
X196342000Y-261620000D03*
D13*
X304482500Y-323850000D03*
D14*
X305752500Y-321310000D03*
D15*
X309562500Y-323850000D03*
D14*
X312102500Y-318770000D03*
D13*
X314642500Y-323850000D03*
D16*
X302477500Y-321310000D03*
X315404500Y-318770000D03*
D13*
X271145000Y-285750000D03*
D14*
X272415000Y-283210000D03*
D15*
X276225000Y-285750000D03*
D14*
X278765000Y-280670000D03*
D13*
X281305000Y-285750000D03*
D16*
X269140000Y-283210000D03*
X282067000Y-280670000D03*
D13*
X199707500Y-304800000D03*
D14*
X200977500Y-302260000D03*
D15*
X204787500Y-304800000D03*
D14*
X207327500Y-299720000D03*
D13*
X209867500Y-304800000D03*
D16*
X197702500Y-302260000D03*
X210629500Y-299720000D03*
D17*
X390525000Y-232410000D03*
D13*
X433070000Y-323850000D03*
D14*
X434340000Y-321310000D03*
D15*
X438150000Y-323850000D03*
D14*
X440690000Y-318770000D03*
D13*
X443230000Y-323850000D03*
D16*
X431065000Y-321310000D03*
X443992000Y-318770000D03*
D13*
X356870000Y-247650000D03*
D14*
X358140000Y-245110000D03*
D15*
X361950000Y-247650000D03*
D14*
X364490000Y-242570000D03*
D13*
X367030000Y-247650000D03*
D16*
X354865000Y-245110000D03*
X367792000Y-242570000D03*
D13*
X166370000Y-247650000D03*
D14*
X167640000Y-245110000D03*
D15*
X171450000Y-247650000D03*
D14*
X173990000Y-242570000D03*
D13*
X176530000Y-247650000D03*
D16*
X164365000Y-245110000D03*
X177292000Y-242570000D03*
D13*
X135413750Y-304800000D03*
D14*
X136683750Y-302260000D03*
D15*
X140493750Y-304800000D03*
D14*
X143033750Y-299720000D03*
D13*
X145573750Y-304800000D03*
D16*
X133408750Y-302260000D03*
X146335750Y-299720000D03*
D13*
X147320000Y-247650000D03*
D14*
X148590000Y-245110000D03*
D15*
X152400000Y-247650000D03*
D14*
X154940000Y-242570000D03*
D13*
X157480000Y-247650000D03*
D16*
X145315000Y-245110000D03*
X158242000Y-242570000D03*
D13*
X156845000Y-285750000D03*
D14*
X158115000Y-283210000D03*
D15*
X161925000Y-285750000D03*
D14*
X164465000Y-280670000D03*
D13*
X167005000Y-285750000D03*
D16*
X154840000Y-283210000D03*
X167767000Y-280670000D03*
D13*
X218757500Y-304800000D03*
D14*
X220027500Y-302260000D03*
D15*
X223837500Y-304800000D03*
D14*
X226377500Y-299720000D03*
D13*
X228917500Y-304800000D03*
D16*
X216752500Y-302260000D03*
X229679500Y-299720000D03*
D13*
X161607500Y-304800000D03*
D14*
X162877500Y-302260000D03*
D15*
X166687500Y-304800000D03*
D14*
X169227500Y-299720000D03*
D13*
X171767500Y-304800000D03*
D16*
X159602500Y-302260000D03*
X172529500Y-299720000D03*
D13*
X252095000Y-285750000D03*
D14*
X253365000Y-283210000D03*
D15*
X257175000Y-285750000D03*
D14*
X259715000Y-280670000D03*
D13*
X262255000Y-285750000D03*
D16*
X250090000Y-283210000D03*
X263017000Y-280670000D03*
D10*
X411850000Y-244356250D03*
D11*
X411850000Y-249356250D03*
X411850000Y-246856250D03*
D18*
X419350000Y-241256250D03*
X419350000Y-252456250D03*
D11*
X426350000Y-244356250D03*
X426350000Y-249356250D03*
D13*
X209232500Y-323850000D03*
D14*
X210502500Y-321310000D03*
D15*
X214312500Y-323850000D03*
D14*
X216852500Y-318770000D03*
D13*
X219392500Y-323850000D03*
D16*
X207227500Y-321310000D03*
X220154500Y-318770000D03*
D13*
X356870000Y-342900000D03*
D14*
X358140000Y-340360000D03*
D15*
X361950000Y-342900000D03*
D14*
X364490000Y-337820000D03*
D13*
X367030000Y-342900000D03*
D16*
X354865000Y-340360000D03*
X367792000Y-337820000D03*
D13*
X280670000Y-266700000D03*
D14*
X281940000Y-264160000D03*
D15*
X285750000Y-266700000D03*
D14*
X288290000Y-261620000D03*
D13*
X290830000Y-266700000D03*
D16*
X278665000Y-264160000D03*
X291592000Y-261620000D03*
D13*
X290195000Y-285750000D03*
D14*
X291465000Y-283210000D03*
D15*
X295275000Y-285750000D03*
D14*
X297815000Y-280670000D03*
D13*
X300355000Y-285750000D03*
D16*
X288190000Y-283210000D03*
X301117000Y-280670000D03*
D13*
X328295000Y-285750000D03*
D14*
X329565000Y-283210000D03*
D15*
X333375000Y-285750000D03*
D14*
X335915000Y-280670000D03*
D13*
X338455000Y-285750000D03*
D16*
X326290000Y-283210000D03*
X339217000Y-280670000D03*
D13*
X237807500Y-304800000D03*
D14*
X239077500Y-302260000D03*
D15*
X242887500Y-304800000D03*
D14*
X245427500Y-299720000D03*
D13*
X247967500Y-304800000D03*
D16*
X235802500Y-302260000D03*
X248729500Y-299720000D03*
D13*
X194945000Y-285750000D03*
D14*
X196215000Y-283210000D03*
D15*
X200025000Y-285750000D03*
D14*
X202565000Y-280670000D03*
D13*
X205105000Y-285750000D03*
D16*
X192940000Y-283210000D03*
X205867000Y-280670000D03*
D13*
X204470000Y-247650000D03*
D14*
X205740000Y-245110000D03*
D15*
X209550000Y-247650000D03*
D14*
X212090000Y-242570000D03*
D13*
X214630000Y-247650000D03*
D16*
X202465000Y-245110000D03*
X215392000Y-242570000D03*
D13*
X309245000Y-285750000D03*
D14*
X310515000Y-283210000D03*
D15*
X314325000Y-285750000D03*
D14*
X316865000Y-280670000D03*
D13*
X319405000Y-285750000D03*
D16*
X307240000Y-283210000D03*
X320167000Y-280670000D03*
D13*
X275907500Y-304800000D03*
D14*
X277177500Y-302260000D03*
D15*
X280987500Y-304800000D03*
D14*
X283527500Y-299720000D03*
D13*
X286067500Y-304800000D03*
D16*
X273902500Y-302260000D03*
X286829500Y-299720000D03*
D13*
X394970000Y-247650000D03*
D14*
X396240000Y-245110000D03*
D15*
X400050000Y-247650000D03*
D14*
X402590000Y-242570000D03*
D13*
X405130000Y-247650000D03*
D16*
X392965000Y-245110000D03*
X405892000Y-242570000D03*
D19*
X378587000Y-259715000D03*
D15*
X378587000Y-274955000D03*
D13*
X385445000Y-266700000D03*
D14*
X386715000Y-264160000D03*
D15*
X390525000Y-266700000D03*
D14*
X393065000Y-261620000D03*
D13*
X395605000Y-266700000D03*
D19*
X402463000Y-259715000D03*
D15*
X402463000Y-274955000D03*
D16*
X383440000Y-264160000D03*
X396367000Y-261620000D03*
D13*
X256857500Y-304800000D03*
D14*
X258127500Y-302260000D03*
D15*
X261937500Y-304800000D03*
D14*
X264477500Y-299720000D03*
D13*
X267017500Y-304800000D03*
D16*
X254852500Y-302260000D03*
X267779500Y-299720000D03*
D13*
X333057500Y-304800000D03*
D14*
X334327500Y-302260000D03*
D15*
X338137500Y-304800000D03*
D14*
X340677500Y-299720000D03*
D13*
X343217500Y-304800000D03*
D16*
X331052500Y-302260000D03*
X343979500Y-299720000D03*
D17*
X118110000Y-358140000D03*
X481330000Y-358140000D03*
D13*
X175895000Y-342900000D03*
D14*
X177165000Y-340360000D03*
D15*
X180975000Y-342900000D03*
D14*
X183515000Y-337820000D03*
D13*
X186055000Y-342900000D03*
D16*
X173890000Y-340360000D03*
X186817000Y-337820000D03*
D19*
X371443250Y-316865000D03*
D15*
X371443250Y-332105000D03*
D13*
X378301250Y-323850000D03*
D14*
X379571250Y-321310000D03*
D15*
X383381250Y-323850000D03*
D14*
X385921250Y-318770000D03*
D13*
X388461250Y-323850000D03*
D19*
X395319250Y-316865000D03*
D15*
X395319250Y-332105000D03*
D16*
X376296250Y-321310000D03*
X389223250Y-318770000D03*
D13*
X337820000Y-247650000D03*
D14*
X339090000Y-245110000D03*
D15*
X342900000Y-247650000D03*
D14*
X345440000Y-242570000D03*
D13*
X347980000Y-247650000D03*
D16*
X335815000Y-245110000D03*
X348742000Y-242570000D03*
D13*
X223520000Y-266700000D03*
D14*
X224790000Y-264160000D03*
D15*
X228600000Y-266700000D03*
D14*
X231140000Y-261620000D03*
D13*
X233680000Y-266700000D03*
D16*
X221515000Y-264160000D03*
X234442000Y-261620000D03*
D13*
X414020000Y-304800000D03*
D14*
X415290000Y-302260000D03*
D15*
X419100000Y-304800000D03*
D14*
X421640000Y-299720000D03*
D13*
X424180000Y-304800000D03*
D16*
X412015000Y-302260000D03*
X424942000Y-299720000D03*
D13*
X133032500Y-285750000D03*
D14*
X134302500Y-283210000D03*
D15*
X138112500Y-285750000D03*
D14*
X140652500Y-280670000D03*
D13*
X143192500Y-285750000D03*
D16*
X131027500Y-283210000D03*
X143954500Y-280670000D03*
D13*
X285432500Y-323850000D03*
D14*
X286702500Y-321310000D03*
D15*
X290512500Y-323850000D03*
D14*
X293052500Y-318770000D03*
D13*
X295592500Y-323850000D03*
D16*
X283427500Y-321310000D03*
X296354500Y-318770000D03*
D13*
X261620000Y-247650000D03*
D14*
X262890000Y-245110000D03*
D15*
X266700000Y-247650000D03*
D14*
X269240000Y-242570000D03*
D13*
X271780000Y-247650000D03*
D16*
X259615000Y-245110000D03*
X272542000Y-242570000D03*
D13*
X128270000Y-247650000D03*
D14*
X129540000Y-245110000D03*
D15*
X133350000Y-247650000D03*
D14*
X135890000Y-242570000D03*
D13*
X138430000Y-247650000D03*
D16*
X126265000Y-245110000D03*
X139192000Y-242570000D03*
D13*
X247332500Y-323850000D03*
D14*
X248602500Y-321310000D03*
D15*
X252412500Y-323850000D03*
D14*
X254952500Y-318770000D03*
D13*
X257492500Y-323850000D03*
D16*
X245327500Y-321310000D03*
X258254500Y-318770000D03*
D13*
X261620000Y-266700000D03*
D14*
X262890000Y-264160000D03*
D15*
X266700000Y-266700000D03*
D14*
X269240000Y-261620000D03*
D13*
X271780000Y-266700000D03*
D16*
X259615000Y-264160000D03*
X272542000Y-261620000D03*
D13*
X366395000Y-285750000D03*
D14*
X367665000Y-283210000D03*
D15*
X371475000Y-285750000D03*
D14*
X374015000Y-280670000D03*
D13*
X376555000Y-285750000D03*
D16*
X364390000Y-283210000D03*
X377317000Y-280670000D03*
D13*
X299720000Y-266700000D03*
D14*
X300990000Y-264160000D03*
D15*
X304800000Y-266700000D03*
D14*
X307340000Y-261620000D03*
D13*
X309880000Y-266700000D03*
D16*
X297715000Y-264160000D03*
X310642000Y-261620000D03*
D13*
X314007500Y-304800000D03*
D14*
X315277500Y-302260000D03*
D15*
X319087500Y-304800000D03*
D14*
X321627500Y-299720000D03*
D13*
X324167500Y-304800000D03*
D16*
X312002500Y-302260000D03*
X324929500Y-299720000D03*
D13*
X180657500Y-304800000D03*
D14*
X181927500Y-302260000D03*
D15*
X185737500Y-304800000D03*
D14*
X188277500Y-299720000D03*
D13*
X190817500Y-304800000D03*
D16*
X178652500Y-302260000D03*
X191579500Y-299720000D03*
D13*
X171132500Y-323850000D03*
D14*
X172402500Y-321310000D03*
D15*
X176212500Y-323850000D03*
D14*
X178752500Y-318770000D03*
D13*
X181292500Y-323850000D03*
D16*
X169127500Y-321310000D03*
X182054500Y-318770000D03*
D13*
X242570000Y-247650000D03*
D14*
X243840000Y-245110000D03*
D15*
X247650000Y-247650000D03*
D14*
X250190000Y-242570000D03*
D13*
X252730000Y-247650000D03*
D16*
X240565000Y-245110000D03*
X253492000Y-242570000D03*
D13*
X266382500Y-323850000D03*
D14*
X267652500Y-321310000D03*
D15*
X271462500Y-323850000D03*
D14*
X274002500Y-318770000D03*
D13*
X276542500Y-323850000D03*
D16*
X264377500Y-321310000D03*
X277304500Y-318770000D03*
D13*
X433070000Y-285750000D03*
D14*
X434340000Y-283210000D03*
D15*
X438150000Y-285750000D03*
D14*
X440690000Y-280670000D03*
D13*
X443230000Y-285750000D03*
D16*
X431065000Y-283210000D03*
X443992000Y-280670000D03*
D19*
X376205750Y-297815000D03*
D15*
X376205750Y-313055000D03*
D13*
X383063750Y-304800000D03*
D14*
X384333750Y-302260000D03*
D15*
X388143750Y-304800000D03*
D14*
X390683750Y-299720000D03*
D13*
X393223750Y-304800000D03*
D19*
X400081750Y-297815000D03*
D15*
X400081750Y-313055000D03*
D16*
X381058750Y-302260000D03*
X393985750Y-299720000D03*
D13*
X337820000Y-266700000D03*
D14*
X339090000Y-264160000D03*
D15*
X342900000Y-266700000D03*
D14*
X345440000Y-261620000D03*
D13*
X347980000Y-266700000D03*
D16*
X335815000Y-264160000D03*
X348742000Y-261620000D03*
D17*
X481330000Y-232410000D03*
D13*
X228282500Y-323850000D03*
D14*
X229552500Y-321310000D03*
D15*
X233362500Y-323850000D03*
D14*
X235902500Y-318770000D03*
D13*
X238442500Y-323850000D03*
D16*
X226277500Y-321310000D03*
X239204500Y-318770000D03*
D13*
X154463750Y-342900000D03*
D14*
X155733750Y-340360000D03*
D15*
X159543750Y-342900000D03*
D14*
X162083750Y-337820000D03*
D13*
X164623750Y-342900000D03*
D16*
X152458750Y-340360000D03*
X165385750Y-337820000D03*
D13*
X352107500Y-304800000D03*
D14*
X353377500Y-302260000D03*
D15*
X357187500Y-304800000D03*
D14*
X359727500Y-299720000D03*
D13*
X362267500Y-304800000D03*
D16*
X350102500Y-302260000D03*
X363029500Y-299720000D03*
D13*
X213995000Y-285750000D03*
D14*
X215265000Y-283210000D03*
D15*
X219075000Y-285750000D03*
D14*
X221615000Y-280670000D03*
D13*
X224155000Y-285750000D03*
D16*
X211990000Y-283210000D03*
X224917000Y-280670000D03*
D19*
X133318250Y-316865000D03*
D15*
X133318250Y-332105000D03*
D13*
X140176250Y-323850000D03*
D14*
X141446250Y-321310000D03*
D15*
X145256250Y-323850000D03*
D14*
X147796250Y-318770000D03*
D13*
X150336250Y-323850000D03*
D19*
X157194250Y-316865000D03*
D15*
X157194250Y-332105000D03*
D16*
X138171250Y-321310000D03*
X151098250Y-318770000D03*
D17*
X208915000Y-232410000D03*
D13*
X130651250Y-342900000D03*
D14*
X131921250Y-340360000D03*
D15*
X135731250Y-342900000D03*
D14*
X138271250Y-337820000D03*
D13*
X140811250Y-342900000D03*
D16*
X128646250Y-340360000D03*
X141573250Y-337820000D03*
D10*
X430900000Y-244356250D03*
D11*
X430900000Y-249356250D03*
X430900000Y-246856250D03*
D18*
X438400000Y-241256250D03*
X438400000Y-252456250D03*
D11*
X445400000Y-244356250D03*
X445400000Y-249356250D03*
D13*
X375920000Y-342900000D03*
D14*
X377190000Y-340360000D03*
D15*
X381000000Y-342900000D03*
D14*
X383540000Y-337820000D03*
D13*
X386080000Y-342900000D03*
D16*
X373915000Y-340360000D03*
X386842000Y-337820000D03*
D13*
X318770000Y-247650000D03*
D14*
X320040000Y-245110000D03*
D15*
X323850000Y-247650000D03*
D14*
X326390000Y-242570000D03*
D13*
X328930000Y-247650000D03*
D16*
X316765000Y-245110000D03*
X329692000Y-242570000D03*
D13*
X318770000Y-266700000D03*
D14*
X320040000Y-264160000D03*
D15*
X323850000Y-266700000D03*
D14*
X326390000Y-261620000D03*
D13*
X328930000Y-266700000D03*
D16*
X316765000Y-264160000D03*
X329692000Y-261620000D03*
D13*
X242570000Y-266700000D03*
D14*
X243840000Y-264160000D03*
D15*
X247650000Y-266700000D03*
D14*
X250190000Y-261620000D03*
D13*
X252730000Y-266700000D03*
D16*
X240565000Y-264160000D03*
X253492000Y-261620000D03*
D13*
X414020000Y-266700000D03*
D14*
X415290000Y-264160000D03*
D15*
X419100000Y-266700000D03*
D14*
X421640000Y-261620000D03*
D13*
X424180000Y-266700000D03*
D16*
X412015000Y-264160000D03*
X424942000Y-261620000D03*
D13*
X356870000Y-266700000D03*
D14*
X358140000Y-264160000D03*
D15*
X361950000Y-266700000D03*
D14*
X364490000Y-261620000D03*
D13*
X367030000Y-266700000D03*
D16*
X354865000Y-264160000D03*
X367792000Y-261620000D03*
D13*
X233045000Y-285750000D03*
D14*
X234315000Y-283210000D03*
D15*
X238125000Y-285750000D03*
D14*
X240665000Y-280670000D03*
D13*
X243205000Y-285750000D03*
D16*
X231040000Y-283210000D03*
X243967000Y-280670000D03*
D13*
X223520000Y-247650000D03*
D14*
X224790000Y-245110000D03*
D15*
X228600000Y-247650000D03*
D14*
X231140000Y-242570000D03*
D13*
X233680000Y-247650000D03*
D16*
X221515000Y-245110000D03*
X234442000Y-242570000D03*
D13*
X294957500Y-304800000D03*
D14*
X296227500Y-302260000D03*
D15*
X300037500Y-304800000D03*
D14*
X302577500Y-299720000D03*
D13*
X305117500Y-304800000D03*
D16*
X292952500Y-302260000D03*
X305879500Y-299720000D03*
D13*
X337820000Y-342900000D03*
D14*
X339090000Y-340360000D03*
D15*
X342900000Y-342900000D03*
D14*
X345440000Y-337820000D03*
D13*
X347980000Y-342900000D03*
D16*
X335815000Y-340360000D03*
X348742000Y-337820000D03*
D17*
X118110000Y-232410000D03*
D13*
X204470000Y-266700000D03*
D14*
X205740000Y-264160000D03*
D15*
X209550000Y-266700000D03*
D14*
X212090000Y-261620000D03*
D13*
X214630000Y-266700000D03*
D16*
X202465000Y-264160000D03*
X215392000Y-261620000D03*
D17*
X296545000Y-342900000D03*
D13*
X323532500Y-323850000D03*
D14*
X324802500Y-321310000D03*
D15*
X328612500Y-323850000D03*
D14*
X331152500Y-318770000D03*
D13*
X333692500Y-323850000D03*
D16*
X321527500Y-321310000D03*
X334454500Y-318770000D03*
D13*
X185420000Y-247650000D03*
D14*
X186690000Y-245110000D03*
D15*
X190500000Y-247650000D03*
D14*
X193040000Y-242570000D03*
D13*
X195580000Y-247650000D03*
D16*
X183415000Y-245110000D03*
X196342000Y-242570000D03*
D13*
X147320000Y-266700000D03*
D14*
X148590000Y-264160000D03*
D15*
X152400000Y-266700000D03*
D14*
X154940000Y-261620000D03*
D13*
X157480000Y-266700000D03*
D16*
X145315000Y-264160000D03*
X158242000Y-261620000D03*
D13*
X414020000Y-285750000D03*
D14*
X415290000Y-283210000D03*
D15*
X419100000Y-285750000D03*
D14*
X421640000Y-280670000D03*
D13*
X424180000Y-285750000D03*
D16*
X412015000Y-283210000D03*
X424942000Y-280670000D03*
D13*
X175895000Y-285750000D03*
D14*
X177165000Y-283210000D03*
D15*
X180975000Y-285750000D03*
D14*
X183515000Y-280670000D03*
D13*
X186055000Y-285750000D03*
D16*
X173890000Y-283210000D03*
X186817000Y-280670000D03*
D19*
X223843850Y-335915000D03*
D15*
X223843850Y-351155000D03*
D13*
X268763750Y-342900000D03*
D14*
X270033750Y-340360000D03*
D15*
X273843750Y-342900000D03*
D14*
X276383750Y-337820000D03*
D13*
X278923750Y-342900000D03*
D19*
X323843650Y-335915000D03*
D15*
X323843650Y-351155000D03*
D16*
X266758750Y-340360000D03*
X279685750Y-337820000D03*
D13*
X299720000Y-247650000D03*
D14*
X300990000Y-245110000D03*
D15*
X304800000Y-247650000D03*
D14*
X307340000Y-242570000D03*
D13*
X309880000Y-247650000D03*
D16*
X297715000Y-245110000D03*
X310642000Y-242570000D03*
D13*
X433070000Y-304800000D03*
D14*
X434340000Y-302260000D03*
D15*
X438150000Y-304800000D03*
D14*
X440690000Y-299720000D03*
D13*
X443230000Y-304800000D03*
D16*
X431065000Y-302260000D03*
X443992000Y-299720000D03*
D13*
X390207500Y-285750000D03*
D14*
X391477500Y-283210000D03*
D15*
X395287500Y-285750000D03*
D14*
X397827500Y-280670000D03*
D13*
X400367500Y-285750000D03*
D16*
X388202500Y-283210000D03*
X401129500Y-280670000D03*
D13*
X190182500Y-323850000D03*
D14*
X191452500Y-321310000D03*
D15*
X195262500Y-323850000D03*
D14*
X197802500Y-318770000D03*
D13*
X200342500Y-323850000D03*
D16*
X188177500Y-321310000D03*
X201104500Y-318770000D03*
D13*
X414020000Y-342900000D03*
D14*
X415290000Y-340360000D03*
D15*
X419100000Y-342900000D03*
D14*
X421640000Y-337820000D03*
D13*
X424180000Y-342900000D03*
D16*
X412015000Y-340360000D03*
X424942000Y-337820000D03*
D20*
X412750000Y-257237500D03*
X412750000Y-253937500D03*
X236537500Y-250950000D03*
X236537500Y-247650000D03*
X446087500Y-270001000D03*
X446087500Y-266701000D03*
X188912500Y-346137500D03*
X188912500Y-342837500D03*
X317500000Y-327150000D03*
X317500000Y-323850000D03*
X350837500Y-250950000D03*
X350837500Y-247650000D03*
X179387500Y-250950000D03*
X179387500Y-247650000D03*
X212725000Y-308100000D03*
X212725000Y-304800000D03*
X269875000Y-308100000D03*
X269875000Y-304800000D03*
X279400000Y-327150000D03*
X279400000Y-323850000D03*
X250825000Y-308100000D03*
X250825000Y-304800000D03*
X407987500Y-346201000D03*
X407987500Y-342901000D03*
X303212500Y-289050000D03*
X303212500Y-285750000D03*
X141287500Y-250950000D03*
X141287500Y-247650000D03*
X153193750Y-327151000D03*
X153193750Y-323851000D03*
X160337500Y-250950000D03*
X160337500Y-247650000D03*
X288925000Y-308100000D03*
X288925000Y-304800000D03*
X198437500Y-250950000D03*
X198437500Y-247650000D03*
X193675000Y-308100000D03*
X193675000Y-304800000D03*
X241300000Y-327150000D03*
X241300000Y-323850000D03*
X255587500Y-250950000D03*
X255587500Y-247650000D03*
X298450000Y-327150000D03*
X298450000Y-323850000D03*
X217487500Y-270000000D03*
X217487500Y-266700000D03*
X143668750Y-346200000D03*
X143668750Y-342900000D03*
X360362500Y-289050000D03*
X360362500Y-285750000D03*
X217487500Y-250950000D03*
X217487500Y-247650000D03*
X331787500Y-270000000D03*
X331787500Y-266700000D03*
X407987500Y-250950000D03*
X407987500Y-247650000D03*
X188912500Y-289050000D03*
X188912500Y-285750000D03*
X444500000Y-257237500D03*
X444500000Y-253937500D03*
X174625000Y-308100000D03*
X174625000Y-304800000D03*
X403225000Y-289050000D03*
X403225000Y-285750000D03*
X446087500Y-289050000D03*
X446087500Y-285750000D03*
X388937500Y-346201000D03*
X388937500Y-342901000D03*
X227012500Y-289050000D03*
X227012500Y-285750000D03*
X265112500Y-289050000D03*
X265112500Y-285750000D03*
X255587500Y-270000000D03*
X255587500Y-266700000D03*
X307975000Y-308100000D03*
X307975000Y-304800000D03*
X284162500Y-289050000D03*
X284162500Y-285750000D03*
X446087500Y-308101000D03*
X446087500Y-304801000D03*
X169862500Y-289050000D03*
X169862500Y-285750000D03*
X203200000Y-327150000D03*
X203200000Y-323850000D03*
X427037500Y-308101000D03*
X427037500Y-304801000D03*
X322262500Y-289050000D03*
X322262500Y-285750000D03*
X179387500Y-270000000D03*
X179387500Y-266700000D03*
X260350000Y-327150000D03*
X260350000Y-323850000D03*
X379412500Y-289050000D03*
X379412500Y-285750000D03*
X369887500Y-270000000D03*
X369887500Y-266700000D03*
X396081250Y-308101000D03*
X396081250Y-304801000D03*
X425450000Y-257237500D03*
X425450000Y-253937500D03*
X365125000Y-308100000D03*
X365125000Y-304800000D03*
X331787500Y-250950000D03*
X331787500Y-247650000D03*
X327025000Y-308100000D03*
X327025000Y-304800000D03*
X450056250Y-300100000D03*
X450056250Y-296800000D03*
X427037500Y-346201000D03*
X427037500Y-342901000D03*
X446087500Y-346201000D03*
X446087500Y-342901000D03*
X446087500Y-327150000D03*
X446087500Y-323850000D03*
X391318750Y-327150000D03*
X391318750Y-323850000D03*
X274637500Y-250950000D03*
X274637500Y-247650000D03*
X431800000Y-257237500D03*
X431800000Y-253937500D03*
X369887500Y-250950000D03*
X369887500Y-247650000D03*
X236537500Y-270000000D03*
X236537500Y-266700000D03*
X184150000Y-327150000D03*
X184150000Y-323850000D03*
X341312500Y-289050000D03*
X341312500Y-285750000D03*
X198437500Y-270000000D03*
X198437500Y-266700000D03*
X231775000Y-308100000D03*
X231775000Y-304800000D03*
X148431250Y-308100000D03*
X148431250Y-304800000D03*
X350837500Y-270000000D03*
X350837500Y-266700000D03*
X346075000Y-308100000D03*
X346075000Y-304800000D03*
X369887500Y-346201000D03*
X369887500Y-342901000D03*
X141287500Y-270000000D03*
X141287500Y-266700000D03*
X167481250Y-346200000D03*
X167481250Y-342900000D03*
X281781250Y-346201000D03*
X281781250Y-342901000D03*
X146050000Y-289050000D03*
X146050000Y-285750000D03*
X160337500Y-270000000D03*
X160337500Y-266700000D03*
X465137500Y-346201000D03*
X465137500Y-342901000D03*
X427037500Y-270002000D03*
X427037500Y-266702000D03*
X350837500Y-346201000D03*
X350837500Y-342901000D03*
X246062500Y-289050000D03*
X246062500Y-285750000D03*
X312737500Y-250950000D03*
X312737500Y-247650000D03*
X207962500Y-289050000D03*
X207962500Y-285750000D03*
X336550000Y-327150000D03*
X336550000Y-323850000D03*
X293687500Y-250950000D03*
X293687500Y-247650000D03*
X274637500Y-270000000D03*
X274637500Y-266700000D03*
X427037500Y-289050000D03*
X427037500Y-285750000D03*
X312737500Y-270000000D03*
X312737500Y-266700000D03*
D21*
X471170000Y-240665000D03*
X471170000Y-243205000D03*
X471170000Y-245745000D03*
X471170000Y-248285000D03*
X471170000Y-250825000D03*
X471170000Y-253365000D03*
X471170000Y-255905000D03*
X471170000Y-258445000D03*
X471170000Y-260985000D03*
X471170000Y-263525000D03*
X471170000Y-266065000D03*
X471170000Y-268605000D03*
X471170000Y-271145000D03*
X471170000Y-273685000D03*
X471170000Y-276225000D03*
X471170000Y-278765000D03*
X471170000Y-281305000D03*
X471170000Y-283845000D03*
X471170000Y-286385000D03*
X471170000Y-288925000D03*
X455930000Y-240665000D03*
X455930000Y-243205000D03*
X455930000Y-245745000D03*
X455930000Y-248285000D03*
X455930000Y-250825000D03*
X455930000Y-253365000D03*
X455930000Y-255905000D03*
X455930000Y-258445000D03*
X455930000Y-260985000D03*
X455930000Y-263525000D03*
X455930000Y-266065000D03*
X455930000Y-268605000D03*
X455930000Y-271145000D03*
X455930000Y-273685000D03*
X455930000Y-276225000D03*
X455930000Y-278765000D03*
X455930000Y-281305000D03*
X455930000Y-283845000D03*
X455930000Y-286385000D03*
X455930000Y-288925000D03*
D20*
X398462500Y-270001000D03*
X398462500Y-266701000D03*
X355600000Y-327150000D03*
X355600000Y-323850000D03*
X210343750Y-346201000D03*
X210343750Y-342901000D03*
X293687500Y-270000000D03*
X293687500Y-266700000D03*
X222250000Y-327150000D03*
X222250000Y-323850000D03*
M02*
