M48
; DRILL file {KiCad 8.0.7} date 2025-03-15T22:58:24-0700
; FORMAT={-:-/ absolute / metric / decimal}
; #@! TF.CreationDate,2025-03-15T22:58:24-07:00
; #@! TF.GenerationSoftware,Kicad,Pcbnew,8.0.7
; #@! TF.FileFunction,NonPlated,1,2,NPTH
FMAT,2
METRIC
; #@! TA.AperFunction,NonPlated,NPTH,ComponentDrill
T1C1.750
; #@! TA.AperFunction,NonPlated,NPTH,ComponentDrill
T2C3.000
; #@! TA.AperFunction,NonPlated,NPTH,ComponentDrill
T3C3.048
; #@! TA.AperFunction,NonPlated,NPTH,ComponentDrill
T4C3.988
; #@! TA.AperFunction,NonPlated,NPTH,ComponentDrill
T5C4.300
%
G90
G05
T1
X128.27Y-247.65
X128.27Y-266.7
X130.651Y-342.9
X133.032Y-285.75
X135.414Y-304.8
X138.43Y-247.65
X138.43Y-266.7
X140.176Y-323.85
X140.811Y-342.9
X143.192Y-285.75
X145.574Y-304.8
X147.32Y-247.65
X147.32Y-266.7
X150.336Y-323.85
X154.464Y-342.9
X156.845Y-285.75
X157.48Y-247.65
X157.48Y-266.7
X161.607Y-304.8
X164.624Y-342.9
X166.37Y-247.65
X166.37Y-266.7
X167.005Y-285.75
X171.132Y-323.85
X171.767Y-304.8
X175.895Y-285.75
X175.895Y-342.9
X176.53Y-247.65
X176.53Y-266.7
X180.657Y-304.8
X181.292Y-323.85
X185.42Y-247.65
X185.42Y-266.7
X186.055Y-285.75
X186.055Y-342.9
X190.183Y-323.85
X190.817Y-304.8
X194.945Y-285.75
X195.58Y-247.65
X195.58Y-266.7
X197.326Y-342.9
X199.707Y-304.8
X200.343Y-323.85
X204.47Y-247.65
X204.47Y-266.7
X205.105Y-285.75
X207.486Y-342.9
X209.232Y-323.85
X209.867Y-304.8
X213.995Y-285.75
X214.63Y-247.65
X214.63Y-266.7
X218.757Y-304.8
X219.392Y-323.85
X223.52Y-247.65
X223.52Y-266.7
X224.155Y-285.75
X228.282Y-323.85
X228.917Y-304.8
X233.045Y-285.75
X233.68Y-247.65
X233.68Y-266.7
X237.807Y-304.8
X238.442Y-323.85
X242.57Y-247.65
X242.57Y-266.7
X243.205Y-285.75
X247.332Y-323.85
X247.968Y-304.8
X252.095Y-285.75
X252.73Y-247.65
X252.73Y-266.7
X256.858Y-304.8
X257.493Y-323.85
X261.62Y-247.65
X261.62Y-266.7
X262.255Y-285.75
X266.382Y-323.85
X267.017Y-304.8
X268.764Y-342.9
X271.145Y-285.75
X271.78Y-247.65
X271.78Y-266.7
X275.907Y-304.8
X276.542Y-323.85
X278.924Y-342.9
X280.67Y-247.65
X280.67Y-266.7
X281.305Y-285.75
X285.433Y-323.85
X286.067Y-304.8
X290.195Y-285.75
X290.83Y-247.65
X290.83Y-266.7
X294.957Y-304.8
X295.592Y-323.85
X299.72Y-247.65
X299.72Y-266.7
X300.355Y-285.75
X304.482Y-323.85
X305.118Y-304.8
X309.245Y-285.75
X309.88Y-247.65
X309.88Y-266.7
X314.007Y-304.8
X314.642Y-323.85
X318.77Y-247.65
X318.77Y-266.7
X319.405Y-285.75
X323.532Y-323.85
X324.167Y-304.8
X328.295Y-285.75
X328.93Y-247.65
X328.93Y-266.7
X333.058Y-304.8
X333.692Y-323.85
X337.82Y-247.65
X337.82Y-266.7
X337.82Y-342.9
X338.455Y-285.75
X342.582Y-323.85
X343.217Y-304.8
X347.345Y-285.75
X347.98Y-247.65
X347.98Y-266.7
X347.98Y-342.9
X352.107Y-304.8
X352.743Y-323.85
X356.87Y-247.65
X356.87Y-266.7
X356.87Y-342.9
X357.505Y-285.75
X362.267Y-304.8
X366.395Y-285.75
X367.03Y-247.65
X367.03Y-266.7
X367.03Y-342.9
X375.92Y-342.9
X376.555Y-285.75
X378.301Y-323.85
X383.064Y-304.8
X385.445Y-266.7
X386.08Y-342.9
X388.461Y-323.85
X390.207Y-285.75
X393.224Y-304.8
X394.97Y-247.65
X394.97Y-342.9
X395.605Y-266.7
X400.368Y-285.75
X405.13Y-247.65
X405.13Y-342.9
X414.02Y-266.7
X414.02Y-285.75
X414.02Y-304.8
X414.02Y-342.9
X424.18Y-266.7
X424.18Y-285.75
X424.18Y-304.8
X424.18Y-342.9
X433.07Y-266.7
X433.07Y-285.75
X433.07Y-304.8
X433.07Y-323.85
X433.07Y-342.9
X443.23Y-266.7
X443.23Y-285.75
X443.23Y-304.8
X443.23Y-323.85
X443.23Y-342.9
X452.12Y-342.9
X462.28Y-342.9
T2
X129.54Y-245.11
X129.54Y-264.16
X131.921Y-340.36
X134.302Y-283.21
X135.89Y-242.57
X135.89Y-261.62
X136.684Y-302.26
X138.271Y-337.82
X140.653Y-280.67
X141.446Y-321.31
X143.034Y-299.72
X147.796Y-318.77
X148.59Y-245.11
X148.59Y-264.16
X154.94Y-242.57
X154.94Y-261.62
X155.734Y-340.36
X158.115Y-283.21
X162.084Y-337.82
X162.877Y-302.26
X164.465Y-280.67
X167.64Y-245.11
X167.64Y-264.16
X169.227Y-299.72
X172.403Y-321.31
X173.99Y-242.57
X173.99Y-261.62
X177.165Y-283.21
X177.165Y-340.36
X178.752Y-318.77
X181.927Y-302.26
X183.515Y-280.67
X183.515Y-337.82
X186.69Y-245.11
X186.69Y-264.16
X188.278Y-299.72
X191.452Y-321.31
X193.04Y-242.57
X193.04Y-261.62
X196.215Y-283.21
X197.802Y-318.77
X198.596Y-340.36
X200.977Y-302.26
X202.565Y-280.67
X204.946Y-337.82
X205.74Y-245.11
X205.74Y-264.16
X207.327Y-299.72
X210.502Y-321.31
X212.09Y-242.57
X212.09Y-261.62
X215.265Y-283.21
X216.852Y-318.77
X220.028Y-302.26
X221.615Y-280.67
X224.79Y-245.11
X224.79Y-264.16
X226.377Y-299.72
X229.552Y-321.31
X231.14Y-242.57
X231.14Y-261.62
X234.315Y-283.21
X235.903Y-318.77
X239.077Y-302.26
X240.665Y-280.67
X243.84Y-245.11
X243.84Y-264.16
X245.427Y-299.72
X248.602Y-321.31
X250.19Y-242.57
X250.19Y-261.62
X253.365Y-283.21
X254.952Y-318.77
X258.127Y-302.26
X259.715Y-280.67
X262.89Y-245.11
X262.89Y-264.16
X264.477Y-299.72
X267.652Y-321.31
X269.24Y-242.57
X269.24Y-261.62
X270.034Y-340.36
X272.415Y-283.21
X274.002Y-318.77
X276.384Y-337.82
X277.178Y-302.26
X278.765Y-280.67
X281.94Y-245.11
X281.94Y-264.16
X283.527Y-299.72
X286.702Y-321.31
X288.29Y-242.57
X288.29Y-261.62
X291.465Y-283.21
X293.053Y-318.77
X296.227Y-302.26
X297.815Y-280.67
X300.99Y-245.11
X300.99Y-264.16
X302.577Y-299.72
X305.752Y-321.31
X307.34Y-242.57
X307.34Y-261.62
X310.515Y-283.21
X312.102Y-318.77
X315.277Y-302.26
X316.865Y-280.67
X320.04Y-245.11
X320.04Y-264.16
X321.627Y-299.72
X324.803Y-321.31
X326.39Y-242.57
X326.39Y-261.62
X329.565Y-283.21
X331.152Y-318.77
X334.327Y-302.26
X335.915Y-280.67
X339.09Y-245.11
X339.09Y-264.16
X339.09Y-340.36
X340.678Y-299.72
X343.852Y-321.31
X345.44Y-242.57
X345.44Y-261.62
X345.44Y-337.82
X348.615Y-283.21
X350.202Y-318.77
X353.377Y-302.26
X354.965Y-280.67
X358.14Y-245.11
X358.14Y-264.16
X358.14Y-340.36
X359.727Y-299.72
X364.49Y-242.57
X364.49Y-261.62
X364.49Y-337.82
X367.665Y-283.21
X374.015Y-280.67
X377.19Y-340.36
X379.571Y-321.31
X383.54Y-337.82
X384.334Y-302.26
X385.921Y-318.77
X386.715Y-264.16
X390.684Y-299.72
X391.477Y-283.21
X393.065Y-261.62
X396.24Y-245.11
X396.24Y-340.36
X397.827Y-280.67
X402.59Y-242.57
X402.59Y-337.82
X415.29Y-264.16
X415.29Y-283.21
X415.29Y-302.26
X415.29Y-340.36
X421.64Y-261.62
X421.64Y-280.67
X421.64Y-299.72
X421.64Y-337.82
X434.34Y-264.16
X434.34Y-283.21
X434.34Y-302.26
X434.34Y-321.31
X434.34Y-340.36
X440.69Y-261.62
X440.69Y-280.67
X440.69Y-299.72
X440.69Y-318.77
X440.69Y-337.82
X453.39Y-340.36
X459.74Y-337.82
T3
X133.318Y-316.865
X157.194Y-316.865
X223.844Y-335.915
X323.844Y-335.915
X371.443Y-316.865
X376.206Y-297.815
X378.587Y-259.715
X395.319Y-316.865
X400.082Y-297.815
X402.463Y-259.715
T4
X133.318Y-332.105
X133.35Y-247.65
X133.35Y-266.7
X135.731Y-342.9
X138.112Y-285.75
X140.494Y-304.8
X145.256Y-323.85
X152.4Y-247.65
X152.4Y-266.7
X157.194Y-332.105
X159.544Y-342.9
X161.925Y-285.75
X166.688Y-304.8
X171.45Y-247.65
X171.45Y-266.7
X176.213Y-323.85
X180.975Y-285.75
X180.975Y-342.9
X185.737Y-304.8
X190.5Y-247.65
X190.5Y-266.7
X195.262Y-323.85
X200.025Y-285.75
X202.406Y-342.9
X204.787Y-304.8
X209.55Y-247.65
X209.55Y-266.7
X214.312Y-323.85
X219.075Y-285.75
X223.837Y-304.8
X223.844Y-351.155
X228.6Y-247.65
X228.6Y-266.7
X233.362Y-323.85
X238.125Y-285.75
X242.887Y-304.8
X247.65Y-247.65
X247.65Y-266.7
X252.412Y-323.85
X257.175Y-285.75
X261.938Y-304.8
X266.7Y-247.65
X266.7Y-266.7
X271.462Y-323.85
X273.844Y-342.9
X276.225Y-285.75
X280.988Y-304.8
X285.75Y-247.65
X285.75Y-266.7
X290.512Y-323.85
X295.275Y-285.75
X300.037Y-304.8
X304.8Y-247.65
X304.8Y-266.7
X309.562Y-323.85
X314.325Y-285.75
X319.087Y-304.8
X323.844Y-351.155
X323.85Y-247.65
X323.85Y-266.7
X328.613Y-323.85
X333.375Y-285.75
X338.137Y-304.8
X342.9Y-247.65
X342.9Y-266.7
X342.9Y-342.9
X347.662Y-323.85
X352.425Y-285.75
X357.188Y-304.8
X361.95Y-247.65
X361.95Y-266.7
X361.95Y-342.9
X371.443Y-332.105
X371.475Y-285.75
X376.206Y-313.055
X378.587Y-274.955
X381.0Y-342.9
X383.381Y-323.85
X388.144Y-304.8
X390.525Y-266.7
X395.287Y-285.75
X395.319Y-332.105
X400.05Y-247.65
X400.05Y-342.9
X400.082Y-313.055
X402.463Y-274.955
X419.1Y-266.7
X419.1Y-285.75
X419.1Y-304.8
X419.1Y-342.9
X438.15Y-266.7
X438.15Y-285.75
X438.15Y-304.8
X438.15Y-323.85
X438.15Y-342.9
X457.2Y-342.9
T5
X118.11Y-232.41
X118.11Y-358.14
X208.915Y-232.41
X251.46Y-342.9
X296.545Y-342.9
X390.525Y-232.41
X481.33Y-232.41
X481.33Y-358.14
M30
