M48
; DRILL file {KiCad 8.0.7} date 2025-03-15T22:58:24-0700
; FORMAT={-:-/ absolute / metric / decimal}
; #@! TF.CreationDate,2025-03-15T22:58:24-07:00
; #@! TF.GenerationSoftware,Kicad,Pcbnew,8.0.7
; #@! TF.FileFunction,Plated,1,2,PTH
FMAT,2
METRIC
; #@! TA.AperFunction,Plated,PTH,ViaDrill
T1C0.400
; #@! TA.AperFunction,Plated,PTH,ComponentDrill
T2C0.914
; #@! TA.AperFunction,Plated,PTH,ComponentDrill
T3C1.000
; #@! TA.AperFunction,Plated,PTH,ComponentDrill
T4C2.000
%
G90
G05
T1
X142.748Y-250.952
X142.748Y-270.002
X145.161Y-346.202
X147.574Y-289.052
X149.987Y-308.102
X154.686Y-327.152
X158.877Y-250.952
X158.877Y-270.002
X161.798Y-250.952
X161.798Y-270.002
X165.989Y-346.202
X168.402Y-289.052
X169.037Y-346.202
X171.323Y-289.052
X173.101Y-308.102
X176.149Y-308.102
X177.927Y-250.952
X177.927Y-270.002
X180.848Y-250.952
X180.848Y-270.002
X182.626Y-327.152
X185.674Y-327.152
X187.452Y-289.052
X187.452Y-346.202
X190.373Y-289.052
X190.373Y-346.202
X192.151Y-308.102
X195.199Y-308.102
X196.977Y-250.952
X196.977Y-270.002
X199.898Y-250.952
X199.898Y-270.002
X201.676Y-327.152
X204.724Y-327.152
X206.502Y-289.052
X208.788Y-346.202
X209.423Y-289.052
X211.201Y-308.102
X211.836Y-346.202
X214.249Y-308.102
X216.027Y-250.952
X216.027Y-270.002
X218.948Y-250.952
X218.948Y-270.002
X220.726Y-327.152
X223.774Y-327.152
X225.552Y-289.052
X228.473Y-289.052
X230.251Y-308.102
X233.299Y-308.102
X235.077Y-250.952
X235.077Y-270.002
X237.998Y-250.952
X237.998Y-270.002
X239.776Y-327.152
X242.824Y-327.152
X244.602Y-289.052
X247.523Y-289.052
X249.301Y-308.102
X252.349Y-308.102
X254.127Y-250.952
X254.127Y-270.002
X257.048Y-250.952
X257.048Y-270.002
X258.826Y-327.152
X261.874Y-327.152
X263.652Y-289.052
X266.573Y-289.052
X268.351Y-308.102
X271.399Y-308.102
X273.177Y-250.952
X273.177Y-270.002
X276.225Y-250.952
X276.225Y-270.002
X277.876Y-327.152
X280.289Y-346.202
X280.924Y-327.152
X282.702Y-289.052
X283.337Y-346.202
X283.464Y-323.088
X285.75Y-289.052
X287.401Y-308.102
X290.449Y-308.102
X295.275Y-250.952
X295.275Y-270.002
X299.974Y-327.152
X304.8Y-289.052
X309.499Y-308.102
X311.15Y-250.952
X311.15Y-270.002
X314.325Y-250.952
X314.325Y-270.002
X315.976Y-327.152
X319.024Y-327.152
X320.675Y-289.052
X323.85Y-289.052
X325.501Y-308.102
X328.549Y-308.102
X330.2Y-250.952
X330.2Y-270.002
X333.375Y-250.952
X333.375Y-270.002
X335.026Y-327.152
X335.915Y-338.582
X338.074Y-327.152
X339.725Y-289.052
X342.9Y-289.052
X344.551Y-308.102
X347.599Y-308.102
X349.25Y-250.952
X349.25Y-270.002
X352.425Y-250.952
X352.425Y-270.002
X352.425Y-346.202
X354.076Y-327.152
X355.092Y-338.582
X357.124Y-327.152
X358.775Y-289.052
X361.95Y-289.052
X363.601Y-308.102
X366.649Y-308.102
X368.3Y-250.952
X368.3Y-270.002
X368.3Y-346.202
X371.475Y-250.952
X371.475Y-270.002
X371.475Y-346.202
X374.015Y-338.582
X377.825Y-289.052
X381.0Y-289.052
X387.35Y-346.202
X389.763Y-327.152
X390.525Y-346.202
X392.811Y-327.152
X393.065Y-338.582
X394.589Y-308.102
X396.875Y-270.002
X397.637Y-308.102
X400.05Y-270.002
X401.701Y-289.052
X404.749Y-289.052
X406.4Y-250.952
X406.4Y-346.202
X408.051Y-252.222
X409.575Y-346.202
X411.226Y-257.175
X413.004Y-338.455
X414.274Y-257.175
X423.926Y-257.302
X425.45Y-270.002
X425.45Y-289.052
X425.45Y-308.102
X425.45Y-346.202
X426.974Y-257.175
X428.625Y-270.002
X428.625Y-289.052
X428.625Y-308.102
X428.625Y-346.202
X430.276Y-257.175
X431.673Y-338.582
X433.324Y-257.175
X442.976Y-257.302
X444.5Y-270.002
X444.5Y-289.052
X444.5Y-308.102
X444.5Y-327.152
X444.5Y-346.202
X447.675Y-308.102
X447.675Y-327.152
X447.675Y-346.202
X450.088Y-301.371
X450.85Y-338.582
X451.739Y-294.259
X463.55Y-346.202
T2
X455.93Y-240.665
X455.93Y-243.205
X455.93Y-245.745
X455.93Y-248.285
X455.93Y-250.825
X455.93Y-253.365
X455.93Y-255.905
X455.93Y-258.445
X455.93Y-260.985
X455.93Y-263.525
X455.93Y-266.065
X455.93Y-268.605
X455.93Y-271.145
X455.93Y-273.685
X455.93Y-276.225
X455.93Y-278.765
X455.93Y-281.305
X455.93Y-283.845
X455.93Y-286.385
X455.93Y-288.925
X471.17Y-240.665
X471.17Y-243.205
X471.17Y-245.745
X471.17Y-248.285
X471.17Y-250.825
X471.17Y-253.365
X471.17Y-255.905
X471.17Y-258.445
X471.17Y-260.985
X471.17Y-263.525
X471.17Y-266.065
X471.17Y-268.605
X471.17Y-271.145
X471.17Y-273.685
X471.17Y-276.225
X471.17Y-278.765
X471.17Y-281.305
X471.17Y-283.845
X471.17Y-286.385
X471.17Y-288.925
T3
X411.85Y-244.356
X411.85Y-246.856
X411.85Y-249.356
X426.35Y-244.356
X426.35Y-249.356
X430.9Y-244.356
X430.9Y-246.856
X430.9Y-249.356
X445.4Y-244.356
X445.4Y-249.356
X457.037Y-296.506
X457.037Y-311.006
X459.537Y-296.506
X462.037Y-296.506
X462.037Y-311.006
T4
X419.1Y-241.256G85X419.6Y-241.256
G05
X419.1Y-252.456G85X419.6Y-252.456
G05
X438.15Y-241.256G85X438.65Y-241.256
G05
X438.15Y-252.456G85X438.65Y-252.456
G05
X453.938Y-303.756G85X453.938Y-304.256
G05
X465.137Y-303.756G85X465.137Y-304.256
G05
M30
